<?xml version="1.0" encoding="UTF-8" standalone="no"?>
<!-- Created with Inkscape (http://www.inkscape.org/) -->

<svg
   xmlns:dc="http://purl.org/dc/elements/1.1/"
   xmlns:cc="http://creativecommons.org/ns#"
   xmlns:rdf="http://www.w3.org/1999/02/22-rdf-syntax-ns#"
   xmlns:svg="http://www.w3.org/2000/svg"
   xmlns="http://www.w3.org/2000/svg"
   xmlns:sodipodi="http://sodipodi.sourceforge.net/DTD/sodipodi-0.dtd"
   xmlns:inkscape="http://www.inkscape.org/namespaces/inkscape"
   width="210mm"
   height="297mm"
   viewBox="0 0 744.09448819 1052.3622047"
   id="svg4979"
   version="1.1"
   inkscape:version="0.91 r"
   sodipodi:docname="blue.svg"
   inkscape:export-filename="/home/timmy/ghp/wotw/flags/blue-small.png"
   inkscape:export-xdpi="29.347826"
   inkscape:export-ydpi="29.347826">
  <defs
     id="defs4981" />
  <sodipodi:namedview
     id="base"
     pagecolor="#ffffff"
     bordercolor="#666666"
     borderopacity="1.0"
     inkscape:pageopacity="0.0"
     inkscape:pageshadow="2"
     inkscape:zoom="0.43543761"
     inkscape:cx="-341.05167"
     inkscape:cy="520"
     inkscape:document-units="px"
     inkscape:current-layer="layer1"
     showgrid="false"
     inkscape:window-width="1301"
     inkscape:window-height="744"
     inkscape:window-x="65"
     inkscape:window-y="24"
     inkscape:window-maximized="1" />
  <metadata
     id="metadata4984">
    <rdf:RDF>
      <cc:Work
         rdf:about="">
        <dc:format>image/svg+xml</dc:format>
        <dc:type
           rdf:resource="http://purl.org/dc/dcmitype/StillImage" />
        <dc:title></dc:title>
      </cc:Work>
    </rdf:RDF>
  </metadata>
  <g
     inkscape:label="Flag Base"
     inkscape:groupmode="layer"
     id="layer1">
    <rect
       style="opacity:1;fill:#000080;fill-opacity:1;stroke:#000000;stroke-width:0;stroke-linecap:round;stroke-linejoin:round;stroke-miterlimit:4;stroke-dasharray:none;stroke-opacity:1"
       id="rect5527"
       width="920"
       height="491.42856"
       x="-625.71429"
       y="175.21935" />
    <rect
       transform="scale(1,-1)"
       style="opacity:1;fill:#3771c8;fill-opacity:1;stroke:#000000;stroke-width:0;stroke-linecap:round;stroke-linejoin:round;stroke-miterlimit:4;stroke-dasharray:none;stroke-opacity:1"
       id="rect15151"
       width="920"
       height="279.2384"
       x="-625.71429"
       y="-560.42712" />
    <path
       inkscape:connector-curvature="0"
       d="m -574.66317,574.72302 c -0.38928,-12.42528 2.96692,-24.94526 1.57815,-37.41263 -0.21042,-1.94637 -1.6518,-3.77703 -0.84169,-5.76549 1.12575,-2.79859 4.23996,-4.46091 5.48144,-7.3647 0.98898,-2.37774 1.09418,-4.88174 1.4519,-7.39625 0.28407,-2.23045 3.2615,-4.99747 2.51451,-6.90176 -1.58867,-4.02954 3.92433,-14.92928 4.80809,-19.50591 1.27304,-6.50197 -0.10521,-13.55103 3.54558,-19.25341 2.4093,-3.81911 0.88376,-11.74141 3.68234,-14.22437 2.86171,-2.51451 7.54354,-8.00646 9.34263,-11.40474 2.66181,-5.02903 1.03106,-12.94082 9.16378,-13.69833 5.74446,-0.52604 6.23895,-4.92382 9.05857,-9.86868 6.69135,-11.70986 8.59564,-29.91116 5.48143,-42.89406 -1.42033,-5.97592 -3.77703,-10.26848 -7.15427,-15.32907 -3.50349,-5.30258 -3.64025,-9.41628 -5.54456,-14.92928 -0.88376,-2.51451 -3.15629,-4.42934 -3.47192,-7.1227 -0.42084,-3.29307 0.0737,-6.33364 -1.42033,-9.43733 -2.1568,-4.60819 -6.43885,-10.55255 0,-13.8351 -1.69388,1.23096 -2.93536,3.18786 -2.79858,5.37622 1.37825,-2.57763 2.90379,-5.23944 4.99746,-7.28051 1.69388,-1.66232 4.41881,-1.55711 4.70288,-4.2084 0.77855,-6.90177 -0.64178,-13.24592 -3.92432,-19.29549 -3.756,-6.79655 -5.70238,-13.90874 -8.56408,-21.05249 -1.27305,-3.18785 -1.16783,-6.70186 -2.12524,-9.98441 -1.34669,-4.85018 -5.83916,-8.11168 -8.35367,-12.35164 -2.0095,-3.42984 -9.12169,-15.50793 -2.93535,-17.41223 2.8617,-0.88376 5.80758,-0.92585 8.74294,-1.3046 4.1137,-0.53657 6.12321,-4.17683 10.62619,-4.63975 20.84207,-1.97795 41.93665,0.38927 62.89445,-0.0737 7.96439,-0.21042 16.09711,-0.81012 24.07201,-0.52605 7.45938,0.24198 5.87072,5.34466 9.31107,10.15275 1.4519,1.97794 0.13678,8.03803 0.76804,10.69984 1.19939,4.77653 3.54557,9.16378 5.34466,13.72989 1.38877,3.54557 -0.76803,6.65978 2.24097,9.84764 3.18786,3.39827 3.99797,5.83914 5.91279,9.97389 1.15731,2.54608 6.64926,14.47688 10.30005,13.48791 2.1568,-0.61022 13.17227,0.24198 13.13019,0.22093 -0.56814,-1.38876 11.85714,-4.99747 14.12968,-4.50297 6.3652,1.42033 12.20434,2.1568 19.74789,2.1568 -0.92585,-4.41882 1.76752,-8.81659 0.24198,-13.2354 3.78756,0.81012 4.11371,-2.79858 3.65078,-5.52352 -0.67334,-3.77704 2.26202,-8.45887 0.95741,-11.81507 6.54406,0 13.14071,0.1473 19.67425,0.0737 1.9569,0 0.82063,-2.27254 2.4093,-2.84066 2.28305,-0.77856 4.93434,0 7.23844,0 -1.46242,7.29103 -5.42883,11.46787 3.8612,11.46787 8.10116,0 16.27597,-0.4524 24.3666,-0.24199 6.74396,0.1473 5.52352,6.87021 3.94537,11.39423 -0.86272,2.54608 -2.03055,5.13424 -2.24097,7.85918 -0.34719,4.28204 3.36672,8.63773 4.1137,12.93029 1.62024,9.01649 -1.74648,19.0009 -2.4093,28.05946 -0.75751,9.44785 2.56712,13.17228 7.99595,20.2529 3.8612,4.98695 5.77602,17.93828 4.60819,24.06149 -0.38927,2.12524 -2.44087,3.50349 -3.18786,5.55508 -1.42033,3.81912 2.44087,7.4699 1.23095,11.43631 3.29308,0.0737 6.22843,-4.63975 8.9218,-6.09165 2.3041,-1.23095 9.26899,0.64179 11.81507,1.34669 4.54507,1.24148 9.87921,-3.85068 14.72938,-3.65078 4.60819,0.17885 9.74243,3.05108 11.70986,-3.07213 1.37824,3.3562 2.73545,13.08811 2.0095,16.51795 -0.38927,1.88326 -1.33616,3.54557 -2.05159,5.28154 -1.23095,3.07212 0.88376,6.18633 -0.21042,9.31107 -2.00951,5.69185 2.24097,11.11015 0.69439,16.81253 -1.52555,5.69185 -5.60769,10.36317 -0.73647,15.78148 -10.30004,3.39828 -24.25088,0.99949 -34.92967,0.99949 -5.38675,0 -10.93131,-0.22094 -16.23389,0.64178 -6.31259,1.03106 -3.68234,18.62214 -3.68234,23.56701 -0.0842,12.24643 0.64178,24.52441 0.26303,36.77084 -0.26303,11.39423 -2.00951,22.90419 -0.38928,34.26685 1.66231,11.49944 7.76448,14.71886 14.44531,23.0094 7.15427,8.84814 14.34011,17.69629 23.95629,23.98784 -15.7394,3.05109 -31.64713,5.73394 -47.19714,9.774 -6.20739,1.63075 -8.56409,0.0421 -14.4874,-0.5997 -2.60921,-0.31563 -4.85018,0.95741 -7.2174,1.72544 -3.90329,1.31513 -7.62771,-0.5997 -11.32058,-1.62023 -13.21436,-3.6087 -27.36508,-2.15681 -40.77934,-4.23996 -5.7655,-0.89428 -8.6272,-5.92331 -11.46787,-10.37369 -2.65129,-4.2084 -10.3316,-2.44087 -14.32958,-2.1568 -32.87808,2.37774 -66.78721,0.10521 -99.7705,0.10521 -6.79656,0 -7.54355,-0.42084 -13.41426,-5.02903 -5.87071,-4.62924 -10.39473,-10.08962 -18.47485,-6.85968 -5.83915,2.33565 -11.9308,9.58461 -18.62214,6.4704 -6.67031,-3.12473 -9.11118,0.18938 -15.58158,1.22044"
       id="path3888"
       style="fill:#0000ff;stroke:#ffffff;stroke-width:3.15629554;stroke-miterlimit:3.97000003;stroke-dasharray:none" />
  </g>
  <g
     inkscape:groupmode="layer"
     id="layer5"
     inkscape:label="Countries in Background" />
</svg>
