<?xml version="1.0" encoding="UTF-8" standalone="no"?>
<!-- Created with Inkscape (http://www.inkscape.org/) -->

<svg
   xmlns:dc="http://purl.org/dc/elements/1.1/"
   xmlns:cc="http://creativecommons.org/ns#"
   xmlns:rdf="http://www.w3.org/1999/02/22-rdf-syntax-ns#"
   xmlns:svg="http://www.w3.org/2000/svg"
   xmlns="http://www.w3.org/2000/svg"
   xmlns:sodipodi="http://sodipodi.sourceforge.net/DTD/sodipodi-0.dtd"
   xmlns:inkscape="http://www.inkscape.org/namespaces/inkscape"
   width="210mm"
   height="297mm"
   viewBox="0 0 744.09448819 1052.3622047"
   id="svg5569"
   version="1.1"
   inkscape:version="0.91 r"
   sodipodi:docname="green.svg"
   inkscape:export-filename="/home/timmy/ghp/wotw/flags/green-big.png"
   inkscape:export-xdpi="87.096771"
   inkscape:export-ydpi="87.096771">
  <defs
     id="defs5571" />
  <sodipodi:namedview
     id="base"
     pagecolor="#ffffff"
     bordercolor="#666666"
     borderopacity="1.0"
     inkscape:pageopacity="0.0"
     inkscape:pageshadow="2"
     inkscape:zoom="0.68944087"
     inkscape:cx="-214.01835"
     inkscape:cy="520"
     inkscape:document-units="px"
     inkscape:current-layer="layer1"
     showgrid="false"
     inkscape:window-width="1301"
     inkscape:window-height="744"
     inkscape:window-x="65"
     inkscape:window-y="24"
     inkscape:window-maximized="1" />
  <metadata
     id="metadata5574">
    <rdf:RDF>
      <cc:Work
         rdf:about="">
        <dc:format>image/svg+xml</dc:format>
        <dc:type
           rdf:resource="http://purl.org/dc/dcmitype/StillImage" />
        <dc:title />
      </cc:Work>
    </rdf:RDF>
  </metadata>
  <g
     inkscape:label="Layer 1"
     inkscape:groupmode="layer"
     id="layer1">
    <rect
       style="opacity:1;fill:#41a500;fill-opacity:1;stroke:#00ff00;stroke-width:10;stroke-linecap:round;stroke-linejoin:miter;stroke-miterlimit:4;stroke-dasharray:none;stroke-opacity:1"
       id="rect5527"
       width="920"
       height="491.42856"
       x="-585.71429"
       y="358.07651" />
    <path
       inkscape:connector-curvature="0"
       d="m -459.30692,825.25969 c -1.04879,0.81961 -2.21567,1.26413 -3.52841,1.33358 1.2919,-2.10455 -2.38238,-4.32718 -2.61854,-1.91702 -0.25698,2.77829 -4.67446,3.83403 -7.14713,4.1188 3.66733,-4.1188 8.55016,-6.23724 13.62748,-8.0848 -4.3758,1.34746 -0.0278,1.23633 0.95851,0.74319 1.61139,-0.84043 2.70883,-1.68086 4.57722,-2.10455 4.46608,-0.98629 6.51507,-3.05611 10.56442,-4.862 8.48765,-3.7854 16.61414,-6.3067 25.79637,-7.91811 -4.36885,0.95851 4.20215,0.29867 5.36903,0 -2.49351,1.5628 -3.54926,2.18791 -4.20216,5.20929 2.19486,0.53483 7.50137,-7.036 8.41821,-1.17382 0.63206,-0.22922 1.18772,-0.55566 1.68086,-1.00712 -5.84829,-4.74393 24.57398,-13.75947 26.33125,-14.32206 4.11187,-1.24329 8.08481,-2.87552 12.17583,-4.16048 1.97953,-0.61123 3.12557,0.0902 5.06342,0.20836 2.41016,0.15976 3.57704,-2.15317 5.0287,-3.58398 2.96581,-2.89635 8.00839,-4.20217 11.71046,-5.86218 4.71614,-2.13233 9.55729,-4.36884 14.7388,-5.09121 -2.75051,3.45896 3.3895,1.32663 4.36884,0.32646 -1.16688,0.79181 -2.45183,1.14605 -3.8757,1.00712 1.97953,-0.88905 2.2643,-3.29921 3.70901,-4.69529 1.63224,-1.63225 3.86181,-2.45879 5.63991,-3.88266 2.68799,-2.15317 8.28624,-7.00822 11.84243,-4.04239 -0.84043,-1.19467 -2.21567,-1.59057 -3.52841,-0.84043 0.27782,-4.5564 8.26539,-6.75818 11.68268,-7.87645 7.03601,-2.31291 12.31474,-6.779 18.95484,-9.78651 -3.68817,1.04881 -6.68177,3.57704 -10.27965,4.80644 -2.94498,1.00713 -6.04971,1.54889 -9.04332,2.50045 -3.08388,1.00714 -11.02978,4.60501 -13.9956,1.93786 1.23634,-0.7432 1.52111,-1.70864 1.14604,-3.04222 -0.25699,-0.95851 2.81996,-2.2643 3.4798,-2.61854 1.35442,-0.74319 6.14696,-2.73661 4.95229,0.79181 0.93768,-0.0903 1.50028,-0.58343 1.68086,-1.5211 -1.42386,-0.32645 -2.94497,-1.54195 -2.68798,-3.20197 -0.77097,1.72948 -2.63937,2.8269 -4.25077,3.60483 -1.26412,0.61121 -8.01536,3.76456 -3.99379,0.27781 -2.431,2.01427 -6.91793,3.81321 -8.36263,6.51508 -1.00713,1.91702 -3.76458,4.81338 -6.33449,3.78541 -2.38238,-0.97935 3.4798,-7.75141 -0.60428,-7.7792 0.63206,-0.39589 1.23634,-0.79181 1.84756,-1.1877 -2.50045,-1.04881 -5.02869,1.68086 -7.22353,2.36154 0.40285,-0.68068 0.79181,-1.33358 1.17382,-2.01427 -1.35441,0.51399 -2.41016,-0.25697 -2.85468,-1.5211 0.61122,-0.29867 1.21549,-0.58345 1.84755,-0.84043 -3.8757,-2.43099 -13.92614,3.34089 -18.24637,3.78542 -3.04222,0.3056 -5.44544,2.50045 -8.43904,3.25059 -1.11825,0.23614 -2.1879,0.51397 -3.29226,0.86821 -1.45167,0.53481 -2.56992,-1.30579 -4.18828,-0.84043 2.61854,-2.2157 7.59862,-0.70847 9.55731,-3.76458 2.7366,-4.25078 3.81319,-3.45897 8.29318,-5.30653 -1.75032,-0.22921 -3.55621,-0.3056 -5.23707,0.32646 1.6114,-5.32736 8.16121,-4.97312 11.98829,-7.57083 1.50028,-1.00712 2.47962,-5.38987 3.61871,-7.036 1.70865,-2.45184 3.88266,-4.54945 6.45258,-6.07055 -1.23634,-0.0278 -2.36155,0.32645 -3.36173,1.00713 4.86199,-5.84134 12.38419,-7.31383 18.9965,-10.25881 -1.70864,0.29867 -3.83402,2.07677 -3.20196,-0.51398 -1.14605,1.82672 -17.96855,8.39041 -17.6421,9.18222 2.50045,6.27892 -27.90091,8.15426 -31.14457,7.47358 0.40286,-2.08371 2.38239,-2.26429 3.88266,-3.20198 -2.50045,-0.72234 -1.84756,-5.13981 0.15976,-6.0497 -3.85488,2.33375 -6.14696,-1.42388 -1.16689,-3.04222 -1.19467,-0.37508 -2.36153,-0.37508 -3.52842,0 2.17401,-3.05611 6.70261,-2.89637 9.80735,-4.46609 1.01407,-0.51399 2.29208,-1.0488 3.06305,-1.88923 1.49333,-1.63224 2.96582,-0.53482 4.78559,-1.2155 -2.8269,2.8269 0.72236,1.0488 2.12539,2.75049 0.93767,1.12521 -5.63297,3.18115 -6.51507,3.45897 4.25077,-0.58344 7.87643,-3.25059 12.1272,-3.85486 -0.3959,1.37524 -1.32663,2.5699 -2.52129,3.36171 2.08371,0.42369 6.12612,-0.53481 7.64723,-2.10455 1.51417,-1.54889 -0.44453,-2.68799 -1.91702,-2.45878 1.68087,-0.60427 3.50759,-0.53481 5.20929,-1.16688 -2.26431,-0.0486 -2.26431,-0.51398 0,-1.35441 -4.01463,0.0486 -7.47359,2.75745 -11.56461,2.05594 -2.79913,-0.48621 -6.77902,-2.49351 -9.46006,-0.70153 0.58344,-2.5699 5.79272,-3.3895 7.89727,-3.52842 -1.30579,-0.54177 -2.4935,-0.3056 -3.52842,0.68069 0.14587,-1.35442 1.02797,-2.38933 2.36154,-2.69494 -1.06963,0.49314 -2.19484,0.84043 -3.36172,1.01407 0.63207,-2.17401 3.61872,-2.69494 5.20929,-3.88265 -3.99379,0.51399 -6.49424,6.00109 -10.7728,5.20928 -0.25699,-2.03509 2.5213,-2.47268 1.02797,-4.22993 -1.24329,-1.44472 4.32023,-2.89636 5.02174,-3.33394 -0.97934,-0.93767 -2.10455,-1.16688 -3.36172,-0.68069 0.93767,-3.81319 5.0912,-2.36153 7.92505,-2.84774 -3.83403,0.18059 0.58345,-2.8269 2.87552,-2.66715 3.41035,0.2292 7.80004,-4.72308 11.05063,-6.14695 4.46609,-1.93786 8.97385,-3.85487 13.55108,-5.56352 1.35441,-0.48619 3.13251,-1.28494 4.62584,-0.95851 2.2643,0.46537 0.63206,2.31294 -0.6529,2.70883 1.28496,-0.27782 2.52129,-0.72234 3.68817,-1.34746 -4.67446,-0.79181 7.08463,-4.81338 8.59879,-5.37598 -2.52129,0.70846 -4.88283,1.82672 -7.40412,2.5213 2.79911,-4.01462 10.98116,-8.92523 15.98207,-7.23743 -2.77828,-3.08391 6.75817,-4.22993 8.2515,-4.34802 1.45166,-0.0973 3.13253,0.32644 4.34802,1.09742 2.33375,1.49333 -5.20928,3.20198 -6.02888,3.75762 5.79272,-2.47266 12.35642,-0.9585 18.1283,-3.57702 5.58435,-2.54215 11.38402,-4.88283 17.36428,-6.35533 -0.63207,0.53481 -1.26413,1.09742 -1.85451,1.68086 8.8141,0.30561 17.1559,-0.81265 24.91425,-5.20928 3.05611,-1.72949 5.27875,-4.16047 7.89728,-6.47341 1.6114,-1.45165 5.44542,-8.15426 0,-5.79272 1.49332,-0.70846 22.21932,-4.0424 17.14896,-8.76549 0.88905,-0.23614 1.80587,-0.46536 2.69492,-0.68067 -3.11167,0.22921 -5.84828,1.68086 -8.74464,2.68798 -2.9172,1.02797 -6.09834,-0.46535 -8.92524,1.02797 4.75087,-0.96544 -1.79894,0.86128 -2.1879,0.95852 -2.13233,0.51397 -4.27855,0.86126 -6.40395,1.28494 -4.44524,0.88905 -8.06396,3.64651 -12.43281,4.65364 2.21569,-2.47268 2.92415,-6.23725 -1.68086,-4.5286 0.63207,0.4862 1.24328,1.00712 1.84756,1.49332 -1.93786,0.79181 -2.7505,2.50044 -4.13964,0.81959 -0.79181,-0.98628 -1.97953,-1.52111 -3.17419,-1.82671 -2.71578,-0.6807 -5.63298,-0.4237 -8.36263,-0.11805 -6.40395,0.70152 -11.10619,2.40322 -17.54487,1.23634 -1.00712,-0.1806 -10.21713,-1.63225 -8.03617,-3.80626 1.06963,-1.07657 4.59805,-1.42386 3.96599,-3.36171 -1.06964,-3.27837 1.82673,-6.0775 4.83421,-6.5637 -1.23633,0.4862 -2.43099,1.11826 -3.52841,1.84756 1.98646,1.88923 4.70224,0.58344 6.61232,-0.5626 2.10454,-1.26412 4.41746,-0.68068 6.68177,-0.43759 -2.82691,-3.64649 -9.32115,-2.77827 -13.31494,-3.15334 -1.35441,-0.12503 -3.22975,-2.31292 -3.76457,-3.41035 -1.00712,-1.98647 5.16067,-2.68799 6.30671,-2.85469 -1.75033,0.68068 -3.57704,1.19467 -5.39681,1.68087 4.32717,0.96545 8.18203,-1.81977 12.15498,-2.89636 3.52842,-0.97935 7.47359,-0.13892 10.62694,-2.36154 6.91793,-4.83422 16.14182,-1.60446 23.67097,-3.15336 -0.63206,-0.37506 -1.26412,-0.76403 -1.87534,-1.16688 3.43812,-3.90349 9.98098,-3.50758 14.6485,-3.88265 7.47358,-0.63206 14.5582,-4.06324 22.19848,-2.84773 -1.88923,-0.27784 -4.79254,2.19484 -6.26503,3.15335 -2.89636,1.93784 -5.76493,2.79912 -9.04331,3.90348 1.63224,-0.43757 1.47249,0.18754 1.98647,1.26413 0.58344,1.17381 2.97277,0.75013 3.92433,0.68067 2.02814,-0.15976 4.09102,-0.13891 6.11917,-0.13891 1.30579,0 7.12629,-0.86822 2.77828,1.56277 4.46609,-2.38236 9.69621,0.65986 14.30121,-1.16686 2.01426,0 7.50138,-5.69548 11.5924,-2.70884 -0.56261,0.60428 -1.19467,1.16689 -1.84757,1.68087 1.88924,-0.65985 3.99379,-1.17383 4.88284,-3.18114 -3.01444,-2.54213 -7.26521,-1.63224 -10.6061,-0.35424 1.68086,-1.32662 5.56351,-2.21567 5.32735,-4.88281 -0.20836,-2.2157 -2.94497,-1.75034 -1.37524,-3.9174 2.82691,-3.94516 7.70974,0.29867 3.92432,2.38239 -7.75835,4.25077 6.28588,3.57702 6.19558,3.50759 3.52842,3.50063 12.66202,2.82689 14.71796,-2.2921 -1.26413,0.15976 -2.47267,0.37508 -3.71596,0.68068 -1.72948,-0.11805 -3.07694,-1.42386 -4.90367,-1.09742 -2.77828,0.49314 -5.86912,2.9936 -8.8141,1.84756 -4.85506,-1.86839 6.51508,-7.3833 8.85578,-7.14713 -0.93767,-3.68817 -6.56369,0.32645 -6.56369,-2.00732 -1.04881,0.95852 -2.29209,1.40305 -3.71596,1.32664 1.56972,-1.26412 3.45896,-1.93785 5.23706,-2.84775 -2.05593,-0.22921 -3.86181,1.47249 -5.63991,2.17401 -2.43101,0.98629 -7.28605,0.0278 -9.71705,-0.50704 -5.55658,-1.24327 -0.86127,-2.94497 1.01407,-5.63991 2.47267,-3.52842 0.60428,-9.50868 -3.76458,-11.40486 -1.42386,-0.60426 -3.90348,-0.27783 -4.34801,-2.17399 -0.65289,-2.87553 -2.28514,-2.77829 -4.80643,-2.99361 6.02193,-0.58344 11.259,-3.45897 16.46828,-6.30671 5.91775,-3.22281 10.75196,-2.36153 17.36427,-2.84773 14.46097,-1.02796 26.91463,-4.36885 40.53517,-9.34892 -1.16688,0.60426 -2.33377,1.16687 -3.54926,1.68086 6.70261,-1.26412 12.63425,-6.70955 19.32295,-8.74465 8.084819,-2.43101 15.787607,-7.07768 24.24749,-8.07787 -1.423886,0.7432 -1.493337,2.02815 -3.201985,2.3546 5.931636,-1.04881 12.029964,-1.3058 17.850477,-3.01444 5.334295,-1.59057 10.821415,-4.0424 16.475225,-3.88265 -1.50027,1.26412 -3.41035,2.05593 -5.36904,2.0351 5.67466,-0.86822 -1.05574,1.54194 -2.19484,2.00731 1.88924,-0.6529 2.12538,-0.0973 0.68068,1.68085 1.86839,-1.30579 3.75762,-2.5699 5.81355,-3.57704 2.5213,-1.26411 5.49406,-0.25698 8.13344,-0.9585 -1.72948,0 -3.50759,-0.0973 -5.20928,0.32645 0.68067,-1.95868 -0.98631,-2.49351 -2.5213,-1.84756 5.4871,-2.2643 11.42569,-2.87553 17.17674,-4.20216 -1.16688,0.61124 -2.41016,1.06965 -3.71596,1.32663 7.70974,1.91703 18.62839,-0.53482 26.19228,-2.31292 9.2516801,-2.17401 18.1283001,-5.69548 27.31747,-8.10564 -1.35441,0.37508 -2.5977,1.00713 -3.71596,1.84756 0.9585,0.35422 8.5988,1.11827 6.84153,3.10473 -2.5213,2.8269 -8.54322,3.13252 -12.0508099,3.13252 0.58344,1.35441 -0.46537,2.33375 -1.68085,2.68798 3.54925,-0.98628 7.1193399,-1.82671 10.6060899,-3.04222 2.10454,-0.72234 4.18131,-1.56972 6.32754,-2.24346 1.02797,-0.34729 7.12627,-2.81995 2.56991,0.40285 0.81959,-0.5626 3.61869,-1.42386 4.11183,0 0.77096,2.24346 -4.16045,2.71578 -5.43846,2.84775 3.38252,3.22975 8.89742,0.63205 12.78006,0 5.46628,-0.88905 12.1272,-0.97935 17.50319,0.35422 -1.79894,2.0351 -4.74393,2.52129 -7.07769,3.68818 1.06964,0.53481 2.18791,0.81958 3.36173,0.84043 -2.41016,0.28477 -4.83421,-0.0486 -7.22354,0.51398 3.57705,0.43758 7.17492,0 10.77279,0 -1.23632,0.43758 -2.47266,0.88905 -3.71595,1.32663 3.0839,1.56972 6.48035,1.35441 9.76567,0.79181 2.01426,-0.32645 3.99378,-0.76402 6.00804,-0.97934 1.09742,-0.11805 6.0011,-1.19467 2.73661,0.86126 5.32735,0 10.82141,-1.56973 16.1696,-0.90988 1.65308,0.20836 4.18133,0.72236 5.5149,1.79893 2.07677,1.70864 5.00091,0.35423 7.11935,1.59057 5.257903,3.11168 10.821423,1.33358 16.593303,2.06288 1.75031,0.2292 5.82051,-0.84043 6.45256,1.26411 0.27782,0.93073 5.39682,0.13892 2.49351,1.60446 3.18115,-0.0695 6.35532,0.0973 9.53647,-0.0209 1.59056,-0.0764 3.17418,-0.20836 4.74392,-0.46536 2.52128,-1.07658 3.04221,-0.90988 1.5211,0.48619 3.32004,-3.73678 12.35642,-2.19483 16.47522,-1.021 2.77829,0.76403 3.52842,3.61871 6.35534,4.22299 2.15315,0.49313 2.05592,0.74318 3.22279,2.2643 1.37525,1.80589 3.55621,-0.58345 5.25791,0.58343 -17.9477,11.80076 -33.81172,26.38675 -50.93984,39.25715 -17.89215,13.47468 -34.881353,27.85229 -52.238663,42.03544 -17.73934,14.48874 -34.99942,29.46368 -52.59288,44.13303 -8.5501499,7.14713 -16.8780699,14.50958 -25.14346,21.9901 -3.85487,3.45897 -7.57082,7.16799 -11.68267,10.32133 -2.77829,2.17402 -6.94572,4.75087 -7.78615,8.48766 1.98646,0.51397 3.69511,1.19467 5.70243,0.27783 2.05593,-0.93767 3.5562,0.86822 5.49405,1.09741 2.3546,0.27784 5.2579,-1.54194 7.54305,-2.0837 2.6879901,-0.63205 5.4662601,-0.79181 8.1820301,-0.13891 -1.88923,1.4447 -4.62584,2.26429 -5.93163,4.38969 -1.3544101,2.19484 2.0351,2.69492 1.7781,5.09119 -0.33339,3.20198 1.56279,6.10529 2.63937,9.05027 1.02797,2.81995 -1.88923,5.53572 -3.18113,7.70278 5.79966,-2.02813 11.96746,-3.03526 17.59348,-5.58434 2.4796199,-1.11827 4.8133699,-2.54213 6.7998499,-4.39664 0.84042,-0.25004 1.7017,-0.37507 2.5699,-0.37507 1.21551,-0.55565 1.23635,-1.84755 2.28515,-2.43099 1.84755,-1.02797 4.07019,-0.74319 6.05662,-1.09742 2.17402,-0.39591 7.42497,-2.99361 9.41143,-2.05594 6.82067,3.1742 -3.94515,6.37617 -0.79181,9.50868 0.84043,0.86127 2.96582,1.68086 2.17401,3.27144 -0.72237,1.42386 -1.77811,4.16047 -0.37508,5.37597 4.20216,3.59788 1.61141,5.67465 0.86127,9.85596 -0.67372,3.83403 -1.88923,7.5986 -2.2643,11.47431 -0.257,2.47268 0.0278,6.09833 -1.65307,8.15426 -1.07658,1.3058 -3.50757,3.13252 -0.61122,4.11186 -2.91718,1.29191 -2.94499,5.11898 -3.54925,7.75836 3.01443,-0.46537 7.98755,3.04222 10.23101,4.83421 2.34071,1.88923 1.84756,5.20927 5.75105,4.74392 -1.14603,2.94498 -3.86181,3.92432 -6.3067,5.49406 -3.22975,2.07677 -3.86182,5.51489 -5.79966,8.55016 -3.7368,5.81357 -14.46092,8.92525 -20.51064,11.35624 0.84043,-1.2155 1.72948,-2.38932 2.68799,-3.52842 -1.4725,1.47248 -3.15335,2.84773 -5.20929,3.36172 1.14604,-5.61213 10.90476,-8.20288 15.4681,-10.42551 -1.26413,0.40285 -11.9883,5.5913 -11.259,2.5213 0.46536,-2.10456 7.50136,-2.28514 8.89746,-2.1879 -1.16688,-0.14586 -2.33377,-0.20837 -3.52842,-0.16669 2.03508,-2.66022 6.63311,-5.95248 6.89011,-9.50868 0.3056,-4.08409 2.13232,-3.54926 5.04953,-5.79272 -3.85488,1.26411 -7.57079,3.57704 -11.77294,3.52842 1.07657,-0.42369 2.13233,-0.81265 3.20196,-1.18772 -1.09741,0.3959 -9.23084,1.56279 -8.99468,2.84773 0.37507,1.9587 -0.86823,1.52112 -2.13234,2.68801 -1.95868,1.84755 -1.91007,-0.0695 -3.5492599,2.10454 -1.00713,1.35441 -4.20215,1.30579 -3.02137,-0.53482 1.43081,-2.24346 3.8826399,-3.43813 6.0774799,-4.75087 2.36154,-1.37525 4.50776,-2.89636 6.35533,-4.9245 1.77811,-1.98648 5.00091,-0.91684 7.29299,-1.29191 -1.91701,-0.53481 -4.22994,-0.11804 -4.55638,-2.68799 -0.14586,1.61141 -3.1742,4.62585 -4.90368,3.43118 -2.45878,-1.70169 1.81978,-5.30652 3.05613,-6.3067 -0.22922,1.19466 0.18752,2.13233 1.5211,2.19485 -0.77097,-1.42387 -0.65984,-2.75051 0.32645,-4.0424 -0.60428,-0.257 -1.2155,-0.46538 -1.84755,-0.68069 2.0073,-0.7432 2.94496,-2.96582 5.04952,-3.52842 -1.59057,0.58345 -3.13251,1.11826 -4.11187,-0.70151 -1.30579,-2.41017 2.00731,-2.10455 2.59076,-3.9938 -1.70169,1.23634 -3.966,-0.0973 -3.68818,-2.19482 -2.15316,2.38237 -4.78558,-0.23617 -1.66002,-1.93787 2.22263,-1.19467 5.0287,-0.46535 7.38329,-1.26411 -1.75032,0.11805 -3.4798,0.72235 -5.20928,0.15975 2.79912,-0.95851 0.79182,-4.32023 4.52861,-4.5286 -1.9587,0.43758 -2.61854,-1.6114 -0.77098,-2.36155 1.40303,-0.56259 3.25056,1.81977 3.9729,2.68799 0.70153,-1.93784 -2.10451,-2.75744 -1.50023,-4.41747 1.12518,-3.15335 5.16758,-2.03508 7.38326,-1.30579 -3.10473,-1.98647 -6.02888,-0.79181 -8.76545,1.19467 -1.23634,-2.08372 3.55617,-5.46628 5.39679,-6.23726 -1.21551,0.32645 -5.11203,3.50759 -5.63295,2.0351 -0.51398,-1.50027 1.0488,-2.9936 2.05593,-3.86182 2.68795,-2.38237 6.45253,-4.67445 9.95316,-5.56351 -3.36172,-0.29866 -6.86235,2.15318 -9.22389,4.2994 -3.25056,2.97276 -4.32714,-1.2155 -7.59858,-1.61141 1.45166,-1.2155 1.40303,-2.96582 1.88924,-4.59806 0.44453,-1.50027 2.45878,-2.15316 3.34088,-3.29921 -3.76457,3.15335 0.37507,-4.62585 1.0488,-5.53574 1.7989,-2.43794 3.90346,-4.95923 6.32751,-6.75817 -1.37524,0.74319 -2.47267,1.93786 -3.94515,2.54908 -2.43098,1.02103 -0.6807,1.65308 -2.43098,3.66733 -0.70151,-3.50757 -3.0561,1.4725 -4.09102,3.07694 -1.32662,2.10456 -4.09103,4.78561 -4.78558,7.12631 -0.84044,2.79912 -2.99362,5.86913 -6.04972,6.47339 -2.7574599,0.53484 -1.12522,-2.7366 -0.37508,-3.71594 -1.5697199,1.7781 -5.0564699,0.72235 -7.0846099,0.84043 3.33394,-4.06324 5.64686,-8.29318 10.9325399,-9.25168 -1.24329,-0.86127 -2.68799,-0.60429 -3.68816,0.49314 2.70882,-4.48693 -3.8618199,1.65308 -4.7508699,1.88923 -2.81997,0.76404 -1.11827,-3.55621 -1.97954,-4.75087 -0.51397,2.54908 -2.97275,1.4725 -3.53534996,-0.34727 -0.97936,2.40321 -4.38969004,2.68798 -6.40395004,3.709 2.43794,-0.95852 4.58416,-0.27782 7.08462,-0.34728 -0.58342996,1.32662 -1.52109996,5.04953 1.33358,2.36153 -0.98629,1.00713 -2.15317996,1.68086 -3.53536996,2.02815 1.59057,-0.0903 3.92431996,-1.49333 4.37579996,1.00713 -1.70865,0.16669 -1.33358,0.79876 -1.47249,2.0351 -0.23616,1.88923 -3.88265,2.43099 -5.2579,2.66714 2.49351004,-2.97276 -1.5489,-1.87533 -2.69494,-1.16688 4.11881,-0.40285 -0.32645,0.58345 -1.2155,0.53483 -1.59056,-0.0973 -1.81977,2.31291 -3.8340201,2.33376 2.0350801,-2.63937 -9.09194,-5.4385 -3.88266,-7.91812 -2.5213,0.74319 -2.68799,-1.98646 -2.23653,-3.71595 0.68069,-2.68798 -0.46534,-4.52861 -3.45895,-5.02869 0.84043,-0.6529 1.79894,-1.09743 2.84774,-1.35441 -2.73661,-0.29867 -7.57082,0.49314 -7.40414,-3.68818 -1.98646,1.52112 -3.0561,-1.42387 -4.52859,-2.19484 1.72948,-1.86839 4.50776,-2.05594 6.32753,-3.83404 1.63919,-1.54194 2.47963,-3.54925 4.70226,-4.43829 5.4871,-2.24348 -2.00732,5.74409 -2.13234,6.07054 1.93786,-2.431 5.46628,-5.76494 8.76549,-3.52842 -1.61141,-0.97935 -3.17419,-4.2716 -5.39682,-3.63955 -2.89636,0.81265 -5.53573,2.71577 -8.54322,3.5562 -6.96655,1.97952 -13.11349,2.47268 -19.69803,-1.07659 1.70171,-1.24327 4.46608,-1.66001 4.6953,-4.20215 -2.63937,-0.22921 -4.25078,2.56992 -7.26522,2.00731 -3.99378,-0.72235 -7.95283,-1.54195 -11.91882,-2.2643 -7.084633,-1.28495 -14.419313,4.25077 -21.358057,1.42387 4.417457,-0.42368 -3.80626,-5.16065 -5.535738,-4.88284 3.153352,-4.09102 8.765488,-4.57721 12.613408,-7.73056 -4.980071,0.77098 -8.814108,3.60481 -13.342714,5.41765 -1.194654,0.49314 -3.361716,1.6114 -4.723074,1.14605 -1.590577,-0.56262 -2.54213,-2.50046 -4.486932,-1.84756 2.035095,-1.72949 4.625846,-2.688 7.056852,-3.71597 -0.909892,0.15976 -8.411263,1.52111 -3.688176,-0.48619 -1.798942,0.3056 -3.604831,0.68068 -5.396825,1.00712 1.548892,-1.16687 3.438127,-1.47248 5.209278,-2.00731 -2.917197,-0.20837 -5.79271,1.30579 -8.737699,0.6529 2.542131,-1.61141 6.758172,-2.82691 9.765675,-2.36155 -1.937855,-1.26411 -4.882831,1.19467 -6.681772,-0.25698 -2.194853,-1.77116 7.543031,-4.57721 9.529519,-4.27162 -2.333766,-2.21567 -6.584544,-0.20836 -8.925244,0.95851 -3.042218,1.5211 -7.008218,1.24329 -10.418568,2.41017 0.4862,-0.56261 1.00713,-1.11826 1.52111,-1.68087 -1.24328,0.40285 -2.41016,0.88906 -3.52842,1.52112 1.34747,-1.91701 3.61872,-2.84775 5.20928,-4.55639 -2.92414,1.50028 -5.35514,5.16067 -8.76547,5.56351 0.58343,-0.5626 1.11824,-1.11825 1.68085,-1.68087 -1.42387,0.14588 -2.71578,0.9863 -3.52842,2.19485 -3.08389,-2.99359 8.76549,-7.06378 10.25882,-8.2515 -2.94499,0.88905 -5.72326,2.28514 -8.4321,3.75764 -2.45878,1.35439 -5.23706,-1.06965 -7.52914,1.29189 1.85449,-0.257 3.53536,-1.11825 5.37597,-1.35441 -3.86181,3.32004 -8.27234,2.97277 -12.45365,4.88283 4.59806,-0.37507 -2.36154,1.45165 -3.36172,2.19485 1.91006,-0.14586 3.47979,-1.37525 5.38987,-1.52111 -0.50705,0.5626 -1.00713,1.11826 -1.52112,1.68086 1.22245,-0.30561 2.41017,-0.7432 3.53537,-1.35441 -2.17401,4.29938 -7.95284,3.52842 -11.77992,5.04952 3.74374,-0.60426 6.84847,-1.09742 10.42551,-2.00731 1.54194,4.11187 -10.34911,4.74393 -12.10637,6.89015 1.19466,-0.0209 2.31292,-0.30562 3.36172,-0.84043 -0.72236,0.68069 -3.57705,3.15335 0,1.02797 -2.02815,1.63223 -5.02175,2.86857 -7.52221,3.54925 -1.42386,0.37508 -2.61853,0.5626 -3.96599,1.19466 -2.50046,1.11826 -4.53555,-0.42369 -7.01517,-0.53482 0.74319,-0.46535 1.54195,-0.86821 2.36154,-1.19466 -2.61854,0.0695 -4.72308,1.56974 -6.7304,3.04222 1.2155,-1.2919 2.29209,-2.66715 3.36173,-4.0424 -2.21568,0.18753 -9.93236,4.27161 -10.09211,6.73039 -0.37508,-1.40303 0.34728,-2.56991 1.68086,-3.04222 -1.16689,0.44452 -2.61853,0.0278 -3.71596,0.68068 -1.28495,0.79181 -1.37525,2.688 -2.68799,3.52843 0.30561,-3.29227 -2.38238,-1.04881 -3.76458,-0.13893 -2.54212,1.68086 -6.44562,2.94498 -9.34892,3.85487 2.01425,-1.82672 4.55638,-2.89635 6.89709,-4.20216 -3.22976,0.9099 -5.79967,3.20198 -8.92524,4.36887 0.53483,-0.60428 1.02102,-1.2155 1.52111,-1.84757 -2.8269,-0.32644 -4.98007,2.77829 -7.54998,3.4798 -3.92433,1.07659 -4.25078,2.0351 -8.2654,1.04881 1.59056,2.85468 -0.84737,1.5211 -2.24346,1.19465 -1.87534,-0.43758 -4.09103,0.88906 -5.84135,1.37526 -1.38219,0.37508 -2.94497,-0.93767 -2.3407,-2.41016 0.32645,-0.79182 2.24347,-1.09049 2.89636,-1.3058 6.75818,-2.0837 13.50246,-5.00785 20.30926,-6.91792 -3.47981,-0.90988 -7.90423,3.966 -11.05757,1.26411 -2.68799,-2.31292 12.07859,-8.48766 14.329,-9.50867 2.92414,-1.32662 5.79272,-2.77829 8.34179,-4.72308 1.63224,-1.21549 2.45878,-4.39664 4.48693,-5.00091 6.79986,-2.05594 13.8567,-3.88266 20.74684,-5.77189 -0.0694,3.01445 2.7366,2.19485 4.65362,1.68085 3.29921,-0.90988 8.00841,0.4237 11.16176,1.52113 -2.431,-2.8269 -11.84244,-3.7368 -4.36885,-7.50137 4.27856,-2.17401 9.25168,-3.08389 13.95393,-3.76457 -4.46609,-1.97953 -9.09194,1.6114 -13.08572,3.08388 -1.45165,0.514 -8.97385,2.94499 -7.27215,-1.06963 -2.05594,2.07677 -5.48712,2.56991 -8.2654,2.8269 -3.29921,0.27783 -5.75105,2.73661 -8.87662,3.45203 -3.36172,0.75013 -6.3831,0.65984 -9.37671,2.66714 -2.14622,1.42388 -3.94516,2.47267 -6.44562,3.08389 -5.07037,1.23634 -8.20288,2.15318 -12.10636,5.41766 -2.10456,1.75032 -5.16067,2.38238 -7.7028,3.20197 -2.69493,0.84044 -4.18826,-1.98646 -6.43173,-0.98629 3.45896,-0.58343 2.80607,4.02157 0.53483,5.1676 -4.25078,2.12539 -8.61963,1.79895 -12.98849,3.24365 3.64651,-0.22921 0.9863,2.36156 -0.46536,2.75745 -1.84755,0.51399 -4.0424,-0.0695 -5.7441,0.95852 4.88283,-2.9936 -1.07658,-0.39591 -1.96563,0 -1.81978,0.8682 -4.74392,0.90988 -6.27893,1.91701 -0.74318,0.4862 -0.81959,1.4447 -1.63224,1.86839 -1.47249,0.77098 -4.62583,1.07658 -6.28586,1.26412 4.44525,0.0278 -1.30579,1.16689 -2.36155,1.59056 -2.19483,0.86822 -4.85504,2.08372 -6.0497,4.2994 2.52129,-0.20836 6.00108,-1.06963 8.29318,0.40286 4.0424,2.56991 -3.88265,5.46626 -5.33431,5.95247 -3.43118,1.19466 -7.33467,1.21549 -10.36994,3.20197 -1.59057,1.0488 -3.22976,0.79181 -4.70224,2.15318 -2.17402,1.96562 -5.02175,1.30579 -7.23743,3.08389 1.11826,-0.53483 2.31292,-0.86822 3.54925,-1.00714 -1.82672,1.02102 -7.2652,6.27893 -6.91098,2.5213 -1.66002,2.33374 -6.66093,2.38238 -9.34892,2.77829 -2.85469,0.42369 -4.67446,1.65308 -7.293,2.89635 -2.92414,1.40303 -6.07749,1.23634 -8.90439,2.33376 -3.45203,1.35442 -6.58453,3.92433 -10.25882,3.92433 -2.03509,-0.0209 -2.82691,2.19485 -4.46609,1.54194 -2.19484,-0.88211 -7.24437,2.43794 -9.36977,3.02139 3.68818,-0.51398 0.13893,2.0073 -1.09741,2.89635 -1.84756,1.35442 -4.55638,1.3058 -6.54286,2.68799 -1.60446,1.11827 -3.78541,1.2155 -5.69548,1.42388 -2.89637,0.32644 -4.16048,1.88922 -6.6401,2.7366 -1.16688,0.40285 -1.23634,-1.59056 -2.31292,-1.16687 -1.23634,0.48619 -4.50081,1.32663 -4.90368,2.82689 -0.51397,1.84756 -2.59074,1.9587 -4.11185,1.56974 -2.8269,-0.77098 -4.27856,-0.0278 -7.03601,0.81265 4.5564,0.46536 -2.24346,1.82672 -3.52841,1.82672 -3.88265,0.0486 -7.82781,1.93785 -11.12703,3.90349 1.7781,-0.20837 3.36172,-1.60446 5.23706,-0.84043 -1.5211,1.14603 -2.19484,1.6114 0.15976,1.84756 -1.61141,0.98629 -3.55621,0.88905 -5.21624,1.68087 -1.42386,0.68066 -2.35459,2.56991 -4.03544,2.69493 0.55565,-1.91702 2.4032,-2.97277 4.20214,-3.53537 -2.22263,-1.28496 -4.67445,1.91701 -6.19555,3.04221 -1.98649,1.4725 -5.28569,2.00732 -7.70975,2.19486 -3.20197,0.25698 -5.95247,0.0209 -8.94608,1.68085 -2.75744,1.54195 -5.07036,4.862 -8.62657,4.6953 2.01425,-0.95851 3.81321,-2.31292 5.39682,-3.8757 -1.98647,-2.08371 -6.63315,0.20837 -8.59191,1.23633 -1.40304,0.72236 -2.38933,0.81959 -3.97295,0.91684 -1.91701,0.0903 -4.46609,2.31291 -6.09834,3.24363 2.12539,-3.45201 -1.07657,-0.79179 -1.91701,-0.18058 -1.28496,0.95851 -2.63937,0.86127 -3.99378,0.22922 -0.68069,-0.30561 -3.83403,1.14603 -4.34106,1.30579 -2.17402,0.63205 -4.75088,0.25698 -6.75819,1.00712 2.63937,-2.59074 5.0912,-3.41034 8.76548,-3.20198 -3.88264,-4.97312 -10.80057,1.63225 -14.32899,3.81321 -1.5211,0.93767 -3.29921,0.98629 -4.85504,1.75032 -1.40304,0.68067 -2.13234,2.174 -3.53538,2.84774 -1.42386,0.68068 -0.93072,-2.21569 -2.52129,0.0486 -0.90989,1.3058 -2.9936,1.4725 -4.36884,0.96546 2.17399,-0.70847 1.87533,-2.77829 2.52128,-4.53554 -3.5562,-0.61124 -3.60482,6.02886 -7.25132,5.11203"
       id="path3790"
       style="fill:#1d491d;stroke:#ffffff;stroke-width:1;stroke-miterlimit:4;stroke-dasharray:none;stroke-opacity:1;fill-opacity:1" />
    <path
       style="opacity:1;fill:#292d00;fill-opacity:1;stroke:#000000;stroke-width:6;stroke-linecap:round;stroke-linejoin:round;stroke-miterlimit:4;stroke-dasharray:none;stroke-opacity:1"
       d="m -138.77321,537.37137 50.42189,0.70511 8.46137,126.41941 c 0,0 23.301105,5.34189 30.440691,13.91512 5.435875,6.52742 6.225243,24.71132 6.225243,24.71132 l -139.633134,-2.18872 c 0,0 -1.57396,-15.96041 2.98023,-21.64316 7.57451,-9.45152 34.05257,-12.67922 34.05257,-12.67922 z"
       id="rect8382"
       inkscape:connector-curvature="0"
       sodipodi:nodetypes="cccaccacc" />
    <circle
       style="opacity:1;fill:#f9ffba;fill-opacity:1;stroke:#000000;stroke-width:6;stroke-linecap:round;stroke-linejoin:round;stroke-miterlimit:4;stroke-dasharray:none;stroke-opacity:1"
       id="path8377"
       cx="-112.85714"
       cy="488.07651"
       r="64.483734" />
    <path
       style="opacity:1;fill:#292d00;fill-opacity:1;stroke:#000000;stroke-width:6;stroke-linecap:round;stroke-linejoin:round;stroke-miterlimit:4;stroke-dasharray:none;stroke-opacity:1"
       d="m -48.373408,453.7908 c 5.036442,94.83649 2.515788,0.50316 -128.967472,0 0,-35.61338 28.87036,-64.48373 64.48374,-64.48373 35.613381,0 64.48373,28.87035 64.483732,64.48373 z"
       id="circle8379"
       inkscape:connector-curvature="0"
       sodipodi:nodetypes="ccsc" />
    <path
       style="fill:none;fill-rule:evenodd;stroke:#000000;stroke-width:6;stroke-linecap:round;stroke-linejoin:miter;stroke-opacity:1;stroke-miterlimit:4;stroke-dasharray:none"
       d="m -112.81826,608.14031 -2.11534,90.25461"
       id="path8387"
       inkscape:connector-curvature="0" />
  </g>
</svg>
