<?xml version="1.0" encoding="UTF-8" standalone="no"?>
<!-- Created with Inkscape (http://www.inkscape.org/) -->

<svg
   xmlns:dc="http://purl.org/dc/elements/1.1/"
   xmlns:cc="http://creativecommons.org/ns#"
   xmlns:rdf="http://www.w3.org/1999/02/22-rdf-syntax-ns#"
   xmlns:svg="http://www.w3.org/2000/svg"
   xmlns="http://www.w3.org/2000/svg"
   xmlns:sodipodi="http://sodipodi.sourceforge.net/DTD/sodipodi-0.dtd"
   xmlns:inkscape="http://www.inkscape.org/namespaces/inkscape"
   width="210mm"
   height="297mm"
   viewBox="0 0 744.09448819 1052.3622047"
   id="svg5569"
   version="1.1"
   inkscape:version="0.91 r"
   sodipodi:docname="green.svg"
   inkscape:export-filename="/home/timmy/ghp/wotw/flags/green-small.png"
   inkscape:export-xdpi="29.347826"
   inkscape:export-ydpi="29.347826">
  <defs
     id="defs5571" />
  <sodipodi:namedview
     id="base"
     pagecolor="#ffffff"
     bordercolor="#666666"
     borderopacity="1.0"
     inkscape:pageopacity="0.0"
     inkscape:pageshadow="2"
     inkscape:zoom="0.35"
     inkscape:cx="-587.85714"
     inkscape:cy="520"
     inkscape:document-units="px"
     inkscape:current-layer="layer1"
     showgrid="false"
     inkscape:window-width="1301"
     inkscape:window-height="744"
     inkscape:window-x="65"
     inkscape:window-y="24"
     inkscape:window-maximized="1" />
  <metadata
     id="metadata5574">
    <rdf:RDF>
      <cc:Work
         rdf:about="">
        <dc:format>image/svg+xml</dc:format>
        <dc:type
           rdf:resource="http://purl.org/dc/dcmitype/StillImage" />
        <dc:title></dc:title>
      </cc:Work>
    </rdf:RDF>
  </metadata>
  <g
     inkscape:label="Layer 1"
     inkscape:groupmode="layer"
     id="layer1">
    <rect
       style="opacity:1;fill:#b3ff80;fill-opacity:1;stroke:#000000;stroke-width:0;stroke-linecap:round;stroke-linejoin:round;stroke-miterlimit:4;stroke-dasharray:none;stroke-opacity:1"
       id="rect5527"
       width="920"
       height="491.42856"
       x="-585.71429"
       y="358.07651" />
    <path
       inkscape:connector-curvature="0"
       d="m -523.67868,795.48169 c -1.32276,1.03371 -2.79446,1.59435 -4.45011,1.68195 1.62937,-2.65431 -3.00472,-5.45754 -3.30256,-2.41779 -0.32412,3.50404 -5.89554,4.83557 -9.01413,5.19473 4.62533,-5.19473 10.78367,-7.86655 17.18729,-10.19674 -5.51886,1.69946 -0.0351,1.55929 1.20889,0.93733 2.03234,-1.05997 3.41644,-2.11994 5.7729,-2.65431 5.63273,-1.24392 8.21696,-3.85443 13.32409,-6.13206 10.70482,-4.77424 20.95413,-7.95415 32.53497,-9.9865 -5.5101,1.20889 5.29985,0.37669 6.77155,0 -3.14487,1.97103 -4.47641,2.75943 -5.29986,6.57007 2.76819,0.67453 9.4609,-8.87396 10.61723,-1.48045 0.79716,-0.28909 1.49798,-0.70081 2.11994,-1.27021 -7.37599,-5.98315 30.99327,-17.35374 33.20958,-18.0633 5.18597,-1.56806 10.19674,-3.62668 15.35643,-5.24729 2.49662,-0.7709 3.94204,0.11387 6.3861,0.26279 3.03975,0.20149 4.51145,-2.71562 6.34231,-4.52019 3.74055,-3.65296 10.10037,-5.29987 14.7695,-7.39353 5.9481,-2.68934 12.05388,-5.51008 18.58891,-6.42114 -3.469,4.36252 4.27492,1.67318 5.51009,0.41173 -1.4717,0.99865 -3.09231,1.44542 -4.88813,1.27021 2.49663,-1.12129 2.85579,-4.16104 4.67789,-5.92182 2.05862,-2.05862 4.8706,-3.10107 7.11319,-4.89689 3.39015,-2.71563 10.45079,-8.83893 14.93594,-5.09836 -1.05997,-1.50674 -2.79446,-2.00606 -4.45011,-1.05997 0.35039,-5.74662 10.4245,-8.52357 14.73446,-9.93395 8.87397,-2.9171 15.53163,-8.54984 23.90628,-12.34296 -4.65161,1.32277 -8.42721,4.51144 -12.96493,6.06198 -3.71428,1.27022 -7.63004,1.9535 -11.40564,3.15363 -3.88947,1.27022 -13.91102,5.80794 -17.65157,2.44407 1.55929,-0.93734 1.91846,-2.15498 1.44541,-3.83692 -0.32412,-1.2089 3.5566,-2.85579 4.3888,-3.30256 1.70823,-0.93732 7.75268,-3.45147 6.24594,0.99865 1.18262,-0.11388 1.89219,-0.73584 2.11994,-1.91845 -1.79581,-0.41173 -3.71427,-1.94474 -3.39014,-4.0384 -0.97237,2.18126 -3.32883,3.56535 -5.36117,4.54649 -1.59434,0.77088 -10.10915,4.74796 -5.03706,0.35039 -3.06603,2.54043 -8.72505,4.8093 -10.54714,8.21697 -1.27022,2.41778 -4.74797,6.07074 -7.9892,4.77424 -3.00471,-1.23517 4.3888,-9.77626 -0.76213,-9.8113 0.79716,-0.49931 1.5593,-0.99865 2.33018,-1.49796 -3.15363,-1.32278 -6.3423,2.11994 -9.11048,2.97842 0.50808,-0.85848 0.99865,-1.68194 1.48045,-2.54043 -1.70822,0.64826 -3.03975,-0.32411 -3.60039,-1.91845 0.77088,-0.37669 1.53301,-0.73585 2.33017,-1.05997 -4.88812,-3.06603 -17.56396,4.2136 -23.01274,4.77425 -3.83692,0.38544 -6.86791,3.15363 -10.6435,4.09972 -1.41038,0.29783 -2.75944,0.64824 -4.15228,1.09501 -1.83087,0.67452 -3.24124,-1.6469 -5.28235,-1.05997 3.30256,-2.79448 9.58355,-0.89353 12.05389,-4.74797 3.45147,-5.36118 4.80929,-4.36253 10.45955,-6.69271 -2.20754,-0.28908 -4.48517,-0.38544 -6.60511,0.41173 2.03234,-6.71899 10.2931,-6.27222 15.11991,-9.5485 1.89218,-1.27021 3.12735,-6.79783 4.564,-8.87397 2.15498,-3.09231 4.89689,-5.73786 8.13813,-7.65632 -1.5593,-0.0351 -2.97843,0.41173 -4.23989,1.27022 6.13206,-7.36723 15.61923,-9.22437 23.95883,-12.93865 -2.15498,0.37669 -4.83556,2.61927 -4.03839,-0.64824 -1.44542,2.3039 -22.66235,10.58218 -22.25062,11.58083 3.15363,7.91912 -35.18927,10.28434 -39.28024,9.42585 0.50809,-2.62802 3.00472,-2.85578 4.8969,-4.0384 -3.15363,-0.91104 -2.33019,-6.48246 0.20148,-7.63003 -4.86185,2.94338 -7.75268,-1.79582 -1.4717,-3.83692 -1.50674,-0.47305 -2.97842,-0.47305 -4.45012,0 2.74191,-3.85444 8.45348,-3.65296 12.36925,-5.63273 1.27897,-0.64826 2.89082,-1.32278 3.86319,-2.38275 1.88342,-2.05862 3.74056,-0.67452 6.0357,-1.53301 -3.56535,3.56535 0.91105,1.32277 2.68059,3.46899 1.18261,1.41913 -7.10443,4.01212 -8.21696,4.36252 5.36117,-0.73584 9.93393,-4.09972 15.2951,-4.86184 -0.49932,1.73449 -1.67317,3.24123 -3.17991,4.23988 2.62803,0.53436 7.7264,-0.67453 9.64486,-2.65431 1.90971,-1.9535 -0.56064,-3.39016 -2.41778,-3.10107 2.11994,-0.76213 4.42385,-0.67452 6.57007,-1.47169 -2.8558,-0.0613 -2.8558,-0.64825 0,-1.70822 -5.06334,0.0613 -9.42586,3.47775 -14.58555,2.59299 -3.53032,-0.61322 -8.54985,-3.14487 -11.93124,-0.88477 0.73585,-3.24123 7.30591,-4.27493 9.96022,-4.45013 -1.6469,-0.68329 -3.14487,-0.38544 -4.45013,0.85849 0.18397,-1.70822 1.2965,-3.01347 2.97843,-3.39891 -1.34904,0.62196 -2.76818,1.05997 -4.23988,1.27897 0.79718,-2.74191 4.56401,-3.39892 6.57007,-4.89689 -5.03705,0.64825 -8.19068,7.56871 -13.58689,6.57006 -0.32413,-2.5667 3.17991,-3.11859 1.29649,-5.33489 -1.56806,-1.8221 5.44878,-3.65295 6.33354,-4.20484 -1.23517,-1.18261 -2.65431,-1.47169 -4.23988,-0.85849 1.18261,-4.80929 6.42114,-2.97842 9.99525,-3.59164 -4.83556,0.22777 0.73586,-3.56534 3.62668,-3.36387 4.3012,0.28908 9.83758,-5.95686 13.9373,-7.75267 5.63274,-2.44407 11.31803,-4.86185 17.09093,-7.01684 1.70821,-0.6132 3.95079,-1.62061 5.83422,-1.20889 2.85579,0.58693 0.79717,2.91712 -0.82346,3.41644 1.62063,-0.35041 3.17992,-0.91105 4.65161,-1.69946 -5.89553,-0.99864 8.9353,-6.07074 10.84499,-6.78031 -3.17991,0.89353 -6.15834,2.30391 -9.33825,3.17992 3.53031,-5.06333 13.8497,-11.25671 20.15696,-9.12801 -3.50404,-3.88949 8.52356,-5.33489 10.40698,-5.48382 1.83087,-0.12264 3.95081,0.41172 5.48382,1.38409 2.94338,1.88343 -6.57007,4.03841 -7.60376,4.73921 7.30591,-3.11859 15.5842,-1.20889 22.86383,-4.51144 7.0431,-3.2062 14.35779,-6.15834 21.90022,-8.01548 -0.79718,0.67452 -1.59434,1.38409 -2.33894,2.11994 11.11654,0.38544 21.63741,-1.02493 31.42242,-6.57006 3.85443,-2.18127 6.65767,-5.24729 9.96022,-8.16441 2.03234,-1.83086 6.8679,-10.28434 0,-7.30591 1.88342,-0.89353 28.02352,-5.09837 21.62866,-11.05523 1.12129,-0.29784 2.27761,-0.58693 3.3989,-0.85849 -3.92451,0.28908 -7.37599,2.11994 -11.02894,3.39015 -3.67924,1.2965 -7.69136,-0.58692 -11.25672,1.2965 5.99191,-1.21765 -2.26886,1.08625 -2.75942,1.20889 -2.68935,0.64824 -5.39621,1.08625 -8.07681,1.62061 -5.60644,1.12129 -10.17045,4.59905 -15.68055,5.86927 2.79448,-3.11859 3.68801,-7.86656 -2.11994,-5.71158 0.79718,0.61321 1.56806,1.27021 2.33019,1.88341 -2.44407,0.99865 -3.469,3.15363 -5.22101,1.03369 -0.99865,-1.24392 -2.49663,-1.91845 -4.00336,-2.30389 -3.4252,-0.8585 -7.10444,-0.53437 -10.54714,-0.14892 -8.07681,0.88476 -14.00738,3.03098 -22.12799,1.55929 -1.27021,-0.22777 -12.88609,-2.05862 -10.13541,-4.80053 1.34904,-1.35781 5.79917,-1.79582 5.002,-4.23988 -1.34905,-4.13476 2.30391,-7.66508 6.09702,-8.27829 -1.55929,0.61321 -3.06603,1.41038 -4.45012,2.33019 2.50538,2.38274 5.93058,0.73585 8.33961,-0.70957 2.6543,-1.59434 5.5714,-0.85848 8.4272,-0.55189 -3.56536,-4.59903 -11.75604,-3.50402 -16.7931,-3.97707 -1.70821,-0.15769 -4.07343,-2.91711 -4.74796,-4.30121 -1.27021,-2.50538 6.50875,-3.39015 7.95416,-3.6004 -2.20755,0.8585 -4.51144,1.50674 -6.80658,2.11995 5.45753,1.21765 10.31937,-2.29514 15.33014,-3.65295 4.45013,-1.23518 9.42586,-0.17521 13.40294,-2.97843 8.72505,-6.09703 20.35844,-2.02358 29.85437,-3.97709 -0.79716,-0.47304 -1.59433,-0.96361 -2.36522,-1.47169 4.33624,-4.92317 12.58824,-4.42384 18.47502,-4.89689 9.42585,-0.79717 18.36114,-5.12465 27.99724,-3.59163 -2.38275,-0.35041 -6.04447,2.76818 -7.9016,3.97708 -3.65296,2.44406 -7.27087,3.53031 -11.40563,4.92316 2.05862,-0.55188 1.85713,0.23653 2.50538,1.59434 0.73585,1.48045 3.74932,0.94609 4.94945,0.85849 2.55794,-0.20149 5.15969,-0.17521 7.71764,-0.17521 1.64689,0 8.98784,-1.09501 3.50403,1.97102 5.63274,-3.0047 12.22908,0.83222 18.03701,-1.47168 2.54043,0 9.46091,-7.18328 14.6206,-3.41644 -0.70957,0.76212 -1.50674,1.4717 -2.33019,2.11994 2.38275,-0.83221 5.03705,-1.48046 6.15834,-4.01212 -3.80187,-3.20619 -9.16305,-2.05862 -13.37665,-0.44677 2.11994,-1.67317 7.01683,-2.79446 6.71898,-6.15833 -0.26279,-2.79448 -3.71427,-2.20755 -1.73449,-4.9407 3.56536,-4.97573 9.7237,0.37669 4.94944,3.00472 -9.78501,5.36117 7.92789,4.51143 7.81401,4.42384 4.45012,4.41508 15.96963,3.56535 18.56262,-2.89083 -1.59434,0.20148 -3.11859,0.47305 -4.68665,0.85848 -2.18126,-0.14891 -3.88071,-1.79581 -6.18462,-1.38408 -3.50403,0.62196 -7.40227,3.77559 -11.11655,2.33018 -6.1233,-2.35646 8.21697,-9.31198 11.16912,-9.01413 -1.18262,-4.65161 -8.27828,0.41173 -8.27828,-2.53167 -1.32278,1.20889 -2.89084,1.76955 -4.68665,1.67318 1.97977,-1.59434 4.36252,-2.44406 6.6051,-3.59164 -2.59299,-0.28908 -4.87061,1.85714 -7.11318,2.74191 -3.06605,1.24393 -9.18934,0.0351 -12.25537,-0.63949 -7.00808,-1.56805 -1.08625,-3.71427 1.27897,-7.11318 3.11859,-4.45013 0.76213,-11.99256 -4.74797,-14.38407 -1.79581,-0.76212 -4.92316,-0.35041 -5.48382,-2.7419 -0.82344,-3.62668 -2.88206,-3.50404 -6.06197,-3.7756 7.59499,-0.73585 14.2001,-4.36253 20.77017,-7.95416 7.4636,-4.06469 13.56061,-2.97843 21.90021,-3.59164 18.2385,-1.29649 33.94535,-5.51009 51.12388,-11.79107 -1.471698,0.76212 -2.9434,1.4717 -4.47641,2.11994 8.453486,-1.59434 15.9346,-8.46224 24.370562,-11.02895 10.196747,-3.06603 19.911684,-8.92653 30.581469,-10.18798 -1.795826,0.93733 -1.883428,2.55794 -4.038409,2.96967 7.481114,-1.32278 15.172472,-1.64691 22.513423,-3.80189 6.727749,-2.00605 13.648223,-5.09836 20.7789303,-4.89688 -1.892176,1.59434 -4.3012033,2.59299 -6.7715513,2.56671 7.1569993,-1.09501 -1.331524,1.94474 -2.768182,2.53166 2.382746,-0.82345 2.680581,-0.12264 0.858486,2.11994 2.356465,-1.64689 4.739212,-3.24123 7.3321913,-4.51145 3.179911,-1.59433 6.929233,-0.32411 10.258068,-1.20888 -2.181262,0 -4.423846,-0.12264 -6.570067,0.41172 0.858486,-2.47034 -1.243934,-3.14487 -3.179911,-2.33019 6.920462,-2.85578 14.410336,-3.62667 21.6636957,-5.29985 -1.471698,0.7709 -3.0397477,1.34906 -4.6866497,1.67318 9.7236967,2.41779 23.4945507,-0.67453 33.0342887,-2.91711 11.66843,-2.74191 22.86383,-7.18327 34.45342,-10.22302 -1.70821,0.47305 -3.27628,1.27021 -4.68664,2.33018 1.20888,0.44676 10.84499,1.41038 8.62868,3.91576 -3.17991,3.56536 -10.7749,3.95081 -15.19875,3.95081 0.73585,1.70821 -0.58693,2.94338 -2.11994,3.39014 4.47641,-1.24392 8.97908,-2.30389 13.37665,-3.83691 2.65431,-0.91105 5.27357,-1.97978 7.98044,-2.82951 1.2965,-0.43801 8.98781,-3.5566 3.24123,0.50808 1.03369,-0.70956 4.56397,-1.79581 5.18593,0 0.97237,2.82951 -5.24725,3.4252 -6.85911,3.59164 4.26612,4.07344 11.22163,0.79717 16.118516,0 6.89419,-1.12129 15.29511,-1.23517 22.07542,0.44676 -2.26887,2.56671 -5.98315,3.17991 -8.92653,4.65161 1.34905,0.67452 2.75943,1.03369 4.23988,1.05997 -3.03975,0.35917 -6.09702,-0.0613 -9.11049,0.64824 4.51145,0.55189 9.04917,0 13.58689,0 -1.55929,0.55189 -3.11859,1.12129 -4.68665,1.67318 3.88949,1.97978 8.17317,1.70822 12.31669,0.99865 2.54043,-0.41172 5.03705,-0.9636 7.57748,-1.23517 1.38409,-0.14892 7.56871,-1.50674 3.45147,1.08625 6.71898,0 13.64821,-1.97978 20.39348,-1.14757 2.0849,0.2628 5.27358,0.91105 6.95551,2.26886 2.61927,2.15498 6.30726,0.44677 8.97909,2.00606 6.63139,3.92453 13.64821,1.68194 20.92784,2.60175 2.20754,0.28908 7.34096,-1.05997 8.13813,1.59433 0.35039,1.17385 6.80658,0.1752 3.14487,2.02358 4.01212,-0.0876 8.01547,0.12264 12.0276,-0.0263 2.00606,-0.0963 4.00336,-0.26279 5.98314,-0.58692 3.17991,-1.35782 3.83692,-1.14757 1.91845,0.6132 4.18732,-4.71292 15.5842,-2.76818 20.77893,-1.28772 3.50404,0.96361 4.45013,4.564 8.01549,5.32613 2.71562,0.62196 2.59298,0.93733 4.06467,2.85579 1.7345,2.27762 4.48517,-0.73585 6.63139,0.73584 -22.63606,14.88338 -42.64411,33.27957 -64.24648,49.51201 -22.56599,16.99457 -43.99316,35.12795 -65.88461,53.01605 -22.37326,18.27354 -44.142066,37.16028 -66.331336,55.66159 -10.78366,9.01413 -21.28701,18.29982 -31.71151,27.73443 -4.86185,4.36253 -9.548489,9.04042 -14.734459,13.01749 -3.504037,2.74192 -8.760088,5.9919 -9.820059,10.70483 2.505378,0.64824 4.660359,1.50674 7.192028,0.35041 2.592991,-1.18262 4.485167,1.09501 6.929234,1.38408 2.969666,0.35041 6.631376,-1.94474 9.513456,-2.62802 3.39015,-0.79716 6.89418,-0.99865 10.31937,-0.1752 -2.38274,1.82209 -5.83421,2.85578 -7.48111,5.53638 -1.70821,2.76818 2.56671,3.39891 2.24258,6.42114 -0.42048,4.0384 1.97102,7.70012 3.32884,11.41439 1.29649,3.5566 -2.38275,6.98179 -4.01212,9.71493 7.31467,-2.55793 15.09363,-3.82815 22.1893,-7.0431 3.12735,-1.41038 6.07073,-3.20619 8.57612,-5.54514 1.05997,-0.31536 2.14622,-0.47305 3.24123,-0.47305 1.53302,-0.7008 1.55931,-2.33017 2.88207,-3.06603 2.33018,-1.29648 5.13342,-0.93732 7.63875,-1.38408 2.74192,-0.49933 9.36454,-3.7756 11.869916,-2.59299 8.6024,4.00336 -4.975716,8.04176 -0.99865,11.99256 1.05997,1.08625 3.74056,2.11994 2.74191,4.126 -0.91106,1.79581 -2.24258,5.24729 -0.47305,6.78031 5.29985,4.53772 2.03234,7.15699 1.08625,12.43056 -0.84972,4.83557 -2.38274,9.58353 -2.85578,14.47167 -0.32413,3.11859 0.0351,7.69134 -2.084896,10.28433 -1.35782,1.64691 -4.42384,3.9508 -0.77089,5.18597 -3.67923,1.62938 -3.71428,6.45619 -4.4764,9.78502 3.80187,-0.58692 10.074086,3.83693 12.903596,6.09702 2.95215,2.38274 2.33018,6.57006 7.25335,5.98314 -1.44541,3.71427 -4.87061,4.94945 -7.95416,6.92923 -4.07343,2.61927 -4.8706,6.95551 -7.314666,10.78366 -4.71293,7.33221 -18.23845,11.25672 -25.86849,14.32275 1.05997,-1.53302 2.18126,-3.01347 3.39016,-4.45013 -1.85714,1.85714 -3.97708,3.59164 -6.57007,4.23988 1.44542,-7.07814 13.75333,-10.34565 19.50872,-13.14889 -1.59435,0.50809 -15.11992,7.05188 -14.20011,3.17992 0.58692,-2.65431 9.46089,-2.88207 11.22168,-2.75943 -1.4717,-0.18396 -2.9434,-0.2628 -4.45013,-0.21024 2.5667,-3.35512 8.36584,-7.5074 8.68997,-11.99256 0.38543,-5.15093 2.68934,-4.4764 6.36858,-7.30591 -4.86186,1.59434 -9.54845,4.51144 -14.8483,4.45012 1.3578,-0.53436 2.68934,-1.02493 4.03839,-1.49797 -1.38409,0.49932 -11.64215,1.97102 -11.34431,3.59163 0.47305,2.47035 -1.09502,1.91846 -2.68935,3.39016 -2.47034,2.33018 -2.40902,-0.0876 -4.4764,2.65431 -1.27022,1.70821 -5.29985,1.64689 -3.81063,-0.67454 1.80457,-2.8295 4.89688,-4.33624 7.66506,-5.99189 2.97844,-1.7345 5.6853,-3.65296 8.01549,-6.2109 2.24258,-2.50539 6.30726,-1.15633 9.19808,-1.62938 -2.41777,-0.67452 -5.33489,-0.14892 -5.74661,-3.39016 -0.18396,2.03234 -4.00336,5.83423 -6.18463,4.32749 -3.10107,-2.14622 2.29515,-6.69271 3.85445,-7.95416 -0.28909,1.50673 0.23652,2.68935 1.91845,2.76819 -0.97236,-1.79582 -0.8322,-3.469 0.41173,-5.09837 -0.76213,-0.32413 -1.53302,-0.58693 -2.33018,-0.85849 2.53167,-0.93734 3.71427,-3.74056 6.36858,-4.45012 -2.00606,0.73584 -3.9508,1.41036 -5.18597,-0.88477 -1.6469,-3.03976 2.53166,-2.65431 3.26751,-5.03706 -2.14622,1.5593 -5.00201,-0.12264 -4.65161,-2.76818 -2.71562,3.00471 -6.03569,-0.29785 -2.09366,-2.44407 2.80323,-1.50674 6.34231,-0.58692 9.31197,-1.59433 -2.20754,0.14891 -4.3888,0.91105 -6.57006,0.20148 3.53031,-1.2089 0.99866,-5.44878 5.71158,-5.71157 -2.47035,0.55188 -3.30256,-2.03234 -0.97237,-2.97844 1.76953,-0.70956 4.09967,2.29514 5.01072,3.39015 0.88478,-2.44405 -2.65426,-3.47774 -1.89213,-5.57141 1.41909,-3.97708 6.51746,-2.5667 9.31193,-1.64689 -3.91576,-2.50539 -7.60375,-0.99865 -11.05519,1.50673 -1.5593,-2.62803 4.48513,-6.89419 6.80655,-7.86656 -1.53302,0.41173 -6.44739,4.42385 -7.10439,2.56671 -0.64824,-1.89218 1.32277,-3.7756 2.59299,-4.87061 3.39011,-3.00471 8.13807,-5.89553 12.553146,-7.01683 -4.239876,-0.37668 -8.654956,2.71563 -11.633386,5.4225 -4.09967,3.74931 -5.45749,-1.53302 -9.58349,-2.03235 1.83086,-1.53301 1.76954,-3.74055 2.38274,-5.79917 0.56065,-1.89218 3.10108,-2.71563 4.21361,-4.16104 -4.74797,3.97707 0.47304,-5.83422 1.32276,-6.9818 2.26882,-3.07479 4.92313,-6.2547 7.9804,-8.52356 -1.73449,0.93733 -3.11859,2.44407 -4.97572,3.21495 -3.066,1.28774 -0.8585,2.0849 -3.066,4.62533 -0.88476,-4.42384 -3.85443,1.85714 -5.15969,3.88071 -1.67317,2.65432 -5.15969,6.03571 -6.03569,8.98786 -1.05997,3.53032 -3.77561,7.40227 -7.63004,8.16439 -3.47776,0.67454 -1.41914,-3.45147 -0.47305,-4.68663 -1.97978,2.24258 -6.37734,0.91104 -8.93528,1.05997 4.20484,-5.12466 7.12195,-10.45956 13.78838,-11.66844 -1.56807,-1.08625 -3.39016,-0.76213 -4.65161,0.62196 3.41643,-5.65902 -4.87061,2.0849 -5.9919,2.38275 -3.5566,0.96361 -1.41038,-4.48517 -2.49663,-5.99191 -0.64824,3.21495 -3.74931,1.85715 -4.45888,-0.43799 -1.23518,3.03098 -5.53638,3.39015 -8.0768,4.67787 3.07479,-1.20889 5.78165,-0.35039 8.93528,-0.43799 -0.73584,1.67317 -1.91845,6.36858 1.68195,2.97842 -1.24394,1.27022 -2.71564,2.11994 -4.45889,2.55795 2.00606,-0.11388 4.94944,-1.88342 5.51886,1.27021 -2.15499,0.21024 -1.68195,1.00741 -1.85714,2.56671 -0.29785,2.38274 -4.89689,3.06603 -6.63139,3.36387 3.14487,-3.74932 -1.95349,-2.36522 -3.39891,-1.4717 5.19473,-0.50808 -0.41173,0.73586 -1.53302,0.67454 -2.00606,-0.12265 -2.29514,2.9171 -4.83556,2.94338 2.56669,-3.32883 -11.466955,-6.85915 -4.8969,-9.9865 -3.179911,0.93733 -3.390144,-2.50538 -2.820743,-4.68664 0.858483,-3.39015 -0.586921,-5.71158 -4.362524,-6.34231 1.05997,-0.82345 2.268863,-1.38409 3.591639,-1.70821 -3.451477,-0.37669 -9.548493,0.62196 -9.33826,-4.65161 -2.505378,1.91846 -3.854434,-1.79582 -5.711569,-2.76819 2.181262,-2.35646 5.685288,-2.59299 7.980432,-4.83557 2.06738,-1.94474 3.127351,-4.4764 5.930585,-5.59769 6.92046,-2.82951 -2.531669,7.24459 -2.689352,7.65632 2.444067,-3.06604 6.894192,-7.27088 11.055232,-4.45013 -2.03234,-1.23517 -4.00336,-5.38745 -6.806591,-4.59028 -3.652949,1.02493 -6.981783,3.42519 -10.774907,4.48516 -8.786358,2.49662 -16.5390367,3.11859 -24.8435957,-1.35781 2.14622099,-1.56805 5.632727,-2.09366 5.921813,-5.29986 -3.32883401,-0.28908 -5.361173,3.24124 -9.163045,2.53167 -5.0370583,-0.91106 -10.0303033,-1.94475 -15.0323093,-2.85579 -8.935293,-1.62061 -18.185951,5.36117 -26.937268,1.79582 5.571406,-0.53437 -4.800533,-6.50874 -6.981795,-6.15835 3.977076,-5.15969 11.055233,-5.77289 15.908315,-9.74997 -6.28098,0.97238 -11.116543,4.54648 -16.828123,6.83287 -1.506739,0.62196 -4.239881,2.03234 -5.956854,1.44542 -2.006069,-0.70958 -3.206191,-3.15363 -5.659019,-2.33019 2.566699,-2.18126 5.834212,-3.39015 8.900252,-4.68665 -1.147572,0.20148 -10.608475,1.91846 -4.65161,-0.6132 -2.268864,0.38544 -4.546488,0.85849 -6.806591,1.27021 1.953497,-1.47169 4.336243,-1.85714 6.570066,-2.53167 -3.679241,-0.2628 -7.30591,1.6469 -11.020192,0.82345 3.206192,-2.03234 8.523564,-3.56535 12.316687,-2.97843 -2.444067,-1.59434 -6.158338,1.50674 -8.427201,-0.32412 -2.768194,-2.23383 9.513452,-5.77289 12.018841,-5.38746 -2.943398,-2.79446 -8.304571,-0.26279 -11.256717,1.2089 -3.836913,1.91845 -8.838931,1.56806 -13.140133,3.03974 0.613212,-0.70956 1.270214,-1.41036 1.918456,-2.11994 -1.568049,0.50809 -3.039748,1.1213 -4.450114,1.91847 1.699452,-2.41778 4.563997,-3.59164 6.570055,-5.74662 -3.68799,1.89218 -6.754019,6.50875 -11.055222,7.01683 0.735844,-0.70957 1.410367,-1.41037 2.119941,-2.11995 -1.795825,0.18397 -3.425196,1.24394 -4.450126,2.7682 -3.889474,-3.7756 11.055233,-8.90901 12.938649,-10.40699 -3.714282,1.12129 -7.218308,2.88207 -10.634744,4.73921 -3.10107,1.70821 -6.605107,-1.34906 -9.495932,1.62938 2.338934,-0.32413 4.458874,-1.41038 6.780299,-1.70822 -4.870603,4.18732 -10.433259,3.74932 -15.706829,6.15834 5.79918,-0.47304 -2.97843,1.83086 -4.23988,2.76819 2.40902,-0.18396 4.3888,-1.7345 6.79783,-1.91846 -0.6395,0.70957 -1.27022,1.41037 -1.91847,2.11994 1.54178,-0.38544 3.03976,-0.93734 4.45889,-1.70822 -2.74191,5.42249 -10.0303,4.45013 -14.85711,6.36858 4.72169,-0.76212 8.63745,-1.38408 13.14889,-2.53166 1.94474,5.18597 -13.05253,5.98314 -15.26883,8.69001 1.50674,-0.0263 2.91711,-0.38545 4.23988,-1.05997 -0.91105,0.85849 -4.51145,3.97708 0,1.29649 -2.55795,2.05861 -6.33354,3.61792 -9.48718,4.4764 -1.79581,0.47305 -3.30255,0.70956 -5.002,1.50674 -3.15364,1.41037 -5.72034,-0.53437 -8.84769,-0.67453 0.93733,-0.58692 1.94474,-1.09501 2.97843,-1.50673 -3.30256,0.0876 -5.95686,1.97978 -8.48853,3.83691 1.53301,-1.62937 2.89083,-3.36387 4.23988,-5.09837 -2.79446,0.23653 -12.52692,5.38746 -12.7284,8.48853 -0.47305,-1.76954 0.438,-3.24123 2.11994,-3.83692 -1.4717,0.56064 -3.30255,0.0351 -4.68665,0.85849 -1.62061,0.99865 -1.73449,3.39016 -3.39016,4.45013 0.38545,-4.15228 -3.0047,-1.32278 -4.74796,-0.17521 -3.20619,2.11994 -8.12937,3.71427 -11.79108,4.86185 2.54042,-2.30391 5.74661,-3.65295 8.69877,-5.29986 -4.07345,1.14758 -7.31468,4.0384 -11.25672,5.5101 0.67454,-0.76212 1.28774,-1.53301 1.91846,-2.33018 -3.56535,-0.41172 -6.28098,3.50403 -9.52221,4.3888 -4.94945,1.35782 -5.36118,2.56671 -10.4245,1.32278 2.00605,3.60039 -1.06873,1.91845 -2.82951,1.50673 -2.36522,-0.55189 -5.1597,1.1213 -7.36724,1.7345 -1.74325,0.47305 -3.71427,-1.18262 -2.95215,-3.03975 0.41173,-0.99865 2.82952,-1.37534 3.65296,-1.6469 8.52357,-2.62802 17.02961,-6.31602 25.6145,-8.72505 -4.38881,-1.14756 -9.96899,5.00202 -13.94606,1.59434 -3.39016,-2.91711 15.23379,-10.70483 18.07206,-11.99256 3.688,-1.67317 7.30591,-3.50404 10.52086,-5.95685 2.05862,-1.53302 3.10107,-5.54514 5.65902,-6.30727 8.57613,-2.59299 17.47638,-4.89689 26.16638,-7.27964 -0.0876,3.80189 3.45147,2.7682 5.86926,2.11994 4.16104,-1.14757 10.10039,0.53438 14.07746,1.91847 -3.06603,-3.56536 -14.93595,-4.71293 -5.51009,-9.4609 5.39621,-2.7419 11.66843,-3.88947 17.59901,-4.74796 -5.63273,-2.49663 -11.46696,2.03234 -16.504,3.88947 -1.83086,0.64826 -11.31803,3.71429 -9.17181,-1.34905 -2.59299,2.61927 -6.92048,3.24123 -10.42451,3.56536 -4.16104,0.3504 -7.25335,3.45147 -11.19539,4.35376 -4.23988,0.94609 -8.05052,0.83221 -11.82612,3.36387 -2.70687,1.79582 -4.97573,3.11859 -8.12937,3.88948 -6.39486,1.5593 -10.34566,2.71563 -15.26882,6.83287 -2.65431,2.20754 -6.50875,3.00471 -9.71494,4.0384 -3.39891,1.05997 -5.28233,-2.50538 -8.11184,-1.24394 4.36252,-0.73584 3.53907,5.0721 0.67453,6.51751 -5.36117,2.68059 -10.87127,2.26886 -16.38137,4.09096 4.59905,-0.28908 1.24394,2.97844 -0.58693,3.47775 -2.33017,0.64826 -5.09837,-0.0876 -7.24459,1.2089 6.15834,-3.77559 -1.35781,-0.49932 -2.4791,0 -2.29514,1.09501 -5.98314,1.14757 -7.91912,2.41778 -0.93732,0.61321 -1.03369,1.8221 -2.05862,2.35647 -1.85714,0.97237 -5.83421,1.35781 -7.92787,1.59433 5.60645,0.0351 -1.6469,1.4717 -2.97844,2.00606 -2.76818,1.09501 -6.12329,2.62803 -7.63003,5.42249 3.17991,-0.26279 7.56871,-1.34904 10.45955,0.50809 5.09837,3.24124 -4.89689,6.89419 -6.72775,7.5074 -4.32748,1.50673 -9.25065,1.53301 -13.07881,4.0384 -2.00606,1.32277 -4.07344,0.99864 -5.93057,2.71563 -2.74192,2.47909 -6.33355,1.64689 -9.12802,3.88947 1.41038,-0.67452 2.91711,-1.09501 4.47641,-1.27021 -2.30391,1.28773 -9.16305,7.91912 -8.71629,3.17991 -2.09366,2.94338 -8.40092,3.00471 -11.79108,3.50404 -3.6004,0.53436 -5.89553,2.0849 -9.19809,3.65295 -3.688,1.76954 -7.66507,1.5593 -11.23043,2.94339 -4.35377,1.70822 -8.30456,4.94945 -12.93865,4.94945 -2.5667,-0.0263 -3.56536,2.76819 -5.63274,1.94474 -2.76818,-1.11254 -9.13676,3.07478 -11.81736,3.81064 4.65161,-0.64825 0.17521,2.53166 -1.38408,3.65295 -2.33019,1.70822 -5.74662,1.6469 -8.25201,3.39015 -2.02358,1.41038 -4.77424,1.53302 -7.18327,1.79583 -3.65296,0.41172 -5.24729,2.38273 -8.37464,3.45146 -1.4717,0.50809 -1.5593,-2.00605 -2.91711,-1.47168 -1.5593,0.6132 -5.67653,1.67317 -6.18463,3.56534 -0.64824,2.33019 -3.26751,2.47035 -5.18596,1.97979 -3.56536,-0.97238 -5.39622,-0.0351 -8.87398,1.02493 5.74663,0.58692 -2.8295,2.3039 -4.45011,2.3039 -4.89689,0.0613 -9.87262,2.44406 -14.03366,4.92317 2.24258,-0.2628 4.23988,-2.02358 6.6051,-1.05997 -1.91846,1.44541 -2.76819,2.03234 0.20148,2.33019 -2.03234,1.24392 -4.48517,1.12129 -6.57883,2.11994 -1.79581,0.85848 -2.96966,3.24123 -5.0896,3.39891 0.70081,-2.41778 3.03098,-3.74932 5.29985,-4.45888 -2.80323,-1.62062 -5.89553,2.41777 -7.81399,3.83691 -2.50539,1.85714 -6.66643,2.53167 -9.7237,2.76819 -4.03841,0.32412 -7.50739,0.0263 -11.283,2.11994 -3.47775,1.94474 -6.39486,6.13206 -10.88003,5.92182 2.54043,-1.2089 4.8093,-2.91711 6.8066,-4.88813 -2.50539,-2.62803 -8.36588,0.2628 -10.83632,1.55929 -1.76954,0.91105 -3.01347,1.03369 -5.01077,1.15634 -2.41778,0.11388 -5.63274,2.9171 -7.69137,4.09095 2.6806,-4.35376 -1.3578,-0.99864 -2.41777,-0.22776 -1.62062,1.20889 -3.32884,1.08625 -5.03706,0.28909 -0.85849,-0.38544 -4.83556,1.44541 -5.47504,1.6469 -2.74192,0.79716 -5.99191,0.32411 -8.52358,1.2702 3.32883,-3.2675 6.42114,-4.3012 11.05523,-4.0384 -4.89688,-6.27222 -13.62193,2.05862 -18.07205,4.8093 -1.91846,1.18261 -4.16104,1.24393 -6.1233,2.20754 -1.76955,0.85849 -2.68935,2.7419 -4.45889,3.59163 -1.79581,0.8585 -1.17385,-2.79446 -3.17991,0.0613 -1.14757,1.6469 -3.7756,1.85715 -5.51009,1.21766 2.7419,-0.89353 2.36522,-3.50404 3.17991,-5.72034 -4.48517,-0.77089 -4.54649,7.60375 -9.14554,6.44742"
       id="path3790"
       style="fill:#008000;stroke:none;stroke-width:2.62802625;stroke-miterlimit:3.97000003;stroke-dasharray:none" />
  </g>
</svg>
