<?xml version="1.0" encoding="UTF-8" standalone="no"?>
<!-- Created with Inkscape (http://www.inkscape.org/) -->

<svg
   xmlns:dc="http://purl.org/dc/elements/1.1/"
   xmlns:cc="http://creativecommons.org/ns#"
   xmlns:rdf="http://www.w3.org/1999/02/22-rdf-syntax-ns#"
   xmlns:svg="http://www.w3.org/2000/svg"
   xmlns="http://www.w3.org/2000/svg"
   xmlns:sodipodi="http://sodipodi.sourceforge.net/DTD/sodipodi-0.dtd"
   xmlns:inkscape="http://www.inkscape.org/namespaces/inkscape"
   width="210mm"
   height="297mm"
   viewBox="0 0 744.09448819 1052.3622047"
   id="svg8988"
   version="1.1"
   inkscape:version="0.91 r"
   inkscape:export-filename="/home/timmy/ghp/wotw/flags/maroon-small.png"
   inkscape:export-xdpi="29.347826"
   inkscape:export-ydpi="29.347826"
   sodipodi:docname="maroon.svg">
  <defs
     id="defs8990" />
  <sodipodi:namedview
     id="base"
     pagecolor="#ffffff"
     bordercolor="#666666"
     borderopacity="1.0"
     inkscape:pageopacity="0.0"
     inkscape:pageshadow="2"
     inkscape:zoom="0.6762478"
     inkscape:cx="-40.380987"
     inkscape:cy="510.73115"
     inkscape:document-units="px"
     inkscape:current-layer="layer1"
     showgrid="false"
     showguides="false"
     inkscape:window-width="1301"
     inkscape:window-height="744"
     inkscape:window-x="65"
     inkscape:window-y="24"
     inkscape:window-maximized="1" />
  <metadata
     id="metadata8993">
    <rdf:RDF>
      <cc:Work
         rdf:about="">
        <dc:format>image/svg+xml</dc:format>
        <dc:type
           rdf:resource="http://purl.org/dc/dcmitype/StillImage" />
        <dc:title></dc:title>
      </cc:Work>
    </rdf:RDF>
  </metadata>
  <g
     inkscape:label="Layer 1"
     inkscape:groupmode="layer"
     id="layer1">
    <rect
       style="opacity:1;fill:#ffffff;fill-opacity:1;stroke:#000000;stroke-width:0;stroke-linecap:round;stroke-linejoin:round;stroke-miterlimit:4;stroke-dasharray:none;stroke-opacity:1"
       id="rect5527"
       width="920"
       height="491.42856"
       x="-302.85715"
       y="366.64792" />
    <rect
       y="-866.64789"
       x="-302.85715"
       height="245.71428"
       width="920"
       id="rect5529"
       style="opacity:1;fill:#800000;fill-opacity:1;stroke:#000000;stroke-width:0;stroke-linecap:round;stroke-linejoin:round;stroke-miterlimit:4;stroke-dasharray:none;stroke-opacity:1"
       transform="scale(1,-1)" />
    <g
       id="g10194"
       transform="matrix(-1,0,0,1,-139.67827,0)"
       style="stroke-width:2;stroke-miterlimit:4;stroke-dasharray:none">
      <path
         sodipodi:nodetypes="cccaccacc"
         inkscape:connector-curvature="0"
         id="rect8382"
         d="m -645.60117,660.66174 50.42189,0.70511 8.46137,126.41941 c 0,0 23.59509,5.10537 30.44069,13.91512 4.69205,6.03829 4.08773,22.57381 4.08773,22.57381 l -137.49562,-0.0512 c 0,0 -1.57396,-15.96041 2.98023,-21.64316 7.57451,-9.45152 34.05257,-12.67922 34.05257,-12.67922 z"
         style="opacity:1;fill:#454837;fill-opacity:1;stroke:#000000;stroke-width:2;stroke-linecap:round;stroke-linejoin:round;stroke-miterlimit:4;stroke-dasharray:none;stroke-opacity:1" />
      <circle
         r="64.483734"
         cy="611.36688"
         cx="-619.68512"
         id="path8377"
         style="opacity:1;fill:#f9ffba;fill-opacity:1;stroke:#000000;stroke-width:2;stroke-linecap:round;stroke-linejoin:round;stroke-miterlimit:4;stroke-dasharray:none;stroke-opacity:1" />
      <path
         sodipodi:nodetypes="ccsc"
         inkscape:connector-curvature="0"
         id="circle8379"
         d="m -555.20137,591.36688 c -26.07991,17.04562 -10.41562,-31.82538 -128.96747,0 0,-35.61338 28.87036,-64.48373 64.48374,-64.48373 35.61338,0 64.48373,28.87035 64.48373,64.48373 z"
         style="opacity:1;fill:#454837;fill-opacity:1;stroke:#000000;stroke-width:2;stroke-linecap:round;stroke-linejoin:round;stroke-miterlimit:4;stroke-dasharray:none;stroke-opacity:1" />
      <path
         sodipodi:nodetypes="cc"
         inkscape:connector-curvature="0"
         id="path8387"
         d="m -619.64622,731.43068 2.15967,91.32336"
         style="fill:none;fill-rule:evenodd;stroke:#000000;stroke-width:2;stroke-linecap:round;stroke-linejoin:miter;stroke-miterlimit:4;stroke-dasharray:none;stroke-opacity:1" />
    </g>
    <g
       id="g10200"
       transform="translate(432.84503,0)"
       style="stroke-width:2;stroke-miterlimit:4;stroke-dasharray:none">
      <path
         style="opacity:1;fill:#454837;fill-opacity:1;stroke:#000000;stroke-width:2;stroke-linecap:round;stroke-linejoin:round;stroke-miterlimit:4;stroke-dasharray:none;stroke-opacity:1"
         d="m -645.60117,660.66174 50.42189,0.70511 8.46137,126.41941 c 0,0 23.59509,5.10537 30.44069,13.91512 4.69205,6.03829 4.08773,22.57381 4.08773,22.57381 l -137.49562,-0.0512 c 0,0 -1.57396,-15.96041 2.98023,-21.64316 7.57451,-9.45152 34.05257,-12.67922 34.05257,-12.67922 z"
         id="path10202"
         inkscape:connector-curvature="0"
         sodipodi:nodetypes="cccaccacc" />
      <circle
         style="opacity:1;fill:#f9ffba;fill-opacity:1;stroke:#000000;stroke-width:2;stroke-linecap:round;stroke-linejoin:round;stroke-miterlimit:4;stroke-dasharray:none;stroke-opacity:1"
         id="circle10204"
         cx="-619.68512"
         cy="611.36688"
         r="64.483734" />
      <path
         style="opacity:1;fill:#454837;fill-opacity:1;stroke:#000000;stroke-width:2;stroke-linecap:round;stroke-linejoin:round;stroke-miterlimit:4;stroke-dasharray:none;stroke-opacity:1"
         d="m -555.20137,591.36688 c -26.07991,17.04562 -10.41562,-31.82538 -128.96747,0 0,-35.61338 28.87036,-64.48373 64.48374,-64.48373 35.61338,0 64.48373,28.87035 64.48373,64.48373 z"
         id="path10206"
         inkscape:connector-curvature="0"
         sodipodi:nodetypes="ccsc" />
      <path
         style="fill:none;fill-rule:evenodd;stroke:#000000;stroke-width:2;stroke-linecap:round;stroke-linejoin:miter;stroke-miterlimit:4;stroke-dasharray:none;stroke-opacity:1"
         d="m -619.64622,731.43068 2.15967,91.32336"
         id="path10208"
         inkscape:connector-curvature="0"
         sodipodi:nodetypes="cc" />
    </g>
    <g
       id="g10233"
       transform="matrix(-1,0,0,1,-475.02686,115.34233)"
       style="stroke-width:2;stroke-miterlimit:4;stroke-dasharray:none">
      <path
         style="fill:#c4c8b7;fill-rule:evenodd;stroke:#000000;stroke-width:2;stroke-linecap:butt;stroke-linejoin:miter;stroke-opacity:1;stroke-miterlimit:4;stroke-dasharray:none"
         d="m -762.67004,544.71819 144.77934,-260.23628 29.3224,-16.49385 3.6653,23.82445 -155.77524,280.39543 z"
         id="path10235"
         inkscape:connector-curvature="0" />
      <path
         style="fill:#454837;fill-opacity:1;fill-rule:evenodd;stroke:#000000;stroke-width:2;stroke-linecap:butt;stroke-linejoin:miter;stroke-opacity:1;stroke-miterlimit:4;stroke-dasharray:none"
         d="m -736.13025,684.41747 -7.88969,-12.51045 35.68,-57.36368 c 0,0 -4.87415,-30.05963 -16.82039,-35.18827 -7.75467,-3.32915 -24.08044,7.81633 -24.08044,7.81633 l -45.26165,54.0856 -38.50281,-6.01775 46.94278,-64.2136 c 0,0 -1.07117,-2.18527 21.29557,-34.87611 1.9639,-2.8704 -20.61938,-8.67209 -22.85134,-18.13729 -1.9928,-8.45099 10.41833,-19.01334 11.0184,-23.60318 0.56764,-4.34188 13.49498,-3.20173 16.13718,1.51066 2.13138,3.80132 -8.9826,12.31843 -5.75058,11.74162 0.9274,-0.1655 -14.10029,-0.6016 -11.68689,6.64485 3.93194,11.80603 33.03168,26.35302 34.63179,26.37554 7.57855,0.10664 -14.68099,-9.13152 25.79968,18.24154 16.30527,11.02564 28.8751,41.48061 28.8751,41.48061 z"
         id="path10237"
         inkscape:connector-curvature="0"
         sodipodi:nodetypes="cccaccccsasasssscc" />
      <path
         sodipodi:nodetypes="cccaccccacc"
         inkscape:connector-curvature="0"
         id="path10239"
         d="m -800.52388,589.9432 29.11408,20.22093 -35.68,57.36367 c 0,0 -3.74497,24.6625 4.55931,30.99352 11.27693,8.59732 42.22504,-5.17643 42.22504,-5.17643 l 39.37813,-52.53074 c 14.57222,16.17067 -0.40594,1.00984 7.95284,4.50467 l -34.6294,59.50697 c 0,0 -49.63218,27.2784 -71.65287,16.51489 -21.52558,-10.5215 -30.28938,-65.18456 -30.28938,-65.18456 z"
         style="fill:#454837;fill-opacity:1;fill-rule:evenodd;stroke:#000000;stroke-width:2;stroke-linecap:butt;stroke-linejoin:miter;stroke-opacity:1;stroke-miterlimit:4;stroke-dasharray:none" />
    </g>
    <g
       transform="translate(837.98791,115.34231)"
       id="g10241"
       style="stroke-width:2;stroke-miterlimit:4;stroke-dasharray:none">
      <path
         inkscape:connector-curvature="0"
         id="path10243"
         d="m -762.67004,544.71819 144.77934,-260.23628 29.3224,-16.49385 3.6653,23.82445 -155.77524,280.39543 z"
         style="fill:#c4c8b7;fill-rule:evenodd;stroke:#000000;stroke-width:2;stroke-linecap:butt;stroke-linejoin:miter;stroke-opacity:1;stroke-miterlimit:4;stroke-dasharray:none" />
      <path
         sodipodi:nodetypes="cccaccccsasasssscc"
         inkscape:connector-curvature="0"
         id="path10245"
         d="m -736.13025,684.41747 -7.88969,-12.51045 35.68,-57.36368 c 0,0 -4.87415,-30.05963 -16.82039,-35.18827 -7.75467,-3.32915 -24.08044,7.81633 -24.08044,7.81633 l -45.26165,54.0856 -38.50281,-6.01775 46.94278,-64.2136 c 0,0 -1.07117,-2.18527 21.29557,-34.87611 1.9639,-2.8704 -20.61938,-8.67209 -22.85134,-18.13729 -1.9928,-8.45099 10.41833,-19.01334 11.0184,-23.60318 0.56764,-4.34188 13.49498,-3.20173 16.13718,1.51066 2.13138,3.80132 -8.9826,12.31843 -5.75058,11.74162 0.9274,-0.1655 -14.10029,-0.6016 -11.68689,6.64485 3.93194,11.80603 33.03168,26.35302 34.63179,26.37554 7.57855,0.10664 -14.68099,-9.13152 25.79968,18.24154 16.30527,11.02564 28.8751,41.48061 28.8751,41.48061 z"
         style="fill:#454837;fill-opacity:1;fill-rule:evenodd;stroke:#000000;stroke-width:2;stroke-linecap:butt;stroke-linejoin:miter;stroke-opacity:1;stroke-miterlimit:4;stroke-dasharray:none" />
      <path
         style="fill:#454837;fill-opacity:1;fill-rule:evenodd;stroke:#000000;stroke-width:2;stroke-linecap:butt;stroke-linejoin:miter;stroke-opacity:1;stroke-miterlimit:4;stroke-dasharray:none"
         d="m -800.52388,589.9432 29.11408,20.22093 -35.68,57.36367 c 0,0 -3.74497,24.6625 4.55931,30.99352 11.27693,8.59732 42.22504,-5.17643 42.22504,-5.17643 l 39.37813,-52.53074 c 14.57222,16.17067 -0.40594,1.00984 7.95284,4.50467 l -34.6294,59.50697 c 0,0 -49.63218,27.2784 -71.65287,16.51489 -21.52558,-10.5215 -30.28938,-65.18456 -30.28938,-65.18456 z"
         id="path10247"
         inkscape:connector-curvature="0"
         sodipodi:nodetypes="cccaccccacc" />
    </g>
  </g>
</svg>
