<?xml version="1.0" encoding="UTF-8" standalone="no"?>
<!-- Created with Inkscape (http://www.inkscape.org/) -->

<svg
   xmlns:dc="http://purl.org/dc/elements/1.1/"
   xmlns:cc="http://creativecommons.org/ns#"
   xmlns:rdf="http://www.w3.org/1999/02/22-rdf-syntax-ns#"
   xmlns:svg="http://www.w3.org/2000/svg"
   xmlns="http://www.w3.org/2000/svg"
   xmlns:sodipodi="http://sodipodi.sourceforge.net/DTD/sodipodi-0.dtd"
   xmlns:inkscape="http://www.inkscape.org/namespaces/inkscape"
   width="210mm"
   height="297mm"
   viewBox="0 0 744.09448819 1052.3622047"
   id="svg4979"
   version="1.1"
   inkscape:version="0.91 r"
   sodipodi:docname="red.svg"
   inkscape:export-filename="/home/timmy/ghp/wotw/flags/rednew.png"
   inkscape:export-xdpi="88.04348"
   inkscape:export-ydpi="88.04348">
  <defs
     id="defs4981" />
  <sodipodi:namedview
     id="base"
     pagecolor="#ffffff"
     bordercolor="#666666"
     borderopacity="1.0"
     inkscape:pageopacity="0.0"
     inkscape:pageshadow="2"
     inkscape:zoom="0.38183766"
     inkscape:cx="245.66409"
     inkscape:cy="520"
     inkscape:document-units="px"
     inkscape:current-layer="layer1"
     showgrid="false"
     inkscape:window-width="1301"
     inkscape:window-height="744"
     inkscape:window-x="65"
     inkscape:window-y="24"
     inkscape:window-maximized="1" />
  <metadata
     id="metadata4984">
    <rdf:RDF>
      <cc:Work
         rdf:about="">
        <dc:format>image/svg+xml</dc:format>
        <dc:type
           rdf:resource="http://purl.org/dc/dcmitype/StillImage" />
        <dc:title />
      </cc:Work>
    </rdf:RDF>
  </metadata>
  <g
     inkscape:label="Flag Base"
     inkscape:groupmode="layer"
     id="layer1">
    <rect
       style="opacity:1;fill:#800000;fill-opacity:1;stroke:#000000;stroke-width:0;stroke-linecap:round;stroke-linejoin:round;stroke-miterlimit:4;stroke-dasharray:none;stroke-opacity:1"
       id="rect5527"
       width="920"
       height="491.42856"
       x="-625.71429"
       y="175.21935" />
    <rect
       y="-667.44452"
       x="-625.71429"
       height="77.142853"
       width="920"
       id="rect5529"
       style="opacity:1;fill:#ff8080;fill-opacity:1;stroke:#000000;stroke-width:0;stroke-linecap:round;stroke-linejoin:round;stroke-miterlimit:4;stroke-dasharray:none;stroke-opacity:1"
       transform="scale(1,-1)" />
    <rect
       transform="scale(1,-1)"
       style="opacity:1;fill:#ff8080;fill-opacity:1;stroke:#000000;stroke-width:0;stroke-linecap:round;stroke-linejoin:round;stroke-miterlimit:4;stroke-dasharray:none;stroke-opacity:1"
       id="rect15151"
       width="920"
       height="77.142853"
       x="-625.71429"
       y="-546.64789" />
    <rect
       y="-425.45834"
       x="-625.71429"
       height="77.142853"
       width="920"
       id="rect15153"
       style="opacity:1;fill:#ff8080;fill-opacity:1;stroke:#000000;stroke-width:0;stroke-linecap:round;stroke-linejoin:round;stroke-miterlimit:4;stroke-dasharray:none;stroke-opacity:1"
       transform="scale(1,-1)" />
  </g>
  <g
     inkscape:groupmode="layer"
     id="layer5"
     inkscape:label="Countries in Background">
    <path
       inkscape:connector-curvature="0"
       d="m -467.45856,343.79822 c 2.44525,-1.15311 5.38936,-1.88914 8.11267,-1.39845 0.95683,-4.15447 -4.59609,-1.29214 -5.7492,-4.15447 2.55974,-0.83417 5.52839,-0.5234 8.14538,-0.39255 -2.06906,-0.35166 -4.84961,0.39255 -3.38573,-2.17537 -1.59473,-0.1145 -6.9841,2.94411 -7.6547,0.27805 -0.87505,-3.63107 4.64516,-5.83916 7.29486,-6.35438 3.58201,-0.71967 6.91049,-0.98955 10.50885,-0.90776 5.11949,0.17174 8.39072,-4.8169 14.03361,-4.12176 -0.62972,1.84007 6.1581,8.22716 8.05542,7.45024 1.2676,-0.60518 2.51067,-1.31667 3.68832,-2.11813 2.55974,-1.43116 2.388,0.41709 4.53884,0.82599 2.15084,0.41708 3.7701,-1.25943 3.90913,2.17537 1.40663,-0.95683 -0.65425,-2.08541 0.49886,-3.6556 1.16129,-1.59473 1.76647,0.83416 2.78055,1.10404 2.45343,0.62971 5.56111,-0.0245 8.00636,-0.41708 -5.17673,-1.51295 -3.27124,-8.85688 -2.87051,-12.68423 0.22081,-1.87278 -2.60881,-3.71285 -3.5493,-5.02952 -1.65197,-2.22445 -0.13902,-5.61835 -2.50249,-7.45842 1.81554,0.3353 3.4348,1.21035 5.2258,1.57019 1.95456,0.4089 4.37528,-1.52113 6.07632,-0.63789 2.67424,1.34938 -0.65424,5.36483 3.05861,7.48295 1.0468,0.60518 2.96865,-0.46615 4.07269,-0.49886 3.22217,-0.0245 6.32167,1.07951 9.42934,1.68469 3.05861,0.57246 5.72467,0.46615 8.47251,-1.07951 2.47796,-1.43117 5.80644,-1.37392 8.03088,-2.96865 -1.791,0.71967 -4.78418,1.07951 -6.51794,0.0818 -3.52475,-2.00363 4.56338,-6.95956 5.91276,-7.56473 4.26079,-1.92186 9.07769,-1.67651 13.42843,-3.41027 2.51068,-1.01408 5.8637,-6.76328 8.97137,-5.14402 -2.7233,-1.76647 -1.07133,-13.95183 1.21036,-16.2008 2.22444,-2.25716 13.59199,-6.30531 16.51157,-3.85188 1.48841,1.25942 -1.43117,6.07632 2.93593,7.18036 4.48978,1.09587 3.44298,0.0818 6.6079,1.0468 2.96865,0.87505 2.03635,3.16492 4.34257,4.28532 2.96865,1.46388 5.99454,-0.26988 5.64289,4.34257 1.791,-1.12858 4.86596,-0.87506 6.76328,-0.21263 3.54929,1.20217 2.06088,5.61017 1.34939,8.1372 2.36346,0.41708 5.06224,1.16129 7.4257,0.18809 2.36347,-0.9323 2.89505,-3.59836 5.25852,-4.53884 0.18809,1.48842 -0.41708,8.05542 1.56201,8.14538 2.94412,0.1145 8.88959,3.98273 9.79736,6.82053 -0.24534,-0.82598 11.19581,1.0468 11.79281,1.07133 2.78055,0.24535 4.87414,-0.32712 7.07405,1.9791 1.73376,1.82372 2.96865,4.67787 5.61017,5.36483 0.54793,-0.26988 1.02226,-0.68696 1.34939,-1.20218 0.85052,-0.88323 1.29214,0.26988 2.20808,0.40891 0.49887,0.18809 0.62972,0.52339 0.41709,1.04679 -0.17174,1.07133 2.36346,0.47433 2.77237,0.5234 2.81326,0.24534 4.43253,-1.48841 7.04134,0.49886 2.75601,2.11813 8.50521,2.5025 11.97273,3.07497 -4.26079,3.7701 -8.20263,7.8755 -9.57655,13.46114 -0.66243,2.7233 -2.28169,5.20126 -2.69877,7.9491 -0.26988,1.79101 0.3353,2.51068 -0.38437,4.8169 -0.87506,2.78055 1.23489,5.09495 -0.62972,6.796 -1.56201,1.46387 -2.78055,2.86233 -5.14402,2.64152 -1.9791,-0.17174 -2.15084,-3.10768 -4.54702,-1.791 -1.73375,0.96501 -1.88914,4.03998 0.98955,3.582 -2.17537,2.28169 -4.06451,4.97228 -6.54247,6.93503 -1.52113,0.98954 -3.00136,2.00363 -4.46524,3.10767 -1.18582,1.07951 -1.07133,3.16492 -2.06088,4.43253 -1.73376,2.11812 -5.02953,3.10767 -5.5611,6.13357 0.38437,1.01408 0.63789,2.09359 0.80145,3.16492 -0.41708,1.95456 -2.22444,2.64152 -2.96865,4.34257 3.27124,-0.40891 4.45706,-1.51295 5.33212,-4.64516 0.85052,-3.08314 6.52612,-2.8378 8.8078,-2.17537 2.74784,0.77692 0.87506,5.28304 2.88687,7.48295 3.46751,3.85188 1.34939,5.28305 -1.78282,7.86733 1.64379,2.37164 7.92457,6.73875 6.19081,10.18172 -1.16129,2.30623 -9.82189,5.50386 -9.79735,5.91276 0.17174,2.73149 5.44661,5.06224 7.27032,6.6079 2.60881,2.25716 -3.6556,6.28078 -2.75601,9.27396 1.10404,3.59836 8.00635,7.7283 11.67013,6.24806 4.62063,-1.84824 3.92549,0.85053 2.17538,3.90913 -4.18719,7.36846 -12.18536,11.0895 -19.30848,15.93093 0.44162,0.66242 0.89959,1.31667 1.39845,1.9791 -2.66605,0.38437 -4.89867,1.73375 -7.39299,2.60881 -2.69877,0.9323 -4.39982,-0.54793 -6.93503,-0.32713 -3.86006,0.30259 -6.22352,-2.9114 -10.81143,-2.51067 1.84824,-4.75965 -6.05179,-1.09586 -6.13357,-3.87642 0.49886,-0.85052 1.29213,-1.0795 2.36346,-0.66242 -0.0818,-1.56202 -1.02226,-2.45343 -2.58427,-2.39618 1.29214,2.03634 0.17174,2.33893 -1.65198,2.42071 -2.96865,0.14721 -3.29577,-0.0245 -4.09722,-3.59836 1.07133,7.12312 -0.74421,2.58428 -5.33212,2.58428 -2.66606,0 -4.84143,-1.67651 -7.42571,-1.81554 -3.19763,-0.1472 -6.6815,3.4348 -9.49477,4.72694 -2.1999,1.01408 -9.96091,3.88459 -9.48658,6.87778 -0.0327,0.98955 -0.32713,1.89731 -0.87506,2.75601 -1.23489,1.10405 -1.13675,2.06088 0.32712,2.93594 1.07133,3.44298 0.38437,5.14402 2.36347,8.4725 -1.87278,0.54794 -3.52475,-0.4089 -5.38936,-0.30259 -1.95456,0.14721 -2.94411,1.68469 -4.67787,2.15084 -4.179,1.16129 -6.70604,-3.18945 -10.72966,-0.26987 -0.27805,0.21263 -5.86369,-2.39619 -6.46887,-2.8378 -1.53748,-1.18583 2.01181,-1.02226 -0.49886,-2.69877 -1.4557,-0.95684 -4.06451,-1.39846 -5.29941,0.18809 -0.54793,-3.54929 -4.48977,-2.06088 -6.64061,-3.73739 -2.93593,-2.30622 -8.97137,-3.82734 -8.03089,1.75829 -3.26306,-0.46615 -6.98409,-1.29213 -10.31257,-0.68696 -1.84825,0.33531 -3.08314,0.85053 -4.65334,-0.54793 -2.80508,-2.53521 -2.5761,-1.48841 -5.44661,-1.51294 -2.80508,-0.0572 -16.42161,-8.97137 -17.82824,-5.36483 -2.55974,-1.0468 -0.74421,-2.9114 -0.57247,-4.72694 0.1881,-2.15084 -6.02725,-1.16129 -7.34392,-2.78055 7.86732,-2.9114 8.55428,-13.83734 9.99363,-20.9441 0.53975,-2.78055 1.07133,-7.14765 3.37755,-9.12675 3.3612,-2.91958 -1.15311,-3.30395 -1.48841,-0.0572 -0.46616,-6.6815 0.87505,-14.90866 3.7701,-20.99316 2.78055,1.57019 5.5611,3.41026 6.73875,6.55065 0.27805,1.37392 0.54793,2.75602 0.80145,4.15447 0.66242,1.76647 2.42071,2.01181 2.36347,4.15447 0.80145,-2.77237 -2.00364,-4.89868 -2.24898,-7.53202 -0.41708,-4.01545 -1.82371,-6.77146 -5.38936,-8.71785 -1.52113,-0.83416 -3.1731,-1.93003 -4.43253,-3.14039 -2.03634,-1.95456 3.27124,-0.98955 4.34257,-0.0327 -2.47796,-1.20218 -2.60881,-11.79281 -1.18582,-13.86187 -3.27124,2.3144 -11.00772,-2.1999 -12.51249,-5.25851 -1.34938,-2.69059 -4.37528,-4.09723 -4.98046,-7.23761 -0.54793,-2.86234 4.70241,-6.01908 -1.88913,-6.30531 0.76874,-0.93231 0.89959,-2.5761 1.92185,-3.29577 2.50249,-1.73376 4.81689,1.21035 7.2049,1.52112 -4.21172,-2.78055 -5.88823,-1.87278 -10.26351,-1.29214 -2.22444,0.30259 -6.49341,-2.96865 -2.42072,-3.46751 -1.15311,-1.13675 -0.68695,-1.84825 1.37392,-2.18355 -3.13221,-0.76874 -7.56473,1.76647 -10.09176,-0.98955 1.37392,-0.0245 2.69877,-0.35166 3.95819,-0.98955 -2.50249,-1.67651 -7.06587,-0.98955 -7.72829,2.37165 -0.1145,-2.20809 -2.53521,-4.26079 -0.1881,-6.14175 -0.95684,2.42889 -5.28305,2.25715 -2.58428,-0.79327 -5.50385,4.75965 -12.8396,-6.08451 -18.40071,-0.19628 -2.24897,-3.08314 -4.12993,-4.95592 -7.9491,-5.75738"
       id="path2182"
       style="fill:#fff5f5;fill-opacity:1;stroke:none;stroke-width:2.45342803;stroke-miterlimit:3.97000003;stroke-dasharray:none;stroke-opacity:1" />
    <path
       inkscape:connector-curvature="0"
       d="m -571.2631,549.06018 c -0.18809,-0.66242 -0.38437,-1.31667 -0.597,-1.9791 6.37891,-0.49886 8.57882,-10.86868 10.41889,-15.57109 1.61926,-4.12175 2.51068,-8.69331 3.71286,-12.98681 0.30259,-1.18582 1.40663,-1.37392 2.1263,-2.17537 0.57247,-0.68696 0.62971,-5.06224 -0.99773,-0.38437 0.71967,-5.06224 1.98728,-8.08813 0.90777,-13.19944 -0.35984,-1.68469 -2.93593,-10.48432 0.47433,-10.5661 -4.94775,1.51295 -0.98955,-5.80645 1.67651,-6.93502 2.96865,-1.26761 7.2049,-1.43117 9.63379,-3.7701 -0.27805,1.64379 0.46615,2.60881 2.17538,2.388 -1.07951,0.77692 -4.84961,5.78191 -1.29214,5.70013 2.88686,-0.09 5.86369,-2.33893 8.71784,-1.87278 3.79464,0.62971 5.20127,2.1263 8.99591,0.13903 1.23489,-4.06452 6.93502,-0.95684 10.32075,-1.28397 3.9582,-0.41708 1.73376,2.44525 2.01181,4.56338 0.16356,1.3821 4.84143,2.20809 5.88823,3.1731 2.28169,2.08541 -12.08722,13.45296 -13.95183,13.91912 1.59473,-0.41709 0.87506,10.17354 0.90777,10.975 0.0573,1.46387 0.71149,4.15447 0,5.50385 -0.9323,1.79101 -3.63107,1.07133 -4.21172,3.38573 -0.35983,1.37392 4.57156,6.95956 0.13903,8.38255 -1.67651,0.54793 -0.68696,2.7233 -2.09359,3.52476 -2.00364,1.21035 -7.14766,0.7442 -9.29849,0.1472 0.7442,1.61927 2.24897,2.55975 3.49204,3.71286 1.5702,1.4557 0.11449,3.07496 1.18582,4.97228 1.10405,1.95456 5.42208,5.0377 4.67787,7.34393 -1.25942,3.98273 -5.6347,5.96183 -6.73874,9.98545 -0.98955,3.52475 2.33893,10.09994 6.71421,8.64424 -1.89732,4.57156 -4.98046,3.44298 -7.27032,8.00635 -1.12858,2.27351 -3.29578,3.76193 -4.34257,6.10086 -1.43117,3.14039 1.70922,6.22353 0.0818,9.35574 -2.42072,4.71058 -9.48659,5.25851 -13.64106,3.58201 -4.98046,-2.03635 -11.61289,-2.22445 -16.04542,1.48841 -0.597,-2.03635 0.85052,-4.75965 1.67651,-6.51794 1.32485,-2.80509 1.13675,-6.41163 2.42889,-8.88959 1.53748,-2.93593 -0.49886,-5.00499 -0.3353,-7.92457 0.24534,-4.28532 2.87051,-7.23761 0.1881,-11.52293 1.43934,4.53884 3.1731,-0.44162 2.78055,-2.17538 -0.85052,2.08542 -7.42571,2.78055 -9.71558,3.54929 1.13676,-1.89731 0.44162,-4.09722 0.98955,-6.13356 0.80146,0.32712 1.59473,0.65424 2.37165,0.98954 0.16356,-1.52112 1.34121,-1.82371 2.42072,-2.51067 1.56201,-0.98955 -0.22081,-3.65561 -0.24535,-5.00499 -1.40663,1.84825 -6.10903,8.58699 -9.02861,6.35438 -3.74557,-2.81327 2.69059,-10.92594 2.69059,-14.48341"
       id="path3446"
       style="fill:#fff5f5;fill-opacity:1;stroke:none;stroke-width:2.45342803;stroke-miterlimit:3.97000003;stroke-dasharray:none;stroke-opacity:1" />
    <path
       inkscape:connector-curvature="0"
       d="m -223.37519,184.73431 c -1.84825,0.76874 -2.03635,3.41027 -1.65198,4.97228 0,-1.07133 0.98955,-2.00363 2.20809,-2.47796 -0.88324,-0.30259 -1.32486,-1.15311 -0.55611,-2.49432 z m 2.50249,2.22444 c -0.597,0 -1.12857,0.0818 -1.67651,0.26988 1.0468,0.24534 2.51068,0.0818 3.32849,0 -0.5234,-0.24534 -1.07133,-0.26988 -1.65198,-0.26988 z m 7.21308,0 c -1.73376,-0.18809 -3.52476,0.0818 -5.28305,0.26988 1.15311,0.57247 2.42072,4.15447 3.05043,5.25852 0.57247,0.98954 3.29577,2.89504 2.5025,4.15447 -1.28396,2.11812 -4.89868,0.96501 -6.37892,3.59836 1.95457,0.83416 3.86006,0.47433 5.83916,0 -4.40799,2.03634 0.32713,3.44297 1.09587,5.83916 -1.87279,-0.09 -2.55975,1.07133 -1.09587,2.50249 1.56202,1.53748 3.87642,1.07951 5.83098,1.65198 2.06088,0.62971 3.10768,2.28169 4.42435,3.88459 1.5702,1.92185 3.68832,2.14266 5.53657,3.59836 -4.75965,-0.49886 -6.02725,-4.48977 -9.69104,-6.63243 -2.42072,-1.43117 -5.20127,0.24534 -7.78554,0 -2.99319,-0.30259 -5.88823,-1.29214 -6.3462,2.74784 -0.1881,1.61926 1.12857,2.89504 1.09586,4.45706 -0.44162,1.16129 -0.597,2.37165 -0.82599,3.60654 -0.18809,-2.01181 0.27806,-3.93366 -1.94638,-5.005 -2.61699,-1.23489 -3.58201,1.2349 -1.93003,3.05043 -1.4557,0.35984 -2.6906,0.0573 -3.90913,-0.82598 6.52612,-4.408 -11.10585,-5.09496 -13.01135,-4.70241 -2.20808,0.40891 -5.86369,3.90913 -5.83098,6.3462 0.0245,2.03635 5.14402,1.87279 6.37891,2.51068 -3.08314,-1.52113 -4.15447,10.34529 -5.83915,12.766 -1.9791,2.86233 -4.12176,0.3353 -6.10086,2.47796 -2.78055,3.05861 3.10767,3.85188 4.72694,4.73512 5.09495,2.7233 -5.5284,6.6815 -4.15448,9.40481 1.92186,3.90912 -9.63379,3.14038 -11.39208,2.22444 1.16129,3.16492 -1.34938,0.18809 -3.59836,1.67651 0.98955,0.87505 -0.0327,1.01408 0,1.92185 2.53521,0.87505 6.10086,5.94547 4.72694,8.61153 -1.23489,2.37165 -6.6079,7.29486 -3.59836,9.96092 1.70104,1.57019 -2.28169,3.44297 0.26987,5.5611 1.59473,1.34939 4.93139,1.37392 2.75602,4.15447 2.72331,-0.44161 2.53521,2.78055 3.32849,4.45706 -6.93503,1.2349 -5.36483,8.80781 -0.27806,11.36755 4.12994,2.03635 -0.54793,3.16492 -0.54793,5.80645 0,3.08314 3.32848,4.03998 4.73511,6.37891 2.63335,4.45706 3.41027,1.23489 6.3462,2.22444 1.82372,0.60518 -0.0245,2.58428 2.51068,1.92185 0.96501,-0.16356 1.81554,-0.16356 2.78055,-0.26987 3.52476,-1.21036 4.23625,0.66242 7.48296,1.67651 2.94411,0.90776 6.93502,1.70922 9.98545,2.20808 -2.47797,2.19991 -4.92322,4.30986 -6.93503,6.93502 -2.30622,3.0259 -2.06088,6.93503 -3.59836,10.26351 -1.01408,2.24898 -3.46751,16.25805 0,14.13992 -1.9791,2.3144 7.86733,0.74421 9.71558,0.85053 3.582,0.17174 6.71421,0.0572 7.48295,-2.22445 -4.28532,1.59473 -2.86233,-4.18718 2.20809,-1.65197 3.57382,1.76647 8.55428,0.63789 12.20989,2.75602 2.22444,1.31667 17.80371,2.7233 14.69603,8.05542 4.30986,-0.13903 4.59609,-4.03998 5.55293,-7.2049 1.82371,1.61926 6.02725,1.58655 8.31712,1.37392 -1.9791,0.98955 3.16492,2.47796 4.15447,2.5025 2.36347,0.0572 3.8846,-2.00364 6.10904,-2.22445 4.31803,-0.44161 8.52975,-3.7701 13.31393,-2.22444 -0.0572,-0.71149 -0.0818,-1.48841 -0.26987,-2.1999 2.22444,0.26987 4.3671,1.37391 6.64879,1.37391 1.10404,-0.35983 2.17537,-0.60517 3.32848,-0.82598 1.23489,0.13903 1.73375,2.53521 2.74784,3.3203 3.11585,2.37165 3.08314,1.16129 3.9173,-1.67651 0.80146,-2.80508 -2.69877,-1.73375 -2.51067,-4.15447 0.22081,-2.93593 0.3353,-2.8378 -1.94639,-5.25851 -1.70922,-1.84825 -0.54793,-3.27124 1.39846,-4.15447 2.20808,-1.0468 9.40481,-2.24898 9.40481,-5.56111 0,-5.80644 3.9909,-0.7442 6.10903,-3.32848 3.88459,-4.66969 -2.86233,-7.92457 -5.83098,-9.71557 -3.44298,-2.06088 -6.37891,-4.92322 -9.96092,-6.93503 -4.5143,-2.50249 -5.42207,-8.19445 -9.71557,-10.53338 3.38573,-2.69877 1.791,-4.89868 -1.40663,-6.65697 -2.44525,-1.34938 -2.99319,-3.79463 -4.15447,-5.80644 1.81553,-0.26988 3.19763,0.44161 3.88459,3.0586 0.71149,-7.32757 10.09177,-4.48977 13.86187,-7.51567 6.05179,-4.81689 16.1272,-7.48295 23.30756,-10.2635 -0.63789,-0.597 -1.2676,-1.07133 -1.95456,-1.6438 2.8378,-0.66242 4.28532,-1.73375 5.5611,1.37392 1.51295,3.71285 5.77373,1.18582 5.69195,-1.65197 -0.0818,-3.27124 1.75829,-5.44661 1.23489,-8.61154 -0.35983,-2.22444 -4.24442,-1.81553 -4.43252,-3.59836 -0.26988,-2.42071 0.14721,-3.2467 -1.67651,-5.25851 -1.20218,-1.34939 0.83417,-3.10768 1.12858,-4.43253 1.16129,-5.5611 -3.85188,-6.43616 -2.5025,-10.81144 1.65198,-5.41389 -7.65469,-5.33211 -8.03089,-9.71557 -0.26987,-2.74784 2.78056,-2.55974 3.59836,-4.72694 0.85053,-2.33893 0.90777,-4.8169 0.27806,-7.21308 -0.83417,-3.05043 -1.76647,-6.27259 -5.00499,-7.48295 -2.01181,-0.74421 -5.25852,-1.25943 -5.53657,-3.87642 -0.16356,-1.34938 -0.76874,-5.53657 -2.77238,-5.53657 -1.23489,0 -3.72103,0 -3.0586,1.37392 -2.22444,-1.28396 -7.04134,-7.00862 -9.15947,-7.2049 -4.43252,-0.41708 -7.48295,-0.0327 -10.81144,3.32849 -0.51522,-3.74557 5.69196,-3.99091 8.0636,-3.60654 -4.57155,-1.70105 -5.23398,-0.38437 -8.61971,2.20808 -1.58655,1.23489 -5.1113,2.60881 -4.15447,5.28305 0.44162,-4.48159 -8.4725,-0.49886 -10.53338,0.83417 4.03998,-1.95457 -0.44162,1.34938 -1.10404,3.32848 -1.65198,-1.53748 -11.31031,-3.68832 -9.15947,0 -0.38437,-1.43934 -1.37392,-2.20809 -2.78055,-2.51067 2.69877,-2.74784 5.11949,-4.57156 5.83098,-8.587 -3.65561,0.71967 -5.80645,2.17537 -9.42934,0.54793 -2.25715,-1.01408 -5.83916,-2.388 -6.93502,0.83417 -0.27806,-1.43935 -0.35984,-1.52113 0.54793,-2.75602 -1.84825,-0.82599 -3.99091,-0.74421 -5.80645,0 1.37392,-0.66243 4.51431,-4.8169 1.09587,-4.72694 5.50385,-2.51067 -12.9541,-4.01544 -12.2099,-3.60654 -1.66015,-0.89959 -3.45115,-1.48023 -5.25851,-1.6438 z"
       id="path3884"
       style="fill:#fff5f5;fill-opacity:1;stroke:none;stroke-width:2.45342803;stroke-miterlimit:3.97000003;stroke-dasharray:none;stroke-opacity:1" />
    <path
       inkscape:connector-curvature="0"
       d="m -121.02636,233.06684 c -0.14721,-4.72693 6.90231,-5.96183 4.31803,-11.46568 -0.90776,-1.89732 -3.00136,-4.73512 -2.20808,-7.04134 0.35983,-1.07951 4.03998,0.30259 4.8169,0.30259 -0.38438,-1.5702 -0.0573,-2.94412 0.98954,-4.18719 -0.18809,0.32713 -0.41708,0.66243 -0.60517,0.98955 -1.18583,-1.01408 -2.58428,-1.61926 -4.15448,-1.75829 0.85053,2.08542 -2.42071,0.89959 -2.58427,-0.98955 4.57155,1.70105 11.85823,-2.25715 16.0127,-3.9173 4.972281,-2.00364 17.059501,-1.4557 20.167181,-5.61017 3.82735,-5.03771 12.79054,-7.37664 18.81779,-8.97137 7.51567,-1.9791 17.86096,-3.58201 24.23987,1.84007 -1.70922,-1.18583 -3.7701,-2.388 -5.94547,-1.58655 2.60881,2.47796 3.27123,7.18036 7.09858,8.28441 4.57155,1.31667 10.70512,-0.66243 15.10494,-1.93003 -1.92185,1.16129 -4.28532,1.46388 -6.19082,2.75601 -2.7233,1.84825 3.10768,0.85053 4.09723,0.24535 7.65469,-4.53884 13.37118,-0.82599 21.7373704,-0.82599 11.08131,0 22.8005196,1.61926 33.8327696,0 8.22716,-1.21036 14.16446,3.59836 16.20898,11.1631 2.10995,7.76101 11.66196,16.8714 8.91412,25.39298 -1.37392,4.31803 -6.99227,2.42071 -9.28213,5.71648 -2.3144,3.32849 -4.39164,6.28078 1.18582,7.29486 8.97955,1.65198 1.32485,8.83234 3.99091,13.67377 2.81326,5.08678 5.33212,14.88413 11.85006,16.37255 -1.10405,0.57246 -2.21627,1.10404 -3.35302,1.59472 3.38573,2.99319 4.2935,6.37892 -0.53976,8.16992 -4.87414,1.791 -8.9959,6.43616 -12.55337,10.0427 -3.23852,3.29577 -9.03679,7.84279 -7.09041,12.92956 0.83417,2.11813 0.53976,4.37528 1.34121,6.49341 0.63789,1.67651 2.54339,1.10404 2.20809,3.35302 -3.27124,-2.30623 -8.25988,-2.28169 -11.99727,-3.59836 -3.68832,-1.31668 -5.47932,-4.12994 -9.26578,-5.14402 -3.72103,-0.98955 -7.8755,-1.56202 -11.4983896,-0.0572 -4.73512,1.95456 -5.28305,0.17174 -9.85461,-0.38437 -3.50022,-0.44162 -4.81689,0.24534 -7.36846,2.42071 -1.13675,0.96502 -2.5352104,2.15084 -4.0726904,2.28169 -2.64152,0.21263 -1.76647,-2.55974 -2.81326,-3.82735 -1.09587,-1.37392 -3.6229,-2.50249 -5.02953,-4.18718 -2.24898,-2.7233 -7.7283,3.2467 -10.20626,3.58201 0.62971,-2.11813 -8.44797,-11.69468 -11.4984,-12.51249 -3.44298,-0.9323 -5.11949,-2.33893 -8.44797,-1.29214 -3.49205,1.10405 -3.81917,-4.73511 -3.4348,-6.79599 -5.52839,1.67651 -10.32075,-2.22444 -15.44024,-3.54929 0.14721,1.67651 0.88324,3.05042 2.17537,4.15447 -2.14266,1.43116 -6.01907,5.36483 -8.43979,2.00363 -1.9791,-2.74784 -3.16492,-4.56338 -6.6079,-5.77373 0.90777,-0.76874 4.31804,-2.60882 3.58201,-4.24443 -0.96502,-2.11813 -5.7492,-1.20218 -6.96774,0.09 -0.16356,-5.42208 -10.09176,-1.5702 -12.2426,-4.67787 -2.060881,-2.96865 -0.7115,-3.22217 -4.481601,-4.28532 -2.69877,-0.80146 -0.90777,4.26078 -5.06224,3.02589 3.10768,-7.70376 5.11949,-10.14901 -0.76874,-14.16446 -2.53521,-1.70922 -0.5234,-3.66378 -2.53521,-5.42207 -2.58427,-2.30623 0.26988,-3.38573 0.7115,-5.8637 0.27805,-1.51294 -0.32713,-4.23625 -0.51522,-5.77373 -0.1881,-1.53748 -3.38573,-1.16129 -2.75602,-3.74557 0.39255,-1.70104 2.51068,-3.37755 0.22081,-4.75965 -2.80509,-1.67651 -5.44661,-3.60654 -7.81008,-5.83098"
       id="pl"
       style="fill:#fff5f5;fill-opacity:1;stroke:none;stroke-width:2.45342803;stroke-miterlimit:3.97000003;stroke-dasharray:none;stroke-opacity:1" />
    <path
       inkscape:connector-curvature="0"
       d="m -560.55797,464.88307 c 0.2208,-0.32712 0.41708,-0.66243 0.60517,-0.98955 -2.5352,0.22081 -2.63334,-1.95456 -1.92185,-3.7701 1.16129,-2.9114 3.22217,-2.15084 5.02953,-4.09722 3.55747,-3.82735 11.20399,-2.03635 16.10267,-4.24444 -3.99091,0.17174 -1.40664,-0.95683 0,-1.75829 -0.83417,0.30259 -1.70923,0.57247 -2.58428,0.76875 -0.57247,-2.5761 8.14538,-9.24125 8.14538,-4.94775 1.31667,-0.76874 2.63334,-1.56202 3.9582,-2.36347 0.32712,2.9114 11.82552,1.59473 11.88276,6.55065 3.52476,-4.54702 13.78827,-1.02226 18.58881,-1.791 4.18718,-0.66243 5.25851,-0.90777 9.63379,0.13903 4.64516,1.10404 9.35574,2.15084 14.09086,2.94411 6.46069,1.10404 12.38163,0.49887 18.29439,-0.9323 3.73739,-0.90777 8.13721,-0.0573 11.41662,1.92185 4.48977,2.66606 3.80281,-1.0468 7.95729,-0.74421 3.6556,0.24535 7.2049,1.70105 10.77872,2.38801 2.17537,0.41708 8.61153,-1.58655 9.57655,-0.0818 1.04679,1.61926 7.50749,-0.35984 6.35438,3.59836 -0.24535,0.85052 -0.88324,1.84825 -0.14721,2.67423 1.68469,1.88914 1.24307,-0.52339 3.0259,-0.44979 5.64288,0.30259 10.20626,6.02725 15.44024,6.4934 1.18582,0.1145 2.45342,-0.68695 3.582,-0.24534 1.4557,0.54793 2.28169,2.18355 3.88459,2.4289 4.42435,0.68696 9.04498,0 13.50204,0.65424 -0.22081,-1.51294 0.11449,-2.9114 0.98955,-4.15447 5.61835,2.8378 13.67377,2.64153 14.24623,9.90367 3.14039,-0.38437 5.11949,-1.92185 8.14538,-0.18809 0.90777,0.49886 2.28169,2.17537 3.41027,1.791 1.34938,-0.41708 2.69877,-1.81554 4.24443,-1.21036 2.93594,1.194 5.47114,2.45343 8.4725,0.5234 2.47797,-1.61926 3.85189,-1.81554 6.63244,-0.71967 1.59473,0.63789 1.73375,2.66606 3.7701,2.37164 0,2.11813 -1.32485,1.48842 -2.51068,2.44525 -1.791,1.40664 -0.0245,4.93139 -0.10631,6.77146 -0.22081,5.08678 -11.34302,8.74239 -15.11312,10.31258 -2.80508,1.16129 -3.54929,3.82735 -5.88822,4.93139 -2.8378,1.34939 -6.73875,1.31667 -9.76465,2.06088 -7.34392,1.84825 -11.76827,5.03771 -17.68921,9.13493 4.60426,3.68832 0.22081,4.39981 -2.9114,6.19082 -4.59609,2.64152 -5.50386,9.00408 -10.01817,11.88277 -7.69558,4.93139 -10.41889,19.01406 -4.07269,25.75281 3.86006,4.09723 6.96774,5.35665 0.60518,9.32303 -3.68014,2.3144 -6.46069,3.27123 -9.46205,6.55065 -1.75829,1.95456 -3.35302,4.93139 -4.59609,7.76101 -0.77692,1.75829 -1.65198,3.73739 -1.70922,5.71649 -0.0245,1.65197 2.66606,3.85188 1.04679,-0.0818 2.51068,4.15447 -7.72829,4.48159 -9.71557,4.7024 -4.78419,0.57247 -11.41662,4.93139 -12.56973,9.65833 -0.98955,4.03998 -4.37528,11.27759 -8.71785,7.76101 -2.64152,-2.15084 -4.62062,0.7442 -6.85324,1.64379 -3.16492,1.32486 -6.63243,-0.65424 -10.01816,-0.11449 -7.04134,1.16129 -14.05815,0.35984 -21.23851,0.49886 -3.85188,0.09 -4.70241,0.80146 -7.48296,3.41845 -3.19763,2.96865 -7.40117,1.75829 -11.08131,3.59836 -1.84825,0.90777 -3.66379,7.09858 -5.28305,6.93502 -2.06088,-0.18809 -1.51295,3.16492 -4.7024,3.10768 -2.55975,-0.0818 -4.4816,-4.4816 -6.93503,-4.21172 -2.66606,0.30259 -4.7024,-5.28305 -5.36483,-7.29486 3.55747,-0.60518 -0.85052,-3.16492 -1.88914,-3.9582 -2.51067,-1.92185 0.49887,-5.25851 2.88687,-5.94547 -1.48841,-0.49886 -2.24898,0.32712 -2.36347,1.791 -1.29214,-1.37392 -11.85823,-8.52975 -9.5193,-10.70512 -3.63107,-0.41708 -0.0573,1.51295 -3.9582,1.61926 -1.75829,0.0327 -3.93366,0.68696 -5.66741,0.0572 -2.44525,-0.87506 -2.36347,-7.18037 -2.00364,-9.21671 0.26988,-1.75829 1.67651,-3.10768 2.86234,-4.31804 1.48841,-1.51294 1.65197,-3.87641 2.94411,-5.14402 2.93593,-2.89504 4.179,-0.66242 6.07632,-5.16855 -3.79463,1.23489 -6.85324,-3.7701 -6.93502,-6.96774 -0.17174,-4.93139 5.5611,-7.31939 6.93502,-11.67014 0.77692,-2.36347 -3.71285,-5.52839 -4.75965,-7.58927 -0.90777,-1.76647 -0.0245,-2.81326 -1.31667,-4.2935 -1.10404,-1.25942 -2.55974,-2.63334 -3.27124,-4.179 2.53521,0.71149 5.16856,0.21263 7.69559,0.21263 2.67423,0 1.93003,-1.56202 2.87051,-3.22217 1.15311,-2.03635 4.75965,-6.24806 0.9323,-8.55429 -1.70922,-1.02226 2.60881,-2.81326 2.96865,-2.96864 1.75829,-0.83417 1.12858,-3.3612 1.07133,-4.89868 -0.0573,-1.16129 0.54793,-12.8805 -0.98955,-12.48795 2.75602,-0.68696 3.99091,-3.80281 6.71421,-5.36483 1.67651,-0.96501 8.22717,-5.30758 7.7283,-7.81008 -0.41708,-2.03634 -4.54702,-2.51067 -6.02725,-3.32848 -1.6438,-0.90777 1.791,-4.2935 -0.7115,-5.06224 -1.791,-0.54793 -11.47386,-1.56202 -11.67014,0.1881 -0.32712,3.38573 -5.86369,2.11812 -7.72829,1.34938 -2.99319,-1.21036 -5.96183,0.62971 -8.91413,1.20218 -4.64515,0.90777 -2.28168,-3.90913 -0.0572,-5.52839 -1.73376,0.24534 -2.47796,-0.71967 -2.17537,-2.36347 -1.70923,1.61926 -4.01545,1.67651 -6.19082,2.09359 -2.72331,0.49887 -4.31803,2.6906 -6.6815,3.85188 -2.17538,-5.66741 4.09722,-6.30531 5.52839,-10.70512 -1.0468,1.94639 -3.10768,2.55974 -5.14402,2.58428 0.41708,-2.25716 2.55974,-3.1731 4.37528,-4.16265 -1.82372,0.80145 -4.51431,0.98955 -4.37528,-1.78283 0.0818,-1.98727 3.22217,-2.75601 3.582,-4.75965 -1.76647,1.6438 -4.53884,1.48842 -5.5611,3.9582 -1.9791,-2.87051 1.18582,-5.17673 3.16492,-6.73875 -2.01999,1.65198 -4.58791,2.09359 -5.38118,-0.9323"
       id="path5998"
       style="fill:#fff5f5;stroke:none;stroke-width:2.45342803;stroke-miterlimit:3.97000003;stroke-dasharray:none;stroke-opacity:1;fill-opacity:1" />
  </g>
</svg>
