<?xml version="1.0" encoding="UTF-8" standalone="no"?>
<!-- Created with Inkscape (http://www.inkscape.org/) -->

<svg
   xmlns:dc="http://purl.org/dc/elements/1.1/"
   xmlns:cc="http://creativecommons.org/ns#"
   xmlns:rdf="http://www.w3.org/1999/02/22-rdf-syntax-ns#"
   xmlns:svg="http://www.w3.org/2000/svg"
   xmlns="http://www.w3.org/2000/svg"
   xmlns:sodipodi="http://sodipodi.sourceforge.net/DTD/sodipodi-0.dtd"
   xmlns:inkscape="http://www.inkscape.org/namespaces/inkscape"
   width="210mm"
   height="297mm"
   viewBox="0 0 744.09448819 1052.3622047"
   id="svg4979"
   version="1.1"
   inkscape:version="0.91 r"
   sodipodi:docname="red.svg"
   inkscape:export-filename="/home/timmy/ghp/wotw/flags/red-small.png"
   inkscape:export-xdpi="29.347826"
   inkscape:export-ydpi="29.347826">
  <defs
     id="defs4981" />
  <sodipodi:namedview
     id="base"
     pagecolor="#ffffff"
     bordercolor="#666666"
     borderopacity="1.0"
     inkscape:pageopacity="0.0"
     inkscape:pageshadow="2"
     inkscape:zoom="0.35"
     inkscape:cx="-587.85714"
     inkscape:cy="520"
     inkscape:document-units="px"
     inkscape:current-layer="layer1"
     showgrid="false"
     inkscape:window-width="1301"
     inkscape:window-height="744"
     inkscape:window-x="65"
     inkscape:window-y="24"
     inkscape:window-maximized="1" />
  <metadata
     id="metadata4984">
    <rdf:RDF>
      <cc:Work
         rdf:about="">
        <dc:format>image/svg+xml</dc:format>
        <dc:type
           rdf:resource="http://purl.org/dc/dcmitype/StillImage" />
        <dc:title></dc:title>
      </cc:Work>
    </rdf:RDF>
  </metadata>
  <g
     inkscape:label="Layer 1"
     inkscape:groupmode="layer"
     id="layer1">
    <rect
       style="opacity:1;fill:#782121;fill-opacity:1;stroke:#000000;stroke-width:0;stroke-linecap:round;stroke-linejoin:round;stroke-miterlimit:4;stroke-dasharray:none;stroke-opacity:1"
       id="rect5527"
       width="920"
       height="491.42856"
       x="-625.71429"
       y="175.21935" />
    <rect
       y="-560.93359"
       x="-625.71429"
       height="280"
       width="920"
       id="rect5529"
       style="opacity:1;fill:#ffaaaa;fill-opacity:1;stroke:#000000;stroke-width:0;stroke-linecap:round;stroke-linejoin:round;stroke-miterlimit:4;stroke-dasharray:none;stroke-opacity:1"
       transform="scale(1,-1)" />
    <path
       inkscape:connector-curvature="0"
       d="m -600.59144,291.20708 c 0.41979,-0.6219 0.79294,-1.25936 1.15054,-1.88126 -4.81975,0.41979 -5.00631,-3.71585 -3.65369,-7.16743 2.20776,-5.53492 6.12575,-4.089 9.56176,-7.78933 6.76319,-7.27623 21.30016,-3.87132 30.61314,-8.06917 -7.58722,0.32651 -2.67419,-1.81907 0,-3.34272 -1.58587,0.57525 -3.24945,1.08832 -4.91303,1.46147 -1.08832,-4.89748 15.48535,-17.56874 15.48535,-9.40627 2.50318,-1.46147 5.00633,-2.9696 7.52501,-4.49324 0.62192,5.53493 22.48179,3.03177 22.59059,12.45358 6.70103,-8.64444 26.21321,-1.94344 35.33961,-3.40491 7.96034,-1.25934 9.99709,-1.72577 18.31503,0.26432 8.83101,2.09891 17.7864,4.089 26.78842,5.59711 12.28259,2.09891 23.53902,0.9484 34.7799,-1.77243 7.10522,-1.72577 15.4698,-0.10881 21.70438,3.65368 8.53562,5.06852 7.22961,-1.99008 15.12777,-1.41483 6.94975,0.46643 13.69739,3.2339 20.49168,4.53988 4.13566,0.79294 16.37156,-3.0162 18.2062,-0.15546 1.99006,3.0784 14.27265,-0.68411 12.08043,6.8409 -0.46642,1.61696 -1.67912,3.51374 -0.27986,5.08406 3.2028,3.59148 2.36323,-0.99504 5.7526,-0.85512 10.72781,0.57526 19.40335,11.45854 29.3538,12.34475 2.25438,0.21761 4.66426,-1.30598 6.80983,-0.4664 2.76745,1.04168 4.33775,4.15118 7.38509,4.61761 8.41122,1.306 17.19559,0 25.669,1.24379 -0.41979,-2.87627 0.21761,-5.53492 1.88126,-7.89815 10.68117,5.395 25.9955,5.02188 27.08383,18.8281 5.97025,-0.73075 9.73277,-3.65369 15.48537,-0.3576 1.72577,0.9484 4.33777,4.13566 6.48332,3.40491 2.56534,-0.79291 5.13071,-3.45155 8.0692,-2.30102 5.58156,2.26993 10.4013,4.66426 16.10726,0.99502 4.7109,-3.07841 7.3229,-3.45153 12.60907,-1.36819 3.03177,1.21272 3.29607,5.06852 7.16741,4.50881 0,4.02681 -2.5187,2.82964 -4.7731,4.64871 -3.40489,2.67419 -0.0467,9.37519 -0.20213,12.87339 -0.41977,9.67056 -21.56446,16.62033 -28.73187,19.60546 -5.33281,2.20777 -6.74764,7.27626 -11.19424,9.37517 -5.395,2.56534 -12.8112,2.50316 -18.56378,3.91799 -13.96171,3.51376 -22.37293,9.5773 -33.62936,17.36663 8.75327,7.01194 0.41976,8.36458 -5.53495,11.76949 -8.73773,5.02186 -10.46349,17.11784 -19.04575,22.59059 -14.63025,9.37518 -19.80758,36.14807 -7.74269,48.95925 7.33845,7.78933 13.24654,10.18365 1.15053,17.72423 -6.99641,4.39996 -12.28256,6.219 -17.98852,12.45358 -3.34273,3.71587 -6.3745,9.37517 -8.73773,14.75462 -1.47702,3.34273 -3.14062,7.10525 -3.24945,10.86776 -0.0467,3.1406 5.06852,7.3229 1.99011,-0.15547 4.77308,7.89818 -14.69246,8.52008 -18.4705,8.93986 -9.09533,1.08833 -21.7044,9.37518 -23.89659,18.36165 -1.88128,7.6805 -8.31794,21.44008 -16.5737,14.75463 -5.02185,-4.089 -8.78437,1.41483 -13.02886,3.12507 -6.01689,2.5187 -12.60907,-1.24379 -19.04575,-0.21761 -13.38644,2.20776 -26.72625,0.68411 -40.37701,0.94842 -7.3229,0.17095 -8.93984,1.52364 -14.22599,6.49888 -6.0791,5.64375 -14.07054,3.34272 -21.06695,6.8409 -3.51375,1.72579 -6.9653,13.49528 -10.04373,13.18432 -3.91799,-0.35757 -2.87628,6.01692 -8.93982,5.9081 -4.86641,-0.15547 -8.52007,-8.52005 -13.18433,-8.00701 -5.06851,0.57528 -8.93986,-10.04371 -10.19919,-13.86841 6.76316,-1.15051 -1.61697,-6.0169 -3.5915,-7.52501 -4.77311,-3.65368 0.9484,-9.99709 5.4883,-11.30307 -2.82966,-0.9484 -4.27558,0.6219 -4.49326,3.4049 -2.45651,-2.61199 -22.54395,-16.2161 -18.09735,-20.35174 -6.90312,-0.79293 -0.10881,2.8763 -7.52501,3.07841 -3.34273,0.0621 -7.47839,1.306 -10.77446,0.10881 -4.64873,-1.66358 -4.49326,-13.65074 -3.80915,-17.52208 0.51307,-3.34273 3.18724,-5.90807 5.44164,-8.20911 2.82964,-2.8763 3.1406,-7.36954 5.59711,-9.77941 5.58156,-5.50383 7.94482,-1.25934 11.55184,-9.82606 -7.21405,2.34767 -13.02886,-7.16743 -13.18433,-13.24651 -0.3265,-9.37517 10.57235,-13.91505 13.18433,-22.18637 1.47702,-4.49324 -7.0586,-10.51014 -9.04869,-14.42812 -1.72576,-3.35828 -0.0467,-5.34836 -2.50315,-8.16248 -2.09891,-2.39432 -4.86639,-5.0063 -6.21901,-7.94479 4.81973,1.35264 9.82603,0.40424 14.63025,0.40424 5.08405,0 3.66922,-2.96958 5.45719,-6.12575 2.1922,-3.87134 9.04867,-11.87832 1.77243,-16.26273 -3.24945,-1.94345 4.95967,-5.34836 5.64375,-5.64378 3.34273,-1.58584 2.14556,-6.39002 2.03673,-9.31298 -0.10881,-2.20776 1.04168,-24.4874 -1.88124,-23.74113 5.23951,-1.30598 7.5872,-7.22959 12.76452,-10.19917 3.18726,-1.83462 15.64084,-10.09037 14.69246,-14.84793 -0.79293,-3.87134 -8.64445,-4.77308 -11.45856,-6.32786 -3.12505,-1.72576 3.40491,-8.16245 -1.35264,-9.62392 -3.40492,-1.04168 -21.81321,-2.96958 -22.18635,0.3576 -0.62192,6.43666 -11.14761,4.02679 -14.69246,2.56534 -5.6904,-2.30104 -11.33417,1.19715 -16.94682,2.28548 -8.83101,1.72579 -4.33775,-7.43173 -0.10881,-10.51014 -3.29606,0.46643 -4.71089,-1.36819 -4.13564,-4.49324 -3.24945,3.07841 -7.63386,3.18724 -11.7695,3.98017 -5.17734,0.94841 -8.20911,5.11514 -12.70235,7.3229 -4.13566,-10.77445 7.78931,-11.98717 10.51014,-20.35175 -1.99009,3.70032 -5.90807,4.86638 -9.77941,4.91302 0.79293,-4.29113 4.86638,-6.03244 8.31794,-7.9137 -3.46711,1.52366 -8.58224,1.88126 -8.31794,-3.38937 0.15546,-3.77806 6.12574,-5.23953 6.80983,-9.04866 -3.35828,3.12505 -8.6289,2.82964 -10.57233,7.52501 -3.76251,-5.45719 2.25438,-9.8416 6.0169,-12.81118 -3.84025,3.14059 -8.72218,3.98017 -10.23029,-1.77243"
       id="path5998"
       style="fill:#ff0000;fill-opacity:1;stroke:#ffffff;stroke-width:4.66426611;stroke-miterlimit:3.97000003;stroke-dasharray:none" />
  </g>
</svg>
