<?xml version="1.0" encoding="UTF-8" standalone="no"?>
<!-- Created with Inkscape (http://www.inkscape.org/) -->

<svg
   xmlns:dc="http://purl.org/dc/elements/1.1/"
   xmlns:cc="http://creativecommons.org/ns#"
   xmlns:rdf="http://www.w3.org/1999/02/22-rdf-syntax-ns#"
   xmlns:svg="http://www.w3.org/2000/svg"
   xmlns="http://www.w3.org/2000/svg"
   xmlns:sodipodi="http://sodipodi.sourceforge.net/DTD/sodipodi-0.dtd"
   xmlns:inkscape="http://www.inkscape.org/namespaces/inkscape"
   width="210mm"
   height="297mm"
   viewBox="0 0 744.09448819 1052.3622047"
   id="svg5569"
   version="1.1"
   inkscape:version="0.91 r"
   sodipodi:docname="yellow.svg"
   inkscape:export-filename="/home/timmy/ghp/wotw/flags/yellow-big.png"
   inkscape:export-xdpi="87.757317"
   inkscape:export-ydpi="87.757317">
  <defs
     id="defs5571" />
  <sodipodi:namedview
     id="base"
     pagecolor="#ffffff"
     bordercolor="#666666"
     borderopacity="1.0"
     inkscape:pageopacity="0.0"
     inkscape:pageshadow="2"
     inkscape:zoom="0.80240837"
     inkscape:cx="-149.94224"
     inkscape:cy="371.12904"
     inkscape:document-units="px"
     inkscape:current-layer="layer1"
     showgrid="false"
     inkscape:window-width="1301"
     inkscape:window-height="744"
     inkscape:window-x="65"
     inkscape:window-y="24"
     inkscape:window-maximized="1"
     showguides="true" />
  <metadata
     id="metadata5574">
    <rdf:RDF>
      <cc:Work
         rdf:about="">
        <dc:format>image/svg+xml</dc:format>
        <dc:type
           rdf:resource="http://purl.org/dc/dcmitype/StillImage" />
        <dc:title></dc:title>
      </cc:Work>
    </rdf:RDF>
  </metadata>
  <g
     inkscape:label="Layer 1"
     inkscape:groupmode="layer"
     id="layer1">
    <rect
       style="opacity:1;fill:#ffffff;fill-opacity:1;stroke:#000000;stroke-width:3;stroke-linecap:round;stroke-linejoin:miter;stroke-miterlimit:4;stroke-dasharray:none;stroke-opacity:1"
       id="rect5527"
       width="920"
       height="491.42856"
       x="-585.71429"
       y="358.07651" />
    <g
       transform="matrix(4.7735229,0,0,4.7735229,-3968.8127,-1147.2487)"
       id="au"
       style="fill:#ffff00;stroke-width:0.30000001;stroke-miterlimit:3.97000003;stroke-dasharray:none">
      <path
         inkscape:connector-curvature="0"
         d="m 840.332,341.646 c 0.322,-0.195 0.055,-0.509 -0.023,-0.751 -0.28,0.216 -0.145,0.519 0.023,0.751"
         id="path3366"
         style="fill:#ffff00;stroke:#ffffff;stroke-width:0.30000001;stroke-miterlimit:3.97000003;stroke-dasharray:none" />
      <path
         inkscape:connector-curvature="0"
         d="m 846,347.002 c 0.229,-0.095 0.213,-0.337 0.098,-0.512 -0.034,0.168 -0.063,0.34 -0.098,0.512"
         id="path3368"
         style="fill:#ffff00;stroke:#ffffff;stroke-width:0.30000001;stroke-miterlimit:3.97000003;stroke-dasharray:none" />
      <path
         inkscape:connector-curvature="0"
         d="m 808.625,320.843 c 0.166,-0.323 0.119,-0.67 0,-0.996 -0.262,0.356 -0.108,0.619 0,0.996"
         id="path3294"
         style="fill:#ffff00;stroke:#ffffff;stroke-width:0.30000001;stroke-miterlimit:3.97000003;stroke-dasharray:none" />
      <path
         inkscape:connector-curvature="0"
         d="m 810.539,321.784 c 0.051,-0.05 0.102,-0.097 0.148,-0.145 -0.137,-0.097 -0.184,-0.049 -0.148,0.145"
         id="path3298"
         style="fill:#ffff00;stroke:#ffffff;stroke-width:0.30000001;stroke-miterlimit:3.97000003;stroke-dasharray:none" />
      <path
         inkscape:connector-curvature="0"
         d="m 817.564,322.996 c 0.094,-0.108 0.191,-0.212 0.293,-0.313 -0.189,0.006 -0.301,0.121 -0.293,0.313"
         id="path3310"
         style="fill:#ffff00;stroke:#ffffff;stroke-width:0.30000001;stroke-miterlimit:3.97000003;stroke-dasharray:none" />
      <path
         inkscape:connector-curvature="0"
         d="m 817.662,321.835 c 0.27,-0.104 0.523,-0.259 0.68,-0.508 -0.186,0.236 -0.536,0.222 -0.68,0.508"
         id="path3312"
         style="fill:#ffff00;stroke:#ffffff;stroke-width:0.30000001;stroke-miterlimit:3.97000003;stroke-dasharray:none" />
      <path
         inkscape:connector-curvature="0"
         d="m 818.556,321.155 c 0.41,-0.235 0.727,-0.74 0.754,-1.211 -0.082,0.475 -0.512,0.818 -0.754,1.211"
         id="path3318"
         style="fill:#ffff00;stroke:#ffffff;stroke-width:0.30000001;stroke-miterlimit:3.97000003;stroke-dasharray:none" />
      <path
         inkscape:connector-curvature="0"
         d="m 803.082,322.27 c 0.131,-0.018 0.252,-0.058 0.363,-0.121 -0.068,-0.253 -0.387,-0.286 -0.387,-0.563 -0.045,-0.11 -0.102,-0.212 -0.172,-0.31 0.02,-0.171 0.01,-0.34 -0.023,-0.508 -0.373,0.138 -0.438,0.384 -0.471,0.75 -0.027,0.272 -0.447,0.441 -0.303,0.727 0.36,-0.091 0.643,-0.124 0.993,0.025"
         id="path3288"
         style="fill:#ffff00;stroke:#ffffff;stroke-width:0.30000001;stroke-miterlimit:3.97000003;stroke-dasharray:none" />
      <path
         inkscape:connector-curvature="0"
         d="m 805.117,320.964 c -0.074,-0.326 -0.438,-0.333 -0.512,0 -0.246,-0.33 -0.611,0.014 -0.928,-0.081 -0.135,-0.037 -0.545,-0.548 -0.643,-0.245 -0.186,0.571 0.551,1.984 1.264,1.823 0.408,-0.091 1.225,-0.626 1.357,-1.046 0.053,-0.182 0.379,-0.747 -0.105,-0.842 -0.339,-0.067 -0.656,-0.04 -0.433,0.391"
         id="path3290"
         style="fill:#ffff00;stroke:#ffffff;stroke-width:0.30000001;stroke-miterlimit:3.97000003;stroke-dasharray:none" />
      <path
         inkscape:connector-curvature="0"
         d="m 821.681,405.906 c 0.125,-0.07 0.223,-0.168 0.293,-0.289 -0.191,-0.011 -0.299,0.098 -0.293,0.289"
         id="path3334"
         style="fill:#ffff00;stroke:#ffffff;stroke-width:0.30000001;stroke-miterlimit:3.97000003;stroke-dasharray:none" />
      <path
         inkscape:connector-curvature="0"
         d="m 822.216,405.641 c 0.139,-0.023 0.564,-0.394 0.283,-0.508 -0.242,-0.095 -0.879,0.033 -0.795,0.387 0.202,-0.082 0.372,-0.041 0.512,0.121"
         id="path3336"
         style="fill:#ffff00;stroke:#ffffff;stroke-width:0.30000001;stroke-miterlimit:3.97000003;stroke-dasharray:none" />
      <path
         inkscape:connector-curvature="0"
         d="m 802.765,392.804 c 0.26,-0.071 0.451,-0.263 0.666,-0.414 0.34,-0.239 0.518,-0.077 0.879,-0.102 0.295,-0.02 0.537,-0.369 0.104,-0.43 -0.057,0.02 -0.098,0.057 -0.121,0.114 -0.168,0.134 -0.479,-0.118 -0.652,-0.114 0.633,-0.6 -1.959,-0.115 -2.076,-0.081 -0.252,0.07 -0.975,0.481 -0.588,0.831 0.509,0.461 1.298,-0.356 1.788,0.196"
         id="path3286"
         style="fill:#ffff00;stroke:#ffffff;stroke-width:0.30000001;stroke-miterlimit:3.97000003;stroke-dasharray:none" />
      <path
         inkscape:connector-curvature="0"
         d="m 815.748,412.204 c 0.02,0.262 0.197,0.564 -0.145,0.703 0.424,0.101 0.316,-0.411 0.621,-0.505 0.404,-0.121 0.623,0.451 0.203,0.603 0.104,-0.539 -0.385,-0.091 -0.357,0.175 0.033,0.313 0.299,0.262 0.432,0.04 -0.119,0.68 0.582,-0.494 0.676,-0.652 -0.438,-0.044 -0.125,-0.259 0.063,-0.484 0.236,-0.279 0.512,-0.515 0.754,-0.784 0.195,-0.222 0.316,-0.505 0.553,-0.693 0.201,-0.161 0.568,-0.346 0.619,-0.629 0.121,0.253 0.047,0.542 -0.125,0.751 0.369,-0.142 0.443,-0.582 0.582,-0.898 0.199,-0.451 0.527,-0.842 0.783,-1.259 0.344,-0.562 1.299,-1.521 0.688,-2.079 -0.311,-0.278 -0.408,0.313 -0.738,0.249 -0.443,-0.084 -0.639,0.121 -1.012,0.31 -0.172,0.088 -2.045,-0.198 -1.537,0.505 -0.266,0.088 -0.348,0.007 -0.242,-0.245 -0.629,-0.034 -1.225,0.501 -1.814,0.03 -0.211,-0.169 -1.268,-0.673 -1.139,-0.949 -0.367,0.168 -1.051,0.158 -1.188,-0.316 -0.674,0.677 -0.879,1.359 -1.178,2.228 -0.232,0.689 0.439,1.746 -0.275,2.254 0.086,-0.054 0.174,-0.104 0.266,-0.145 -0.023,0.35 0.193,0.764 -0.193,0.992 0.084,-0.256 0.018,-0.519 -0.145,-0.727 -0.838,0.82 -0.377,1.991 -0.434,2.957 0.252,-0.148 0.484,0.101 0.748,0.023 0.141,0.36 -0.301,0.454 -0.482,0.195 -0.094,0.165 -0.186,0.336 -0.266,0.508 0.35,-0.064 0.977,0.191 1.258,-0.098 0.037,0.952 0.98,-0.037 1.172,-0.191 0.295,-0.242 0.355,-0.363 0.424,-0.687 0.057,-0.256 0.35,-0.03 0.271,0.198 0.481,0.057 1.153,-0.963 1.157,-1.38"
         id="path3300"
         style="fill:#ffff00;stroke:#ffffff;stroke-width:0.30000001;stroke-miterlimit:3.97000003;stroke-dasharray:none" />
      <path
         inkscape:connector-curvature="0"
         d="m 812.502,404.188 c -0.068,0.117 -0.133,0.238 -0.193,0.363 0.559,-0.034 1.205,-0.774 1.205,-1.343 0,-0.471 -0.404,0.034 -0.467,0.084 -0.247,0.195 -0.567,0.552 -0.545,0.896"
         id="path3306"
         style="fill:#ffff00;stroke:#ffffff;stroke-width:0.30000001;stroke-miterlimit:3.97000003;stroke-dasharray:none" />
      <path
         inkscape:connector-curvature="0"
         d="m 822.021,404.188 c -0.018,0.147 -0.168,0.76 0.111,0.767 0.574,0.021 0.578,-0.571 0.881,-0.864 -0.33,-0.054 -0.344,-0.438 -0.555,-0.629 -0.273,0.16 -0.32,0.46 -0.437,0.726"
         id="path3338"
         style="fill:#ffff00;stroke:#ffffff;stroke-width:0.30000001;stroke-miterlimit:3.97000003;stroke-dasharray:none" />
      <path
         inkscape:connector-curvature="0"
         d="m 751.65421,385.82864 c 0.65,-0.003 1.32791,-0.71779 1.59309,-1.25813 0.30606,-0.6171 -0.0608,-1.52231 0.58022,-1.9779 -0.14954,0.12062 -0.2293,0.31203 -0.19042,0.50644 0.008,-0.1974 0.12063,-0.28812 0.31204,-0.24126 -0.15951,-0.53336 0.26319,-1.01288 0.43466,-1.45253 0.37186,-0.95905 0.20437,-1.76058 0.0389,-2.73956 -0.14754,-0.9092 -0.48849,-1.90813 -0.23328,-2.83029 0.24126,-0.8763 0.65997,-2.09654 0.51641,-3.00275 -0.0608,-0.37186 -0.26518,-0.71081 -0.27814,-1.09363 -0.014,-0.39878 0,-0.75069 -0.15353,-1.13052 -0.14455,-0.36189 -0.48251,-0.68689 -0.50445,-1.08965 -0.0199,-0.45958 0.19839,-0.89524 0.21833,-1.35483 0.0369,-0.88926 -0.24325,-1.82039 -0.72676,-2.5651 -0.20238,-0.31204 -0.44762,-0.64401 -0.5194,-1.01687 -0.0678,-0.34194 0.2283,-0.50943 0.1964,-0.82446 0.0817,0.24126 0.004,0.48551 -0.0508,0.72477 0.19241,-0.20437 0.26319,-0.47653 0.26917,-0.7477 -0.0468,0.33896 0.15752,0.64701 0.0937,0.98896 0.12063,-0.65698 0.0778,0.37584 0.0509,0.50644 0.33895,-0.54632 0.15751,0.017 0.19041,0.24125 0.64103,-0.34593 0.94011,-0.64999 0.40675,-1.27108 -0.36587,-0.4227 -0.63106,-1.45552 -0.16549,-1.89018 0.22231,0.1934 0.37385,0.5194 0.43964,0.80153 0.0917,0.37883 -0.24524,0.64103 -0.21832,1.00989 0.30605,0.017 0.45958,-0.27116 0.50644,-0.52937 0.0508,0.38183 -0.0758,0.81449 0.1306,1.16641 0.11863,0.19839 0.4536,-0.12362 0.49447,-0.22132 0.28014,-0.64102 0.50844,-1.21426 0.16749,-1.86127 -0.28812,-0.5503 -0.26519,-1.18634 -0.63106,-1.6868 -0.14256,-0.19042 -0.0638,-0.34893 -0.0638,-0.56227 0,-0.46657 -0.23328,-0.88627 -0.2941,-1.34187 -0.0977,-0.71779 0.327,-1.54325 0.72676,-2.11349 0.46756,-0.66396 0.79655,-1.15345 0.97002,-1.97791 0.0778,-0.37884 -0.1944,-0.67094 -0.1944,-1.03581 0,-0.38681 0.33297,-0.69785 0.49248,-1.02285 0.23528,-0.48252 0.44962,-1.30498 1.02983,-1.48942 0.0638,0.29609 -0.0698,0.56726 -0.17347,0.83543 -0.14455,0.37285 -0.0489,0.78458 -0.14256,1.1704 0.78857,-0.27117 0.80253,-0.6839 1.18236,-1.32791 0.39179,-0.66396 1.04578,-0.95506 1.75061,-1.18037 0.99095,-0.31503 1.69977,-0.99992 2.49831,-1.64693 0.20437,-0.16748 0.44961,-0.60613 0.71081,-0.64102 0.58619,-0.0728 1.04578,-0.30507 1.43857,-0.76166 -0.10468,0.66396 0.60912,0.0778 0.87829,0.11465 0.25522,0.0329 0.3579,0.29808 0.64801,0.29808 0.36787,0 0.7128,-0.12761 1.02783,-0.31204 0.67792,-0.39877 1.00292,-0.85537 1.84233,-0.85138 0.34295,0 0.7148,-0.007 0.98896,-0.23826 0.31503,-0.26519 0.43266,-0.74072 0.91917,-0.74072 0.73772,0 1.18933,0.12362 1.92806,-0.0698 0.84938,-0.2253 1.624,-0.42668 2.4026,-0.84639 0.62707,-0.33497 2.94394,-1.73366 2.47638,-2.78343 0.26717,0.0269 0.33696,-0.10667 0.40276,-0.32799 0.10467,-0.34295 0.42269,-0.45959 0.70483,-0.63804 0.40874,-0.25521 1.32392,-0.65996 0.89723,-1.17438 -0.36188,-0.43566 -0.13259,-1.66687 0.10468,-2.11549 0.13459,-0.2582 0.7806,-1.22522 1.14647,-0.79156 -0.2283,-0.44961 0.11265,-0.39877 0.40276,-0.55429 0.35391,-0.18743 0.36787,-0.88229 0.85437,-1.11258 0.20437,0.27117 -0.43666,0.88927 0.21833,0.86833 -0.4556,0.63704 0.80053,1.89815 0.72477,2.58604 0.37584,-0.48651 0.0528,-1.2671 0.36188,-1.74064 0.27416,0.13757 0.3898,0.43665 0.58021,0.65398 -0.0369,-0.42668 -0.10168,-0.73075 0.31204,-0.99294 -0.325,0.11066 -1.00291,-0.54034 -0.72476,-0.8454 -0.19042,-0.007 -0.29609,-0.12063 -0.28812,-0.31204 0.35391,0.27815 0.12661,-0.0668 0.44164,-0.12461 0.38382,-0.0738 -0.0269,-0.49946 -0.10368,-0.65 0.33497,-0.21135 0.94808,0.0399 0.43267,0.14655 0.19041,0.0708 0.31503,0.2253 0.21833,0.43366 0.22431,-0.0608 0.26119,-0.37584 0.48251,-0.39877 0.29609,-0.0269 0.30207,0.17147 0.4865,0.32201 0.2283,0.18443 0.36388,-0.15054 0.60514,-0.007 0.27615,0.16051 0.58819,-0.0439 0.86234,0.1306 -0.23128,-0.28811 -0.44961,-0.13758 -0.74769,-0.24126 -0.41273,-0.14455 -0.10667,-0.44961 -0.0738,-0.7477 0.0548,0.0808 0.11066,0.16051 0.17148,0.24126 0.34493,-0.23428 0.19041,-0.75866 0.60314,-0.93911 -0.20836,-0.0797 -0.35591,0.0509 -0.41273,0.24126 -0.29409,-0.31403 -0.50644,-0.976 -0.004,-1.21027 0.2293,-0.10668 0.93313,-0.32201 0.56127,-0.67493 0.26519,0.014 0.45959,0.20138 0.66396,0.34295 0.0608,0.0937 0.12063,0.18742 0.18144,0.28512 0.1286,0.0329 0.2592,0.0658 0.38581,0.0967 -0.37185,-0.22132 -0.0937,-0.64601 -0.65,-0.65299 0.10169,-0.17446 0.24525,-0.29509 0.43267,-0.36188 -0.18144,0.0369 -0.34095,0.11664 -0.48251,0.24125 -0.0199,-0.32499 0.77062,-0.95306 0.72477,-0.40973 0.0269,-0.54931 0.40674,0.14555 0.74769,0.0738 -0.12661,-0.2283 -0.41073,-0.46656 -0.21434,-0.7477 -0.72776,-0.0399 0.12861,-0.68489 0.16749,-0.9421 0.27814,0.29509 0.37584,-0.21135 0.67791,-0.0229 0.0817,-0.27814 0.0568,-0.56625 0.0937,-0.84938 0.36189,0.0738 0.21634,0.73773 0,1.0398 0.45361,-0.51641 0.25522,-0.55031 0.65399,0.0508 0.01,-0.26219 0.29609,-0.25123 0.33895,-0.48251 0.0269,-0.14157 0.13459,-0.51043 0.19042,-0.63106 0.0957,-0.1944 0.44363,-0.18144 0.24524,-0.46955 -0.0658,-0.0608 -0.14455,-0.0738 -0.23128,-0.0439 -0.0838,0.004 -0.327,-0.46955 0.13059,-0.11365 -0.10368,-0.2921 0.42669,-0.51342 0.0977,-0.0469 0.53735,-0.4865 -0.12262,0.64103 0.50844,0.48252 -0.12861,-0.29509 0.15552,-0.5533 0.43466,-0.55729 -0.15951,0.21833 0.014,0.41572 0.14455,0.58022 0.23129,-0.25821 0.70882,-0.36189 0.84739,-0.70084 0.10867,-0.26519 -0.31901,-0.38582 0.16948,-0.59019 0.27615,-0.11365 0.40675,0.58321 0.84341,0.59716 0.37185,0.01 0.41472,0.1974 0.66993,0.46956 0.32899,0.34294 0.50644,0.79555 0.82945,1.14348 0.1944,0.20736 0.48451,0.46257 0.45958,0.78159 -0.0309,0.34893 -0.24125,0.66396 -0.30007,1.01288 -0.0568,0.32799 -0.0608,0.8115 -0.32899,1.05376 0.30606,-0.15054 0.0977,-0.5194 0.31304,-0.67792 0.2921,-0.21134 0.37783,0.24824 0.41273,0.43666 0.13657,-0.33896 -0.27615,-0.66096 -0.12063,-0.98995 0.1924,-0.40176 0.40475,0.0269 0.70084,-0.0977 -0.28612,-1.15943 2.0118,-0.75069 1.76058,0.38681 0.39179,-0.15054 0.23328,-0.60713 0.24125,-0.91618 0.53934,0.0469 0.7148,1.11656 1.16043,1.01288 -0.10169,-0.25422 -0.37185,-0.72477 -0.0548,-0.95207 0.21833,-0.15751 0.51641,-0.0259 0.73175,-0.23129 -0.4227,0.0578 -0.67792,-0.0698 -0.81948,-0.48251 0.18842,-0.01 0.3559,-0.0728 0.50644,-0.19041 -0.37385,0.11365 -1.20928,-0.18144 -0.90521,-0.69387 0.12461,-0.20836 0.18144,-0.5194 0.37385,-0.68489 0.16349,-0.14455 0.53535,-0.0439 0.62707,-0.28512 0.14455,-0.39478 0.21434,-0.88228 0.40874,-1.24716 0.18543,-0.33896 0.33098,0.0399 0.57024,-0.15054 0.15353,-0.12461 0.54333,-0.56625 0.76166,-0.43865 -0.20238,-0.20835 -0.44962,-0.58719 -0.3898,-0.89524 0.0977,-0.51741 0.30605,-0.10368 0.53335,-0.47653 0.15353,-0.24824 0.0897,-0.49647 0.38582,-0.66794 0.21434,-0.12362 0.35291,0.23427 0.60314,0.17845 -0.26518,-0.10369 -0.34893,-0.83543 -0.0469,-0.93911 0.31503,-0.10967 0.53336,0.63105 0.82147,0.69785 -0.31004,-0.2283 -0.35989,-1.06273 0.21434,-0.79555 0.0698,-0.20437 -0.0798,-0.45261 0.17746,-0.5533 0.26518,-0.10667 0.3579,0.27815 0.52339,-0.12362 0.39877,0.92914 2.8233,-0.0339 2.87415,0.52937 -0.004,-0.39877 0.41671,-0.68688 0.77062,-0.45659 -0.37584,-0.39479 0.0548,-0.99593 -0.0468,-1.44854 -0.15752,-0.68988 -0.82147,-0.59018 -1.32791,-0.36189 0.014,-0.32799 -0.39878,-0.47653 -0.5842,-0.62707 -0.11665,-0.0977 0.40275,-0.4197 0.43964,-0.51042 0.23727,0.18742 0.28811,0.47952 0.36189,0.75168 0.14954,-0.2283 0.18144,-0.50644 0.0468,-0.75168 0.14057,0.28213 0.32101,0.30207 0.48252,0.0229 0.0837,0.36188 0.64102,0.78159 0.84539,1.11357 0.15154,-0.19441 0.6171,-0.21833 0.48252,-0.55729 0.30606,0.21534 0.43267,1.14647 0.79854,1.14348 0.32101,-0.004 0.76165,-0.0439 0.72477,0.32899 0.3579,0.013 0.62109,-0.43666 0.98895,-0.31204 -0.62707,0.46656 0.7786,0.36188 0.58022,1.01388 0.23527,-0.43666 0.2921,-0.12462 0.62108,-0.0608 0.37585,0.0698 0.58022,-0.2253 0.92515,-0.27814 0.0838,0.76764 0.82546,0.65997 1.32792,0.82147 -0.38582,-0.60713 1.28903,-0.31204 0.7457,-0.82147 0.31204,-0.0778 0.80053,-0.15751 0.79854,-0.57722 0.22431,0.30905 -0.20437,0.5174 -0.41073,0.65 0.45958,0 0.10467,0.15053 -0.0658,0.34294 -0.1615,0.18443 -0.21833,0.37883 -0.0778,0.60015 0.16549,-0.23428 0.38382,-0.50644 0.70084,-0.50943 -0.32101,0.33896 0.0778,0.14655 0.0638,0.53635 -0.004,0.12063 0.014,0.30207 0.15752,0.34195 0.30606,0.0877 0.61112,-0.34195 0.71878,-0.56227 -0.86832,-0.014 0.51641,-0.87929 0.67792,-1.03681 -0.42071,0.21833 -0.0877,0.99593 0.26518,1.10958 -0.22231,-0.39478 0.25521,-0.32799 0.37784,-0.1605 0.10467,0.14156 0.01,0.36188 -0.0528,0.49647 -0.2263,0.47653 -0.67592,1.13351 -1.1704,1.3309 0.15353,0.14555 0.27416,0.31204 0.36189,0.50744 -0.0877,-0.0638 -0.17546,-0.12063 -0.26518,-0.17147 -0.0877,0.37584 -0.11465,0.71779 -0.50844,0.89524 -0.006,-0.1615 0,-0.32201 0.0249,-0.48251 -0.18542,0.10966 -0.34693,0.24823 -0.48251,0.40874 -0.0309,-0.58022 -0.38781,-0.0169 -0.38781,0.1944 -0.0718,-0.52339 -0.61311,0.10368 -0.28811,0.40874 -0.72477,-0.13758 -0.20437,1.24417 0.19042,0.58021 -0.3579,0.7477 -0.70683,1.41864 -1.18535,2.09256 -0.20438,0.28911 -0.41273,0.58719 -0.67194,0.82845 -0.29808,0.27814 -0.46157,0.17446 -0.21434,0.66096 0.33497,0.66097 1.10959,0.88927 1.54226,1.45851 0.25521,0.33597 0.42269,0.64402 0.78458,0.8763 0.25521,0.16051 0.50445,0.36189 0.39678,0.69985 0.27415,-0.10667 0.55728,0.12163 0.74969,-0.1934 0.26718,0.41173 0.72277,0.6171 1.1375,0.84539 0.52937,0.29111 0.77062,0.70084 1.1355,1.16043 0.62707,0.79455 1.54225,0.51342 2.31288,1.06572 0.40874,0.29509 0.10169,0.90222 0.47354,1.2003 0.20437,0.16848 0.47554,0.15453 0.66994,0.34992 0.20237,0.20737 0.44563,0.34195 0.67791,0.50644 0.7148,0.50944 2.27001,0.0199 2.69271,-0.7447 0.60713,-1.10061 1.38872,-2.18926 1.83435,-3.37062 0.25521,-0.68091 0.44762,-1.38175 0.70084,-2.06265 0.26917,-0.72477 0.58022,-1.27408 0.52738,-2.06863 -0.0409,-0.62408 0,-0.99992 0.22431,-1.56618 0.2263,-0.56925 -0.2941,-1.07668 0.004,-1.70375 0.24524,-0.50944 0.74171,-0.91519 0.58619,-1.51633 -0.17745,-0.68988 0.41074,-0.72477 0.54732,-1.29402 0.14455,0.13758 0.21832,0.30506 0.21832,0.50644 -0.006,-0.1944 0.11465,-0.33896 0.28812,-0.40974 -0.0977,-0.013 -0.60315,-0.56227 -0.65399,-0.67691 -0.0797,0.0698 -0.15951,0.14455 -0.23727,0.21832 -0.0568,-0.27515 0.13459,-0.647 0.31503,-0.83941 0.0658,-0.0837 0.15353,-0.12362 0.2612,-0.12761 -0.13459,-0.26518 0.0269,-0.52538 0.1944,-0.72477 0.0548,0.18743 0.18842,0.28213 0.38581,0.24126 -0.0369,-1.01288 0.57822,-1.77653 0.70084,-2.75352 0.0369,-0.31503 0.0369,-0.52638 0.38382,-0.66396 0.325,-0.13458 0.48251,-0.70782 0.89524,-0.42269 -0.12063,0.15751 -0.2263,0.32898 -0.31303,0.50644 0.0837,-0.0538 0.17147,-0.10069 0.26518,-0.14456 0.10169,0.30905 0.40675,0.45261 0.35092,0.80153 -0.0269,0.14157 -0.014,0.27815 0.0429,0.41273 0.0977,0.31503 -0.0548,0.31503 -0.0548,0.59417 0,0.29808 -0.0628,0.60614 -0.01,0.90522 0.0638,0.38282 0.66395,0.33895 0.92914,0.47653 -0.48252,0.35491 -0.63704,0.72776 -0.25721,1.15046 0.40076,0.44562 0.33497,0.82147 0.20636,1.38473 0.53735,-0.10368 0.26917,2.16334 0.15552,2.43451 -0.14256,0.33197 0.0608,0.58021 0.15951,0.88926 0.12063,0.35889 -0.0658,0.74171 0.0977,1.09363 0.28612,0.62707 1.0727,0.23428 1.15843,-0.31503 0.48451,0.61012 0.72079,-0.78458 0.9421,0.53037 0.0489,0.30207 0.66994,0.66694 0.87032,0.95206 0.0269,0.0369 0.73175,0.49249 0.79655,0.49947 -0.15751,0.25222 -0.62109,0.73773 -0.12063,0.91618 -0.66395,0.80452 0.13658,1.68281 -0.17546,2.55812 -0.19041,0.54033 -0.29808,0.81449 -0.0179,1.30897 0.14256,0.24724 0.56625,0.72477 0.38382,1.03581 0.14754,-0.12362 0.31503,-0.19739 0.51042,-0.21833 -0.13259,0.51043 -0.21234,0.7148 -0.0778,1.24816 0.10169,0.39478 0.0977,0.8105 0.0369,1.21725 -0.0678,0.44563 -0.30207,0.73374 -0.47753,1.13351 -0.21434,0.47952 0.33298,0.58719 0.29609,0.973 -0.0269,0.30606 0.39877,0.0738 0.26518,0.45959 -0.11664,0.33895 -0.47852,0.60314 -0.26917,0.98995 0.12063,0.22431 0.52738,0.70682 0.82147,0.6809 0.27416,-0.0269 0.51442,0.65399 0.80253,0.11066 -0.0329,0.63405 0.99892,0.73374 0.89524,0.31204 0.1635,0.35491 0.0628,1.33489 0.52937,1.47546 0.006,-0.18742 0.12063,-0.30606 0.31204,-0.31503 -0.14455,0.49946 0.40874,0.53635 0.75767,0.66694 0.28811,0.10369 -0.0508,0.72776 0.51043,0.56128 0.12063,-0.0369 0.0269,-0.24824 0.14057,-0.29609 0.24524,-0.10069 0.21832,0.28213 0.24125,0.38681 0.0588,0.22132 0.31005,0.0977 0.41074,0.29808 0.11265,0.22531 0.0997,0.49647 0.21035,0.72477 -0.12661,-0.25123 -0.46357,-0.29509 -0.58619,-0.014 -0.15553,0.3559 0.31702,0.74172 0.0797,1.07669 1.30897,-0.46956 0.3559,1.87522 1.25414,1.85827 -0.30805,0.3579 -0.2941,0.93512 -0.25522,1.37776 0.0369,0.37285 0.39678,1.01687 0.11066,1.35184 0.47355,-0.1944 0.53735,-0.0509 0.75169,0.36188 0.21434,-0.42967 -0.0429,-0.90521 0.28811,-1.30498 0.39379,0.35192 0.59018,0.88926 1.06273,1.16043 0.0678,-0.13459 0.01,-0.40276 0.12063,-0.50644 0.20836,-0.19839 0.36986,-0.0479 0.3898,0.18742 0.0568,0.62807 -0.01,1.01986 -0.21434,1.60606 -0.12063,0.34992 -0.0229,0.70483 -0.13858,1.06671 -0.22829,0.72477 0.27217,0.25821 0.49249,0.71081 -0.0658,-0.17446 -0.0429,-0.33497 0.0738,-0.48251 0.53336,0.17147 0.49647,1.4595 -0.0269,0.58021 0.0588,0.38581 1.16043,1.66388 1.16043,0.98896 0.54731,0.44263 0.41672,1.09064 0.70084,1.66686 0.13459,0.27117 0.42669,0.32899 0.60314,0.55729 0.20438,0.26917 0.0678,0.59118 0.11465,0.89524 0.10169,0.66794 0.76564,0.41273 0.6839,1.05974 -0.0329,0.24425 -0.26918,0.41173 -0.31703,0.65299 -0.0638,0.325 0.25123,0.51342 0.0997,0.89325 0.0738,-0.0877 0.15552,-0.16848 0.24125,-0.24126 0.36588,0.30207 -0.21434,0.71081 -0.31503,0.98895 -0.18144,0.49947 -0.33895,1.10261 -0.42469,1.62999 -0.0678,0.39478 0.0369,0.75168 -0.30207,1.01886 -0.36587,0.2921 -0.33896,0.56625 -0.0818,0.92914 0.17546,0.24125 0.13858,0.92315 0.0738,1.21426 -0.0389,0.1944 -0.12062,0.39877 -0.11265,0.60414 0.01,0.22132 0.17746,0.35191 0.12262,0.59317 -0.26518,1.15744 -0.80452,1.89517 -1.46847,2.85023 -0.71879,1.02982 -1.10959,2.2072 -1.90215,3.20712 -0.66395,0.84141 -0.71081,1.8503 -1.36081,2.68573 -0.31901,0.40874 -0.5842,0.86135 -0.91917,1.25115 -0.33098,0.38581 -0.85437,0.59018 -1.11955,1.03581 -0.16748,0.28512 -0.24923,0.8115 -0.47354,1.04378 -0.13857,0.13758 -0.36986,0.12661 -0.52339,0.23428 -0.28412,0.20039 -0.56626,0.50246 -0.92515,0.56028 0.62308,0.0608 -0.3898,0.30207 -0.5513,0.35291 -0.42868,0.13359 -0.8135,0.52538 -1.08865,0.86434 -0.1944,0.24126 -0.52738,0.33896 -0.72776,0.57722 -0.28213,0.33198 -0.21434,0.68489 -0.79455,0.62009 -0.0449,0.21833 0.0139,0.28812 0.16748,0.21833 -0.18144,0.2582 -0.323,0.55728 -0.50445,0.8115 -0.14056,0.20038 -0.35391,0.13459 -0.49846,0.37584 -0.30008,0.4895 -0.8763,0.65 -1.1375,1.17738 -0.13458,0.26518 -0.0877,0.18144 -0.30207,0.2253 -0.008,0 -0.14455,0.46557 -0.21434,0.54632 -0.12461,0.13459 -0.83543,0.76166 -0.43466,0.91917 -0.12063,0.19042 -0.27416,0.40874 -0.31304,0 -0.17147,0.15353 -0.0977,0.47653 -0.35989,0.51342 -0.32101,0.0469 -0.4865,0.14456 -0.70682,0.39479 -0.56127,0.63404 -1.17439,1.24416 -1.6878,1.91909 -0.43766,0.57622 -0.7477,1.26709 -1.19333,1.84831 -0.25521,0.33197 -0.75368,1.22722 -1.12354,1.38872 0.34893,0.0768 0.0269,0.60613 -0.0698,0.75767 -0.0877,0.13857 -0.18742,0.27515 -0.31203,0.3898 -0.18842,0.17446 -0.38582,0.0229 -0.57025,0.11763 -0.56127,0.29111 -0.83941,0.65299 -1.55023,0.73673 -0.75367,0.0907 -1.51533,0.0179 -2.27001,0.0907 -1.52829,0.14754 -2.80436,1.07369 -4.0266,1.92208 -0.55728,0.38581 -1.14148,0.57722 -1.82239,0.63404 -0.66395,0.0548 -0.48849,-0.0728 -0.60513,0.56726 0.14555,-0.12462 0.31503,-0.21534 0.50644,-0.26618 -0.0877,0.32599 -0.38581,0.77162 -0.69885,0.91618 -0.016,-0.21534 0.0638,-0.56028 -0.0837,-0.74072 -0.2283,-0.28512 -0.36787,0.0299 -0.64302,0.0429 0.0658,-0.24425 0.0389,-0.49947 0.0738,-0.75069 -0.31303,0.0668 -0.53136,0.23727 -0.58819,-0.17148 -0.0608,-0.44263 0.325,-0.4526 0.46956,-0.81449 0.20836,-0.5194 -0.98098,0.23727 -1.0418,0.28812 -0.4865,0.41572 -0.6819,0.25222 -0.9401,-0.21833 0.325,0.36188 0.73175,-0.0469 0.98895,-0.26519 0.42071,-0.35789 0.21833,-0.59018 0.24126,-1.06272 -0.63305,0.10667 -1.19532,0.5503 -1.73665,0.86832 0.24524,0.0808 0.50046,-0.0498 0.72477,0.12063 -0.22032,0.31503 -0.67792,0.22531 -0.99295,0.33896 -0.45559,0.16449 -0.972,0.43366 -1.35084,0.73474 -0.38182,0.30207 -0.78059,0.45559 -1.20927,0.67392 -0.35292,0.17845 -0.4227,-0.12063 -0.79655,-0.30905 -0.64103,-0.325 -1.04578,-1.02185 -1.80743,-0.91917 -0.4227,0.0608 -0.60913,-0.42569 -1.04379,-0.34194 -0.24126,0.0469 -0.29808,0.22131 -0.49847,0.31503 -0.14754,0.0698 -0.35291,-0.018 -0.51042,0.013 0.64999,-0.7477 -1.27109,-0.93513 -1.49939,-1.26112 -0.23128,-0.325 -0.34892,-0.76166 -0.34892,-1.15644 0,-0.24824 -0.37983,-0.40575 -0.31902,-0.85537 0.11066,-0.78757 0.83942,-1.15644 1.0069,-1.86725 0.26917,-1.14148 -0.14456,-2.1095 -0.8454,-2.99577 0.60315,0.40974 0.91518,1.15046 0.96603,1.85828 0.10667,-0.47953 -0.0509,-0.88628 -0.325,-1.27807 -0.18144,-0.2582 -0.53934,-0.76863 0.0608,-0.72477 -0.014,0.17147 -0.0309,0.33896 -0.0508,0.50644 0.29609,-0.0538 0.24724,-0.21733 0.27216,-0.44862 0.0249,-0.28213 0.4885,-0.21134 0.35391,-0.49348 -0.15353,-0.31802 -1.18435,0.0578 -0.93811,0.43666 -0.12462,-0.0369 -0.93313,-0.12761 -0.24126,0.0947 -0.58021,-0.0578 -1.6569,0.7138 -2.14938,0.1944 0.24724,-0.34294 0.69685,-0.52638 1.04977,-0.73773 0.31902,-0.18742 0.51242,-0.59816 0.66993,-0.91219 0.4227,-0.84241 0.36189,-1.75759 0.16151,-2.67377 -0.21833,0.13459 -0.2283,0.37585 -0.39877,0.54732 -0.18743,0.18742 -0.40476,0.35291 -0.56227,0.56625 -0.32899,0.44563 -0.6171,0.93812 -0.90522,1.41166 -0.31503,0.5174 -0.38581,0.4227 -0.93611,0.36886 -0.5194,-0.0508 -1.06273,0.48252 -1.63597,0.46258 0.0857,-0.31802 0.42868,-0.68091 0.67393,-0.89226 0.40874,-0.35889 0.93811,0.10668 1.33389,-0.26518 0.69486,-0.65399 0.65399,-1.81342 1.299,-2.54217 0.3579,-0.40176 0.57224,-0.67791 1.04578,-0.94908 0.55729,-0.31802 0.35291,-0.70383 0.52738,-1.21027 0.0977,-0.28512 0.41273,-0.33198 0.62707,-0.48949 0.0698,-0.0509 0.006,-0.43367 0.006,-0.49648 -0.006,-0.16748 0.26917,-0.94907 0.01,-1.06272 -0.10368,-0.0469 -0.25522,0.74072 -0.29011,0.81748 -0.21235,0.41273 -0.8434,0.67791 -1.15843,1.02584 -0.31204,0.34294 -0.59018,0.71181 -0.9112,1.0398 -0.14256,0.14455 -0.28213,0.37285 -0.48251,0.43665 -0.17546,0.0538 -0.33896,-0.0977 -0.50644,-0.0469 -0.31503,0.0977 -0.66196,0.49647 -1.01986,0.62707 -0.5194,0.19041 -0.91518,0.60314 -1.29103,0.99593 -0.13857,0.14156 -0.64999,0.82845 -0.82745,0.79156 -0.51441,-0.10667 -0.60314,0.64402 -0.89524,0.86833 0.16748,-0.0698 0.33497,-0.13459 0.50843,-0.1944 -0.21035,0.21833 -0.23727,0.54033 -0.45759,0.74869 -0.16549,-0.49647 -0.6171,-0.16848 -0.81549,-0.56326 -0.14056,-0.28114 -0.2921,-0.89824 -0.73174,-0.64402 0.11066,-0.18742 0.26319,-0.35291 0.43665,-0.48251 -0.0608,0.31802 0.33896,0.5832 0.40276,0.15352 0.0738,-0.49647 0.20039,-0.99294 0.20039,-1.49539 0,-0.47055 -0.64602,-0.77163 -0.43766,-1.26212 0.0798,-0.1934 0.21036,-0.39877 0.0997,-0.61012 -0.0838,-0.17047 -0.19042,-0.26817 -0.0489,-0.45559 -0.23528,0.1944 -0.40276,-0.0439 -0.66197,0.0269 -0.36387,0.0937 -0.21035,-0.16449 -0.27814,-0.31901 -0.0369,-0.0798 -0.22431,-0.49947 -0.16948,-0.56626 0.0758,-0.0977 0.55529,-0.80552 0.41074,-0.20437 0.2283,-0.1645 0.45958,-0.53336 0.26917,-0.8115 -0.2283,-0.32101 -0.59417,-0.0469 -0.87231,0.0139 0.0508,-0.16449 0.30605,-0.38581 0.28811,-0.56027 -0.0199,-0.23129 -0.27017,-0.35291 -0.29011,-0.59716 -0.014,-0.12063 -0.80253,0.22431 -0.82944,0.22132 -0.49648,-0.0608 -0.88229,-0.4895 -1.31994,-0.68489 -0.49448,-0.22132 -0.53136,0.31203 -0.9092,0.24524 -0.96004,-0.17147 -1.35483,-1.49639 -2.3717,-1.60605 -0.34294,-0.0409 -0.60314,0.1605 -0.90521,0.26817 -0.36787,0.13159 -0.78458,-0.0299 -1.16043,-0.0329 -0.95207,-0.007 -2.06962,0.0369 -2.99876,0.24126 -1.71971,0.37584 -3.24601,1.3648 -4.99662,1.71372 -0.8434,0.17147 -1.59708,0.14157 -2.44547,0.0608 -1.02983,-0.0937 -1.57515,0.33896 -2.45544,0.78459 -0.71679,0.36587 -1.54823,0.84938 -2.32284,1.05674 -0.83144,0.22232 -1.38873,0.27117 -1.92209,1.01986 -0.41272,0.56925 -0.81748,1.11258 -1.38274,1.54226 -0.10168,0.0768 -0.54931,0.47354 -0.68688,0.40575 -0.36787,-0.17845 -0.56626,0.18144 -0.9421,0.24524 0.23129,-0.59417 -1.58712,-0.37285 -1.84432,-0.26917 -0.43965,0.17446 -0.51442,0.44563 -0.69486,-0.15054 -0.006,-0.0169 -1.21726,-0.0947 -1.36879,-0.11066 -0.66395,-0.0797 -1.44854,0.11066 -2.09854,0.23428 -0.48849,0.0947 -0.91518,0.0509 -1.39769,0.12761 -0.6171,0.0977 -2.00981,0.39279 -1.84233,1.28105 -0.14456,-0.0738 -0.58021,0.19042 -0.73374,0.28513 -0.2283,0.13757 -0.44962,-0.16749 -0.69686,-0.1306 -0.24723,0.0359 -0.43067,0.25422 -0.60314,0.41173 -0.18842,0.17147 -0.36188,0.2283 -0.60314,0.31902 -0.35291,0.13359 -0.41672,0.33497 -0.68689,0.54632 -0.36587,0.27814 -0.89524,0.41871 -1.35881,0.40176 0.59417,0.2582 -0.66794,0.14156 -0.89724,0.12063 -0.80851,-0.0798 -1.60007,-0.0329 -2.40858,-0.1944 0.0289,-0.0798 0.0608,-0.16051 0.0937,-0.24126 -0.70483,0.11764 -1.02584,-0.47853 -1.31794,-0.95207 -0.23727,-0.3888 -0.87431,-1.18036 -1.36081,-0.66395 -0.43965,-0.4566 0.10368,-2.5671 0.92515,-2.06066"
         id="path3348"
         style="fill:#ffff00;stroke:#ffffff;stroke-width:0.29907909;stroke-miterlimit:3.97000003;stroke-dasharray:none" />
      <path
         inkscape:connector-curvature="0"
         d="m 808.41,321.93 c -0.029,-0.081 -0.064,-0.158 -0.098,-0.239 0.283,0.027 0.297,0.057 0.098,0.239"
         id="path3350"
         style="fill:#ffff00;stroke:#ffffff;stroke-width:0.30000001;stroke-miterlimit:3.97000003;stroke-dasharray:none" />
      <path
         inkscape:connector-curvature="0"
         d="m 833.308,319.171 c 0.219,-0.118 0.281,-0.313 0.074,-0.484 -0.199,0.117 -0.254,0.312 -0.074,0.484"
         id="path3956"
         style="fill:#ffff00;stroke:#ffffff;stroke-width:0.30000001;stroke-miterlimit:3.97000003;stroke-dasharray:none" />
      <path
         inkscape:connector-curvature="0"
         d="m 833.382,317.476 c 0.098,-0.074 0.154,-0.172 0.168,-0.293 -0.265,-0.028 -0.324,0.07 -0.168,0.293"
         id="path3958"
         style="fill:#ffff00;stroke:#ffffff;stroke-width:0.30000001;stroke-miterlimit:3.97000003;stroke-dasharray:none" />
      <path
         inkscape:connector-curvature="0"
         d="m 833.722,317.694 c 0.07,-0.111 0.104,-0.232 0.094,-0.363 -0.252,0.05 -0.275,0.188 -0.094,0.363"
         id="path3960"
         style="fill:#ffff00;stroke:#ffffff;stroke-width:0.30000001;stroke-miterlimit:3.97000003;stroke-dasharray:none" />
    </g>
    <g
       id="g8944"
       transform="matrix(-1,0,0,1,-501.0365,0)">
      <path
         inkscape:connector-curvature="0"
         id="path8251"
         d="m -275.27474,463.00012 -1.78299,26.51843"
         style="fill:none;fill-rule:evenodd;stroke:#000000;stroke-width:3;stroke-linecap:round;stroke-linejoin:round;stroke-miterlimit:4;stroke-dasharray:none;stroke-opacity:1" />
      <path
         sodipodi:nodetypes="sssss"
         inkscape:connector-curvature="0"
         id="path8253"
         d="m -271.1832,494.281 c 0.0669,4.17657 -2.92976,6.7282 -6.13126,6.77945 -3.20149,0.0512 -5.3955,-2.4173 -5.46235,-6.59386 -0.0669,-4.17656 2.50959,-5.39697 5.71107,-5.44821 3.20148,-0.0512 5.81568,1.08605 5.88254,5.26262 z"
         style="opacity:1;fill:#ffeeaa;fill-opacity:1;stroke:#000000;stroke-width:0.88238114;stroke-linecap:round;stroke-linejoin:round;stroke-miterlimit:4;stroke-dasharray:none;stroke-opacity:1" />
      <path
         style="fill:none;fill-rule:evenodd;stroke:#000000;stroke-width:3;stroke-linecap:round;stroke-linejoin:round;stroke-miterlimit:4;stroke-dasharray:none;stroke-opacity:1"
         d="m -346.02748,489.39297 0.86151,26.56433"
         id="path8247"
         inkscape:connector-curvature="0" />
      <path
         style="opacity:1;fill:#ffeeaa;fill-opacity:1;stroke:#000000;stroke-width:0.88238114;stroke-linecap:round;stroke-linejoin:round;stroke-miterlimit:4;stroke-dasharray:none;stroke-opacity:1"
         d="m -338.84719,520.11229 c 0.48164,4.14925 -2.24655,6.98608 -5.4271,7.35527 -3.18054,0.36918 -5.60902,-1.86907 -6.09065,-6.01831 -0.48164,-4.14924 1.96075,-5.61966 5.14129,-5.98885 3.18054,-0.36919 5.89482,0.50265 6.37646,4.65189 z"
         id="path8249"
         inkscape:connector-curvature="0"
         sodipodi:nodetypes="sssss" />
      <path
         style="fill:#00a903;fill-opacity:1;fill-rule:evenodd;stroke:#000000;stroke-width:1.26905859px;stroke-linecap:butt;stroke-linejoin:miter;stroke-opacity:1"
         d="m -447.54509,747.71104 -4.65116,65.9558 c 0,0 12.42515,7.69579 19.1693,6.89925 4.71772,-0.55719 11.91616,-7.81736 11.91616,-7.81736 l -4.29956,-57.65943"
         id="path8214"
         inkscape:connector-curvature="0"
         sodipodi:nodetypes="ccacc" />
      <path
         style="fill:#00a903;fill-opacity:1;fill-rule:evenodd;stroke:#000000;stroke-width:1.26905859px;stroke-linecap:butt;stroke-linejoin:miter;stroke-opacity:1"
         d="m -332.31406,746.54825 0,61.30464 c 0,0 12.42514,7.69578 19.16929,6.89925 4.71772,-0.55719 11.91617,-7.81736 11.91617,-7.81736 l -8.95072,-53.00827"
         id="path8218"
         inkscape:connector-curvature="0"
         sodipodi:nodetypes="ccacc" />
      <path
         sodipodi:nodetypes="cacascaacaassacssscc"
         inkscape:connector-curvature="0"
         id="path8208"
         d="m -557.45251,644.0734 c -6.31849,4.62052 5.25802,17.91644 8.71188,26.57529 6.02471,15.10401 4.26312,19.29188 20.88061,44.08918 11.22478,12.91684 16.28515,42.77396 34.68108,53.30961 29.04856,16.63659 71.41177,3.85186 100.31868,4.63854 29.62031,0.8061 23.14024,4.83144 88.40055,-9.35176 0,0 9.09242,-16.35189 11.08172,-25.36003 8.48369,-38.4166 4.31043,-78.68766 2.68141,-117.99611 -1.13656,-27.42513 -8.67611,-81.88767 -8.67611,-81.88767 0,0 37.09823,-9.05137 39.40218,-24.31133 2.95681,-19.5842 -19.63586,-41.08646 -39.10234,-44.7388 -13.5082,-2.53444 -35.21147,19.3429 -36.54194,19.09819 -9.37154,-1.72373 -3.89923,50.19578 -4.39362,48.29228 0,0 0.26548,59.89717 -0.0317,89.84354 -0.26033,26.2334 -1.53416,78.68911 -1.53416,78.68911 0,0 -36.02169,-15.29965 -50.91039,-15.78925 -25.31762,-0.83255 -37.62943,4.07681 -58.06865,30.17665 -4.48173,5.72294 -31.01924,33.15407 -38.193,19.88909 -3.13523,-5.79734 -12.30578,-33.50686 -22.41074,-46.81755 -16.4529,-17.53116 -14.80946,-34.75412 -46.29546,-48.34898 z"
         style="fill:#00a903;fill-opacity:1;fill-rule:evenodd;stroke:#000000;stroke-width:0.93099999;stroke-linecap:round;stroke-linejoin:round;stroke-miterlimit:4;stroke-dasharray:none;stroke-opacity:1" />
      <circle
         r="2.323297"
         cy="492.93118"
         cx="-300.28317"
         id="path8210"
         style="opacity:1;fill:#000000;fill-opacity:1;stroke:#000000;stroke-width:2.24104357;stroke-linecap:round;stroke-linejoin:round;stroke-miterlimit:4;stroke-dasharray:none;stroke-opacity:1" />
      <path
         sodipodi:nodetypes="ccacc"
         inkscape:connector-curvature="0"
         id="path8212"
         d="m -485.07226,752.33015 -5.49088,69.47623 c 0,0 12.42514,7.69578 19.16929,6.89925 4.71772,-0.5572 11.91617,-7.81736 11.91617,-7.81736 l -0.81119,-70.45013"
         style="fill:#00a903;fill-opacity:1;fill-rule:evenodd;stroke:#000000;stroke-width:1.26905859px;stroke-linecap:butt;stroke-linejoin:miter;stroke-opacity:1" />
      <path
         sodipodi:nodetypes="ccacc"
         inkscape:connector-curvature="0"
         id="path8216"
         d="m -381.18778,748.0239 0,75.25813 c 0,0 12.42515,7.69579 19.16929,6.89925 4.71773,-0.55719 11.91617,-7.81736 11.91617,-7.81736 l -8.95072,-66.96177"
         style="fill:#00a903;fill-opacity:1;fill-rule:evenodd;stroke:#000000;stroke-width:1.26905859px;stroke-linecap:butt;stroke-linejoin:miter;stroke-opacity:1" />
      <circle
         style="opacity:1;fill:#000000;fill-opacity:1;stroke:#000000;stroke-width:2.24104357;stroke-linecap:round;stroke-linejoin:round;stroke-miterlimit:4;stroke-dasharray:none;stroke-opacity:1"
         id="circle8220"
         cx="-289.81805"
         cy="492.93118"
         r="2.323297" />
      <path
         inkscape:connector-curvature="0"
         id="path8226"
         d="m -355.36042,490.84859 -2.20721,26.48649"
         style="fill:none;fill-rule:evenodd;stroke:#000000;stroke-width:3;stroke-linecap:round;stroke-linejoin:round;stroke-miterlimit:4;stroke-dasharray:none;stroke-opacity:1" />
      <path
         sodipodi:nodetypes="sssss"
         inkscape:connector-curvature="0"
         id="path8228"
         d="m -351.77008,522.19094 c 0,4.17711 -3.03709,6.68044 -6.23899,6.68044 -3.2019,-1e-5 -5.3561,-2.50334 -5.3561,-6.68044 0,-4.1771 2.59565,-5.3561 5.79754,-5.3561 3.2019,0 5.79755,1.179 5.79755,5.3561 z"
         style="opacity:1;fill:#ffeeaa;fill-opacity:1;stroke:#000000;stroke-width:0.88238114;stroke-linecap:round;stroke-linejoin:round;stroke-miterlimit:4;stroke-dasharray:none;stroke-opacity:1" />
      <path
         style="fill:none;fill-rule:evenodd;stroke:#000000;stroke-width:3;stroke-linecap:round;stroke-linejoin:round;stroke-miterlimit:4;stroke-dasharray:none;stroke-opacity:1"
         d="m -328.43249,490.84859 -2.20721,26.48649"
         id="path8235"
         inkscape:connector-curvature="0" />
      <path
         style="opacity:1;fill:#ffeeaa;fill-opacity:1;stroke:#000000;stroke-width:0.88238114;stroke-linecap:round;stroke-linejoin:round;stroke-miterlimit:4;stroke-dasharray:none;stroke-opacity:1"
         d="m -324.84215,522.19094 c 0,4.17711 -3.03709,6.68044 -6.23899,6.68044 -3.2019,-1e-5 -5.3561,-2.50334 -5.3561,-6.68044 0,-4.1771 2.59565,-5.3561 5.79754,-5.3561 3.2019,0 5.79755,1.179 5.79755,5.3561 z"
         id="path8237"
         inkscape:connector-curvature="0"
         sodipodi:nodetypes="sssss" />
      <path
         inkscape:connector-curvature="0"
         id="path8239"
         d="m -294.15436,481.89057 0.54091,26.57279"
         style="fill:none;fill-rule:evenodd;stroke:#000000;stroke-width:3;stroke-linecap:round;stroke-linejoin:round;stroke-miterlimit:4;stroke-dasharray:none;stroke-opacity:1" />
      <path
         sodipodi:nodetypes="sssss"
         inkscape:connector-curvature="0"
         id="path8241"
         d="m -287.34526,512.6943 c 0.43153,4.15476 -2.33069,6.95845 -5.51546,7.28924 -3.18477,0.33078 -5.58606,-1.93661 -6.01759,-6.09136 -0.43154,-4.15475 2.02842,-5.59559 5.21318,-5.92638 3.18477,-0.33079 5.88833,0.57375 6.31987,4.7285 z"
         style="opacity:1;fill:#ffeeaa;fill-opacity:1;stroke:#000000;stroke-width:0.88238114;stroke-linecap:round;stroke-linejoin:round;stroke-miterlimit:4;stroke-dasharray:none;stroke-opacity:1" />
      <path
         style="fill:none;fill-rule:evenodd;stroke:#000000;stroke-width:3;stroke-linecap:round;stroke-linejoin:round;stroke-miterlimit:4;stroke-dasharray:none;stroke-opacity:1"
         d="m -263.76917,463.1978 1.95658,26.50619"
         id="path8243"
         inkscape:connector-curvature="0" />
      <path
         style="opacity:1;fill:#ffeeaa;fill-opacity:1;stroke:#000000;stroke-width:0.88238114;stroke-linecap:round;stroke-linejoin:round;stroke-miterlimit:4;stroke-dasharray:none;stroke-opacity:1"
         d="m -255.32779,493.59479 c 0.65239,4.12585 -1.95644,7.0728 -5.11906,7.57288 -3.16261,0.50006 -5.68136,-1.6361 -6.33374,-5.76194 -0.65238,-4.12583 1.72727,-5.69577 4.88987,-6.19584 3.1626,-0.50007 5.91055,0.25906 6.56293,4.3849 z"
         id="path8245"
         inkscape:connector-curvature="0"
         sodipodi:nodetypes="sssss" />
      <path
         sodipodi:nodetypes="acacacccaa"
         inkscape:connector-curvature="0"
         id="path8222"
         d="m -360.77434,492.80538 c 5.43742,5.2433 22.22091,4.44418 22.22091,4.44418 0,0 26.83519,-1.91439 38.9335,-7.18632 12.2516,-5.33872 32.17338,-23.92294 32.17338,-23.92294 0,0 8.1676,-6.66875 6.87459,-10.70868 -1.23871,-3.87029 -11.31878,-4.52851 -11.31878,-4.52851 l -39.99762,0.63488 -41.90227,17.14184 c 0,0 -8.88477,6.01943 -10.15812,10.79301 -1.17745,4.41407 -0.11412,10.16142 3.17441,13.33254 z"
         style="fill:#008000;fill-rule:evenodd;stroke:#000000;stroke-width:1.43820393px;stroke-linecap:butt;stroke-linejoin:miter;stroke-opacity:1" />
      <path
         sodipodi:nodetypes="ccacc"
         inkscape:connector-curvature="0"
         id="path8224"
         d="m -348.71157,480.7426 -4.08705,-23.91228 c 0,0 16.14148,-18.41256 27.29997,-21.58602 10.65512,-3.0303 33.0139,3.8093 33.0139,3.8093 l 9.80101,22.00764"
         style="fill:#008000;fill-opacity:1;fill-rule:evenodd;stroke:#000000;stroke-width:1.43820393px;stroke-linecap:butt;stroke-linejoin:miter;stroke-opacity:1" />
      <path
         sodipodi:nodetypes="cccccc"
         inkscape:connector-curvature="0"
         id="path8940"
         d="m -316.29226,655.09151 -25.24621,-67.64082 0,19.5301 -10e-6,45.25266 10.47957,8.09784 z"
         style="fill:#848487;fill-opacity:1;fill-rule:evenodd;stroke:#000000;stroke-width:1px;stroke-linecap:butt;stroke-linejoin:miter;stroke-opacity:1" />
      <path
         style="fill:#848487;fill-opacity:1;fill-rule:evenodd;stroke:#000000;stroke-width:1px;stroke-linecap:butt;stroke-linejoin:miter;stroke-opacity:1"
         d="m -270.08691,678.90869 c 0,0 -4.89934,-28.7641 -8.35003,-42.92697 -4.46147,-18.31153 -15.9435,-54.24716 -15.9435,-54.24716 l 2.85806,20.95913 0.95268,43.82363 4.2871,29.05696 z"
         id="path8942"
         inkscape:connector-curvature="0"
         sodipodi:nodetypes="caccccc" />
      <g
         transform="matrix(-0.55156069,-0.19819377,-0.19819377,0.55156069,-623.01457,147.57939)"
         id="g8910">
        <path
           inkscape:connector-curvature="0"
           id="path8912"
           d="m -937.1796,643.43815 -18.99771,-20.76493 -3.53445,-1.32542 -1.76723,1.76723 -0.88362,28.27565 6.62711,-0.88361 0.44181,-1.76723 11.04517,0 0.88362,4.41807 1.76723,-2.65084 z"
           style="fill:#36353a;fill-opacity:1;fill-rule:evenodd;stroke:#000000;stroke-width:1px;stroke-linecap:butt;stroke-linejoin:miter;stroke-opacity:1" />
        <path
           sodipodi:nodetypes="ccccac"
           inkscape:connector-curvature="0"
           id="path8914"
           d="m -1046.1991,650.31778 105.15006,-0.88362 0,11.04518 -105.15006,0.44181 c 0,0 -3.1718,-3.57052 -3.0927,-5.74349 0.07,-1.91889 3.0927,-4.85988 3.0927,-4.85988 z"
           style="fill:#6a696a;fill-opacity:1;fill-rule:evenodd;stroke:#000000;stroke-width:1px;stroke-linecap:butt;stroke-linejoin:miter;stroke-opacity:1" />
        <path
           sodipodi:nodetypes="cccc"
           inkscape:connector-curvature="0"
           id="path8916"
           d="m -956.17731,627.5331 -1.76723,18.11409 15.46325,0.4418 z"
           style="fill:#ffffff;fill-opacity:1;fill-rule:evenodd;stroke:#000000;stroke-width:1px;stroke-linecap:butt;stroke-linejoin:miter;stroke-opacity:1" />
        <path
           sodipodi:nodetypes="cacccc"
           inkscape:connector-curvature="0"
           id="path8918"
           d="m -849.15317,640.59803 c 0,0 -1.03159,8.53401 -0.88361,12.8124 0.18503,5.34937 2.20903,15.90505 2.20903,15.90505 l -12.3706,-3.53445 -2.20903,-23.41578 z"
           style="fill:#636365;fill-opacity:1;fill-rule:evenodd;stroke:#000000;stroke-width:1px;stroke-linecap:butt;stroke-linejoin:miter;stroke-opacity:1" />
        <path
           sodipodi:nodetypes="cacccaccc"
           inkscape:connector-curvature="0"
           id="path8920"
           d="m -939.28181,639.2726 c 0,0 -3.83561,10.4824 -3.53446,15.90506 0.32796,5.90555 5.7435,16.78867 5.7435,16.78867 l 78.64165,-0.44181 1.76723,-5.30169 c 0,0 0.75066,-9.41882 0.64406,-14.13376 -0.0903,-3.99303 -1.08587,-11.93285 -1.08587,-11.93285 l -3.53445,-3.53446 z"
           style="fill:#36353a;fill-opacity:1;fill-rule:evenodd;stroke:#000000;stroke-width:1px;stroke-linecap:butt;stroke-linejoin:miter;stroke-opacity:1" />
        <path
           sodipodi:nodetypes="caccacc"
           inkscape:connector-curvature="0"
           id="path8924"
           d="m -838.72924,690.06265 c 0,0 -0.39092,17.73558 -1.81718,26.46083 -1.63118,9.97884 -7.66609,29.34916 -7.66609,29.34916 l 31.49455,9.51006 c 0,0 8.71727,-15.41704 10.56999,-23.94178 2.72178,-12.52344 0.47141,-38.44448 0.47141,-38.44448 z"
           style="fill:#6e7176;fill-opacity:1;fill-rule:evenodd;stroke:#000000;stroke-width:1px;stroke-linecap:butt;stroke-linejoin:miter;stroke-opacity:1" />
        <path
           sodipodi:nodetypes="ccccsccc"
           inkscape:connector-curvature="0"
           id="path8926"
           d="m -747.88864,643.28119 -97.28826,-3.56677 0.24335,2.75656 2.84929,-18.66162 c 0,0 75.10721,-14.57963 81.2925,-9.71975 6.1853,4.85988 5.30169,6.1853 5.30169,6.1853 l 2.65084,4.85988 z"
           style="fill:#48484a;fill-opacity:1;fill-rule:evenodd;stroke:#000000;stroke-width:1px;stroke-linecap:butt;stroke-linejoin:miter;stroke-opacity:1" />
        <path
           sodipodi:nodetypes="cccscc"
           style="fill:#00a903;fill-opacity:1;fill-rule:evenodd;stroke:#000000;stroke-width:0.48806772px;stroke-linecap:butt;stroke-linejoin:miter;stroke-opacity:1"
           d="m -835.98213,633.56942 0.6469,-7.54712 c 37.39801,-4.00198 67.29406,-7.77109 67.29406,-7.77109 0,0 9.14281,10.77018 3.86657,12.61814 -8.98826,3.14807 -49.08057,2.60957 -72.67005,2.9157 z"
           id="path8928"
           inkscape:connector-curvature="0" />
        <path
           inkscape:connector-curvature="0"
           id="path8930"
           d="m -731.63249,646.78332 0,18.11409 -13.69602,0 -1.76723,-17.23047 z"
           style="fill:#a4a4a7;fill-opacity:1;fill-rule:evenodd;stroke:#000000;stroke-width:1px;stroke-linecap:butt;stroke-linejoin:miter;stroke-opacity:1" />
        <path
           inkscape:connector-curvature="0"
           id="path8932"
           d="m -732.5161,645.89971 81.2925,-0.44181 5.74349,-2.65084 3.97626,5.30169 -3.82635,66.69715 -27.98376,-27.37633 0.44181,9.27795 -20.76493,-16.34686 -18.9977,1.32542 -4.41808,-3.53445 -7.51072,-9.27795 -7.2432,-0.82431 z"
           style="fill:#68676d;fill-opacity:1;fill-rule:evenodd;stroke:#000000;stroke-width:1px;stroke-linecap:butt;stroke-linejoin:miter;stroke-opacity:1"
           sodipodi:nodetypes="ccccccccccccc" />
        <path
           sodipodi:nodetypes="cac"
           inkscape:connector-curvature="0"
           id="path8936"
           d="m -784.64934,682.5697 c 0,0 2.35398,4.18544 2.04069,6.40378 -0.23919,1.69364 -2.85101,4.26644 -2.85101,4.26644"
           style="fill:none;fill-rule:evenodd;stroke:#000000;stroke-width:1.70622638;stroke-linecap:round;stroke-linejoin:round;stroke-miterlimit:4;stroke-dasharray:none;stroke-opacity:1" />
        <path
           inkscape:connector-curvature="0"
           id="path8938"
           d="m -803.64704,697.59114 31.81011,-0.44181"
           style="fill:none;fill-rule:evenodd;stroke:#000000;stroke-width:1.70622638;stroke-linecap:round;stroke-linejoin:round;stroke-miterlimit:4;stroke-dasharray:none;stroke-opacity:1"
           sodipodi:nodetypes="cc" />
        <path
           style="fill:none;fill-rule:evenodd;stroke:#373737;stroke-width:1.70622635px;stroke-linecap:round;stroke-linejoin:round;stroke-opacity:1;fill-opacity:1"
           d="m -827.82976,691.77978 c 0,0 1.01684,21.38219 -0.96092,31.80148 -1.22458,6.45132 -6.66168,18.53901 -6.66168,18.53901"
           id="path8984"
           inkscape:connector-curvature="0"
           sodipodi:nodetypes="cac" />
        <path
           sodipodi:nodetypes="cac"
           inkscape:connector-curvature="0"
           id="path8986"
           d="m -816.57393,695.82437 c 0,0 1.01684,21.38219 -0.96092,31.80148 -1.22458,6.45132 -6.66168,18.53901 -6.66168,18.53901"
           style="fill:none;fill-rule:evenodd;stroke:#373737;stroke-width:1.70622635px;stroke-linecap:round;stroke-linejoin:round;stroke-opacity:1;fill-opacity:1" />
        <path
           sodipodi:nodetypes="cccsc"
           inkscape:connector-curvature="0"
           id="path8922"
           d="m -755.49007,681.68608 30.48469,47.71516 -28.71746,7.06892 c 0,0 -22.97397,-40.20444 -22.09036,-54.78407 0.88362,-14.57964 20.32313,-1e-5 20.32313,-1e-5 z"
           style="fill:#403f44;fill-opacity:1;fill-rule:evenodd;stroke:#000000;stroke-width:1px;stroke-linecap:butt;stroke-linejoin:miter;stroke-opacity:1" />
        <path
           sodipodi:nodetypes="cccccccccccccccc"
           inkscape:connector-curvature="0"
           id="path8934"
           d="m -849.60152,661.99456 8.40088,7.76273 0,20.32313 37.99541,10.60337 -0.44181,-18.5559 30.48469,0.88361 19.2186,-1.10451 8.61524,-7.28982 5.74349,-0.88362 0,-29.60107 -3.97626,0 -5.30169,-5.74349 -94.98851,2.20904 0,6.18529 -5.66848,1.20782 z"
           style="fill:#48484a;fill-opacity:1;fill-rule:evenodd;stroke:#000000;stroke-width:1px;stroke-linecap:butt;stroke-linejoin:miter;stroke-opacity:1" />
      </g>
    </g>
  </g>
</svg>
